<svg width="1616" height="1616" viewBox="0 0 1616 1616" xmlns="http://www.w3.org/2000/svg" xmlns:xlink="http://www.w3.org/1999/xlink"><svg width="16" height="16" viewBox="0 0 16 16" xmlns="http://www.w3.org/2000/svg"><title>arrow-counter-down-grey</title><path fill="#c8c7cc" d="M1.88 3.369L8 9.094l6.12-5.725L16 5.132l-8 7.499-8-7.499z"/></svg><svg width="16" height="16" viewBox="0 0 16 16" x="16" y="16" xmlns="http://www.w3.org/2000/svg"><title>arrow-counter-up-grey</title><path fill="#c8c7cc" d="M1.88 12.662L8 6.937l6.12 5.725L16 10.899 8 3.4l-8 7.499z"/></svg><svg width="16" height="16" viewBox="0 0 16 16" x="32" y="32" xmlns="http://www.w3.org/2000/svg"><title>arrow-fillet-down-black</title><path fill="#4a4a4a" stroke="#4a4a4a" d="M8.896 11.638a1.302 1.302 0 0 1-1.79 0l-5.948-5.75a1.184 1.184 0 0 1 .076-1.637 1.297 1.297 0 0 1 1.7-.088l-.003-.002 5.068 4.892 5.068-4.89c.218-.17.495-.272.796-.272.35 0 .668.138.901.363a1.186 1.186 0 0 1 .075 1.642l.001-.001-5.943 5.743z"/></svg><svg width="16" height="16" viewBox="0 0 16 16" x="48" y="48" xmlns="http://www.w3.org/2000/svg"><title>arrow-fillet-up-black</title><path fill="#4a4a4a" stroke="#4a4a4a" d="M8.896 4.242a1.296 1.296 0 0 0-1.791.001l.001-.001-5.948 5.751a1.188 1.188 0 0 0 .076 1.638 1.302 1.302 0 0 0 1.697.09l5.068-4.892 5.068 4.89a1.3 1.3 0 0 0 1.697-.09 1.186 1.186 0 0 0 .075-1.642l.001.001-5.943-5.744z"/></svg><svg width="16" height="16" viewBox="0 0 16 16" x="64" y="64" xmlns="http://www.w3.org/2000/svg"><title>arrow-left-black</title><path fill="#4a4a4a" d="M.256 7.36l5.778-5.954a.854.854 0 0 1 1.238 0l.526.541a.904.904 0 0 1 .255.631v.008a.93.93 0 0 1-.256.645L4.426 6.712h10.711c.478.002.864.39.864.869V7.6v-.001.765c0 .497-.382.926-.864.926H4.389l3.409 3.501a.894.894 0 0 1 .256.627v.011a.903.903 0 0 1-.256.63l-.525.538a.855.855 0 0 1-1.238.001L.257 8.644a.91.91 0 0 1-.256-.633v-.008c0-.242.09-.471.256-.64z"/></svg><svg width="16" height="16" viewBox="0 0 16 16" x="80" y="80" xmlns="http://www.w3.org/2000/svg"><title>arrow-right-black</title><path fill="#4a4a4a" d="M15.744 7.36L9.966 1.406a.854.854 0 0 0-1.238 0l-.526.541a.904.904 0 0 0-.255.631v.008c0 .24.091.475.256.645l3.371 3.481H.862a.869.869 0 0 0-.863.869V7.6v-.001.765c0 .497.382.926.864.926h10.749l-3.409 3.501a.894.894 0 0 0-.256.627v.005c0 .241.091.465.256.635l.525.538a.855.855 0 0 0 1.238.001l5.778-5.954A.91.91 0 0 0 16 8.01v-.015a.91.91 0 0 0-.256-.633z"/></svg><svg width="16" height="16" viewBox="0 0 16 16" x="96" y="96" xmlns="http://www.w3.org/2000/svg"><title>arrow-right-grey</title><path fill="#c8c7cc" d="M15.744 7.36L9.966 1.406a.854.854 0 0 0-1.238 0l-.526.541a.904.904 0 0 0-.255.631v.008c0 .24.091.475.256.645l3.371 3.481H.862a.869.869 0 0 0-.863.869V7.6v-.001.765c0 .497.382.926.864.926h10.749l-3.409 3.501a.894.894 0 0 0-.256.627v.005c0 .241.091.465.256.635l.525.538a.855.855 0 0 0 1.238.001l5.778-5.954A.91.91 0 0 0 16 8.01v-.015a.91.91 0 0 0-.256-.633z"/></svg><svg width="16" height="16" viewBox="0 0 16 16" x="112" y="112" xmlns="http://www.w3.org/2000/svg"><title>arrow-right-red</title><path fill="#c83c32" d="M15.744 7.36L9.966 1.406a.854.854 0 0 0-1.238 0l-.526.541a.904.904 0 0 0-.255.631v.008c0 .24.091.475.256.645l3.371 3.481H.862a.869.869 0 0 0-.863.869V7.6v-.001.765c0 .497.382.926.864.926h10.749l-3.409 3.501a.894.894 0 0 0-.256.627v.005c0 .241.091.465.256.635l.525.538a.855.855 0 0 0 1.238.001l5.778-5.954A.91.91 0 0 0 16 8.01v-.015a.91.91 0 0 0-.256-.633z"/></svg><svg width="16" height="16" viewBox="0 0 16 16" x="128" y="128" xmlns="http://www.w3.org/2000/svg"><title>arrow-right-white</title><path fill="#fff" d="M15.744 7.36L9.966 1.406a.854.854 0 0 0-1.238 0l-.526.541a.904.904 0 0 0-.255.631v.008c0 .24.091.475.256.645l3.371 3.481H.862a.869.869 0 0 0-.863.869V7.6v-.001.765c0 .497.382.926.864.926h10.748l-3.409 3.501a.894.894 0 0 0-.256.627v.005c0 .241.091.465.256.635l.525.538a.855.855 0 0 0 1.238.001l5.778-5.954a.91.91 0 0 0 .256-.633v-.015a.91.91 0 0 0-.256-.633z"/></svg><svg width="16" height="16" viewBox="0 0 16 16" x="144" y="144" xmlns="http://www.w3.org/2000/svg"><title>arrow-right-yellow</title><path fill="#fc0" d="M15.744 7.36L9.966 1.406a.854.854 0 0 0-1.238 0l-.526.541a.904.904 0 0 0-.255.631v.008c0 .24.091.475.256.645l3.371 3.481H.862a.869.869 0 0 0-.863.869V7.6v-.001.765c0 .497.382.926.864.926h10.748l-3.409 3.501a.894.894 0 0 0-.256.627v.005c0 .241.091.465.256.635l.525.538a.855.855 0 0 0 1.238.001l5.778-5.954a.91.91 0 0 0 .256-.633v-.015a.91.91 0 0 0-.256-.633z"/></svg><svg width="16" height="16" viewBox="0 0 16 16" x="160" y="160" xmlns="http://www.w3.org/2000/svg"><title>arrow-up-black</title><path fill="#4a4a4a" d="M8.64.256l5.954 5.778a.854.854 0 0 1 0 1.238l-.541.526a.904.904 0 0 1-.631.255h-.013a.927.927 0 0 1-.64-.256L9.288 4.426v10.711a.868.868 0 0 1-.869.864H8.4h.001-.765c-.497 0-.926-.382-.926-.864V4.388L3.209 7.797a.894.894 0 0 1-.627.256h-.011a.903.903 0 0 1-.63-.256l-.538-.525a.855.855 0 0 1-.001-1.238L7.356.256A.908.908 0 0 1 7.989 0h.008c.242 0 .471.09.64.256z"/></svg><svg width="16" height="16" viewBox="0 0 16 16" x="176" y="176" xmlns="http://www.w3.org/2000/svg"><title>bars-black</title><path fill="#4a4a4a" d="M.889 1.778h14.222a.889.889 0 1 1 0 1.778H.889a.889.889 0 1 1 0-1.778zm0 5.333h14.222a.889.889 0 1 1 0 1.778H.889a.889.889 0 1 1 0-1.778zm0 5.333h14.222a.889.889 0 1 1 0 1.778H.889a.889.889 0 1 1 0-1.778z"/></svg><svg width="16" height="16" viewBox="0 0 16 16" x="192" y="192" xmlns="http://www.w3.org/2000/svg"><title>calendar-black</title><path fill="#4a4a4a" d="M12.205 1.513h-.372V.707a.641.641 0 0 0-.641-.641h-.017.001a.64.64 0 0 0-.657.648v.8H5.482V.707a.641.641 0 0 0-.641-.641h-.017.001a.64.64 0 0 0-.657.648v.8h-.373C1.979 1.513.511 2.962.511 4.757v7.933c0 1.796 1.468 3.244 3.287 3.244h8.431c1.817 0 3.285-1.448 3.285-3.243V4.756a3.293 3.293 0 0 0-3.293-3.244h-.014.001zm0 13.124H3.773a1.951 1.951 0 0 1-1.951-1.947V6.919h12.376v5.773a1.984 1.984 0 0 1-1.984 1.947h-.01.001zM3.795 2.811h.372v.8c0 .368.285.649.657.649a.64.64 0 0 0 .657-.649v-.8h5.037v.8c0 .368.285.649.657.649a.64.64 0 0 0 .657-.649v-.8h.373c1.093 0 1.971.865 1.971 1.947v.864H1.821v-.864c0-1.06.876-1.947 1.972-1.947z"/><path fill="#4a4a4a" d="M11.701 11.243H4.324c-.373 0-.657.281-.657.649s.284.648.657.648h7.356a.64.64 0 0 0 .657-.648v-.013a.636.636 0 0 0-.636-.636zm-7.368-1.146h7.344a.64.64 0 0 0 .657-.649v-.007a.641.641 0 0 0-.641-.641h-.017.001-7.344c-.373 0-.657.28-.657.648s.285.649.657.649z"/></svg><svg width="16" height="16" viewBox="0 0 16 16" x="208" y="208" xmlns="http://www.w3.org/2000/svg"><title>calendar-color</title><path fill="#4a4a4a" d="M12.205 1.514h-.372v-.8a.641.641 0 0 0-.658-.649h-.017a.641.641 0 0 0-.641.641v.809H5.481v-.8a.641.641 0 0 0-.658-.649h-.016a.641.641 0 0 0-.641.641v.809h-.372c-1.82 0-3.287 1.449-3.287 3.242v7.935c0 1.796 1.468 3.244 3.286 3.244h8.433c1.818 0 3.286-1.449 3.286-3.244V4.759a3.293 3.293 0 0 0-3.308-3.243zM3.796 2.812h.372v.8c0 .367.284.648.658.648s.658-.281.658-.649v-.8h5.037v.8c0 .368.284.649.658.649a.641.641 0 0 0 .657-.649v-.8h.372c1.096 0 1.972.865 1.972 1.947v.864H1.825v-.865c0-1.06.876-1.946 1.972-1.946z"/><path fill="#fc0" d="M12.205 14.638h-8.41a1.951 1.951 0 0 1-1.972-1.947V6.919h12.376v5.772a1.984 1.984 0 0 1-1.984 1.947h-.011.001z"/><path fill="#4a4a4a" d="M11.702 11.244H4.306a.641.641 0 0 0-.641.641v.009c0 .367.285.649.658.649h7.356c.372 0 .658-.282.658-.649s-.285-.649-.636-.649zm-7.368-1.146h7.342c.373 0 .658-.282.658-.649s-.284-.649-.658-.649H4.318a.641.641 0 0 0-.641.641v.009c0 .367.284.649.658.649z"/></svg><svg width="16" height="16" viewBox="0 0 16 16" x="224" y="224" xmlns="http://www.w3.org/2000/svg"><title>calendar-grey</title><path fill="#63b31f" d="M12.191 1.46h-.372V.653A.643.643 0 0 0 11.162 0h-.014a.644.644 0 0 0-.644.644v.01-.001.807H5.47V.653A.643.643 0 0 0 4.813 0H4.8a.644.644 0 0 0-.644.644v.01-.001.807h-.384A3.272 3.272 0 0 0 .5 4.73v8A3.272 3.272 0 0 0 3.772 16h8.452a3.272 3.272 0 0 0 3.272-3.27V4.729a3.306 3.306 0 0 0-3.305-3.269h-.001zM3.786 2.768h.372v.807c0 .37.285.653.657.653h.014a.644.644 0 0 0 .644-.644v-.01.001-.807h5.035v.807c0 .37.285.653.657.653h.013a.644.644 0 0 0 .644-.644v-.01.001-.807h.384c1.082 0 1.958.877 1.958 1.958v.875H1.816v-.872a1.973 1.973 0 0 1 1.97-1.962z"/><path fill="#63b31f" d="M12.191 14.692H3.774a1.958 1.958 0 0 1-1.958-1.958V6.911h12.367v5.82a1.99 1.99 0 0 1-1.99 1.962h-.002z"/><path fill="#fff" d="M11.688 11.269H4.301a.644.644 0 0 0-.644.644v.01-.001c0 .371.285.655.657.655h7.366a.644.644 0 0 0 .644-.644v-.011.001a.638.638 0 0 0-.635-.653zm-7.363-1.155h7.352a.644.644 0 0 0 .644-.644v-.011.001a.644.644 0 0 0-.657-.654H4.313a.644.644 0 0 0-.644.644v.01-.001c0 .371.285.655.657.655z"/></svg><svg width="16" height="16" viewBox="0 0 16 16" x="240" y="240" xmlns="http://www.w3.org/2000/svg"><title>calendar-grey</title><path fill="#c8c7cc" d="M12.191 1.46h-.372V.653A.643.643 0 0 0 11.162 0h-.014a.644.644 0 0 0-.644.644v.01-.001.807H5.47V.653A.643.643 0 0 0 4.813 0H4.8a.644.644 0 0 0-.644.644v.01-.001.807h-.384A3.272 3.272 0 0 0 .5 4.73v8A3.272 3.272 0 0 0 3.772 16h8.452a3.272 3.272 0 0 0 3.272-3.27V4.729a3.306 3.306 0 0 0-3.305-3.269h-.001zM3.786 2.768h.372v.807c0 .37.285.653.657.653h.014a.644.644 0 0 0 .644-.644v-.01.001-.807h5.035v.807c0 .37.285.653.657.653h.013a.644.644 0 0 0 .644-.644v-.01.001-.807h.384c1.082 0 1.958.877 1.958 1.958v.875H1.816v-.872a1.973 1.973 0 0 1 1.97-1.962z"/><path fill="#c8c7cc" d="M12.191 14.692H3.774a1.958 1.958 0 0 1-1.958-1.958V6.911h12.367v5.82a1.99 1.99 0 0 1-1.99 1.962h-.002z"/><path fill="#fff" d="M11.688 11.269H4.301a.644.644 0 0 0-.644.644v.01-.001c0 .371.285.655.657.655h7.366a.644.644 0 0 0 .644-.644v-.011.001a.638.638 0 0 0-.635-.653zm-7.363-1.155h7.352a.644.644 0 0 0 .644-.644v-.011.001a.644.644 0 0 0-.657-.654H4.313a.644.644 0 0 0-.644.644v.01-.001c0 .371.285.655.657.655z"/></svg><svg width="16" height="16" viewBox="0 0 16 16" x="256" y="256" xmlns="http://www.w3.org/2000/svg"><title>check-black</title><path fill="#4a4a4a" d="M1.846 7.385L0 9.231l4.923 4.923L16 3.692l-1.846-1.846-9.231 8.615z"/></svg><svg width="16" height="16" viewBox="0 0 16 16" x="272" y="272" xmlns="http://www.w3.org/2000/svg"><title>check-grey</title><path fill="#c8c7cc" d="M1.846 7.385L0 9.231l4.923 4.923L16 3.692l-1.846-1.846-9.231 8.615z"/></svg><svg width="16" height="16" viewBox="0 0 16 16" x="288" y="288" xmlns="http://www.w3.org/2000/svg"><title>check-yellow</title><path fill="#fc0" d="M1.846 7.385L0 9.231l4.923 4.923L16 3.692l-1.846-1.846-9.231 8.615z"/></svg><svg width="16" height="16" viewBox="0 0 16 16" x="304" y="304" xmlns="http://www.w3.org/2000/svg"><title>clock-color</title><path fill="#4a4a4a" d="M8 16A8 8 0 1 1 8 0a8 8 0 0 1 0 16z"/><path fill="#fc0" d="M8 14.757A6.757 6.757 0 1 0 8 1.244a6.757 6.757 0 0 0 0 13.513z"/><path fill="#4a4a4a" d="M8.466 8.048l3.414 1.971-.621 1.076-4.038-2.317.002-.003V3.34h1.243v4.708z"/></svg><svg width="16" height="16" viewBox="0 0 16 16" x="320" y="320" xmlns="http://www.w3.org/2000/svg"><title>clock-grey</title><path fill="#c8c7cc" d="M8 16A8 8 0 1 1 8 0a8 8 0 0 1 0 16zm0-1.243A6.757 6.757 0 1 0 8 1.244a6.757 6.757 0 0 0 0 13.513z"/><path fill="#c8c7cc" d="M8.466 8.048l3.414 1.971-.621 1.076-4.038-2.317.002-.003V3.34h1.243v4.708z"/></svg><svg width="16" height="16" viewBox="0 0 16 16" x="336" y="336" xmlns="http://www.w3.org/2000/svg"><title>cross-black</title><path fill="#4a4a4a" d="M9.761 8l5.982-5.982a.868.868 0 0 0 0-1.236l-.525-.523a.865.865 0 0 0-.615-.256h-.008a.865.865 0 0 0-.615.256L7.999 6.24 2.018.258a.865.865 0 0 0-.613-.254h-.008A.865.865 0 0 0 .782.26L.257.783C.098.941 0 1.16 0 1.402s.098.461.257.619l5.981 5.981-5.981 5.982a.87.87 0 0 0-.256.616v.001a.87.87 0 0 0 .256.619l.525.523a.867.867 0 0 0 .617.256h.004c.24 0 .458-.098.615-.256L8 9.762l5.979 5.982a.875.875 0 0 0 .619.254h.003a.868.868 0 0 0 .616-.256l.523-.523a.87.87 0 0 0 .256-.616v-.006a.866.866 0 0 0-.256-.616L9.759 8z"/></svg><svg width="16" height="16" viewBox="0 0 16 16" x="352" y="352" xmlns="http://www.w3.org/2000/svg"><title>cross-circle-black</title><path fill="#4a4a4a" d="M8 0a8 8 0 0 0 0 16A8 8 0 0 0 8 0zm0 14.609A6.61 6.61 0 0 1 8 1.391a6.61 6.61 0 0 1 0 13.218zm2.797-8.427L8.98 8l1.818 1.818a.692.692 0 0 1-.979.98L8 8.978l-1.818 1.818a.687.687 0 0 1-.98 0 .69.69 0 0 1 0-.978l1.82-1.817-1.819-1.818a.692.692 0 0 1 .979-.98L8 7.023l1.818-1.818a.692.692 0 0 1 .98.979z"/></svg><svg width="16" height="16" viewBox="0 0 16 16" x="368" y="368" xmlns="http://www.w3.org/2000/svg"><title>cross-circle-grey</title><path fill="#c8c7cc" d="M8 0a8 8 0 0 0 0 16A8 8 0 0 0 8 0zm0 14.609A6.61 6.61 0 0 1 8 1.391a6.61 6.61 0 0 1 0 13.218zm2.797-8.427L8.98 8l1.818 1.818a.692.692 0 0 1-.979.98L8 8.978l-1.818 1.818a.687.687 0 0 1-.98 0 .69.69 0 0 1 0-.978l1.82-1.817-1.819-1.818a.692.692 0 0 1 .979-.98L8 7.023l1.818-1.818a.692.692 0 0 1 .98.979z"/></svg><svg width="16" height="16" viewBox="0 0 16 16" x="384" y="384" xmlns="http://www.w3.org/2000/svg"><title>cancel</title><path fill="#fff" d="M10.301 8.256a.353.353 0 0 1 0-.511l5.479-5.479c.146-.146.219-.365.219-.511s-.073-.365-.219-.511L14.757.221a.789.789 0 0 0-.511-.219.663.663 0 0 0-.511.219L8.256 5.7a.353.353 0 0 1-.511 0L2.266.221C2.12.075 1.901.002 1.755.002s-.365.073-.511.219L.221 1.244c-.146.146-.219.365-.219.511s.073.365.219.511L5.7 7.745a.353.353 0 0 1 0 .511L.221 13.735c-.146.146-.219.365-.219.511s.073.365.219.511l1.023 1.023c.146.146.365.219.511.219s.365-.073.511-.219l5.479-5.479a.353.353 0 0 1 .511 0l5.479 5.479c.146.146.365.219.511.219s.365-.073.511-.219l1.023-1.023c.146-.146.219-.365.219-.511s-.073-.365-.219-.511l-5.479-5.479z"/></svg><svg width="16" height="16" viewBox="0 0 16 16" x="400" y="400" xmlns="http://www.w3.org/2000/svg"><title>cryface-grey</title><path fill="#c8c7cc" d="M8 16c-4.4 0-8-3.6-8-8s3.6-8 8-8 8 3.6 8 8c-.1 4.4-3.7 8-8 8zM8 1.8C4.5 1.8 1.8 4.6 1.8 8c0 3.5 2.8 6.2 6.2 6.2 3.5 0 6.2-2.8 6.2-6.2S11.4 1.8 8 1.8zm3.6 9.9c-.1.1-.3.1-.4.1-.2 0-.5-.1-.6-.4-.4-.7-1.5-1.3-2.5-1.3s-2.1.5-2.5 1.3c-.2.3-.7.5-1.1.2-.3-.2-.5-.7-.2-1.1.7-1.3 2.2-2 3.9-2s3.2.7 3.9 2c0 .6-.2 1-.5 1.2zm-1.3-4.4c-.6 0-1.2-.5-1.2-1.2s.5-1.2 1.2-1.2 1.2.5 1.2 1.2-.6 1.2-1.2 1.2zm-4.7 0c-.6 0-1.2-.5-1.2-1.2s.5-1.2 1.2-1.2 1.2.5 1.2 1.2-.6 1.2-1.2 1.2z"/></svg><svg width="16" height="16" viewBox="0 0 16 16" x="416" y="416" xmlns="http://www.w3.org/2000/svg"><title>delivery-green</title><path fill="#4a4a4a" d="M15.258 12.936h-.924a2.017 2.017 0 0 1-1.93 1.464h-.013a1.99 1.99 0 0 1-1.916-1.45l-.003-.014H8.068A2.018 2.018 0 0 1 6.137 14.4h-.012a1.99 1.99 0 0 1-1.916-1.45l-.003-.014H3.141a.736.736 0 0 1-.524-.219.75.75 0 0 1-.217-.528V9.36c.366.109.786.171 1.22.171a4.418 4.418 0 0 0 3.361-1.545l.005-.006a4.519 4.519 0 0 0 1.092-2.955 4.52 4.52 0 0 0-.395-1.855l.012.029H9.65a.75.75 0 0 1 .745.75v.319h2.54a.8.8 0 0 1 .677.375l2.18 3.465c.136.213.208.462.208.715v3.362c0 .2-.078.39-.217.531a.733.733 0 0 1-.525.22zm-9.121-1.412a.848.848 0 0 0-.829.837v.001c0 .463.371.838.829.838a.833.833 0 0 0 .829-.833v-.01a.833.833 0 0 0-.83-.833zm6.276 1.689a.854.854 0 0 0 .834-.845v-.003a.841.841 0 0 0-.834-.841.854.854 0 0 0-.835.844c0 .466.374.844.835.845zm1.971-5.176l-1.543-2.453a.183.183 0 0 0-.155-.086h-1.4a.185.185 0 0 0-.183.184v2.456c0 .102.082.185.183.185h2.942a.183.183 0 0 0 .163-.096.187.187 0 0 0-.007-.191v.001z"/><path fill="#63b31f" d="M3.6 1.6a3.6 3.6 0 0 0 0 7.2 3.6 3.6 0 0 0 0-7.2zm1.307 5.617a.58.58 0 0 1-.76 0L2.611 5.834V3.731c0-.268.242-.486.539-.486s.538.218.538.486v1.7l1.224 1.104a.45.45 0 0 1-.006.681h-.001z"/></svg><svg width="16" height="16" viewBox="0 0 16 16" x="432" y="432" xmlns="http://www.w3.org/2000/svg"><title>delivery-yellow</title><path fill="#4a4a4a" d="M15.258 12.936h-.924a2.017 2.017 0 0 1-1.93 1.464h-.013a1.99 1.99 0 0 1-1.916-1.45l-.003-.014H8.068A2.018 2.018 0 0 1 6.137 14.4h-.012a1.99 1.99 0 0 1-1.916-1.45l-.003-.014H3.141a.736.736 0 0 1-.524-.219.75.75 0 0 1-.217-.528V9.36c.366.109.786.171 1.22.171a4.418 4.418 0 0 0 3.361-1.545l.005-.006a4.519 4.519 0 0 0 1.092-2.955 4.52 4.52 0 0 0-.395-1.855l.012.029H9.65a.75.75 0 0 1 .745.75v.319h2.54a.8.8 0 0 1 .677.375l2.18 3.465c.136.213.208.462.208.715v3.362c0 .2-.078.39-.217.531a.733.733 0 0 1-.525.22zm-9.121-1.412a.848.848 0 0 0-.829.837v.001c0 .463.371.838.829.838a.833.833 0 0 0 .829-.833v-.01a.833.833 0 0 0-.83-.833zm6.276 1.689a.854.854 0 0 0 .834-.845v-.003a.841.841 0 0 0-.834-.841.854.854 0 0 0-.835.844c0 .466.374.844.835.845zm1.971-5.176l-1.543-2.453a.183.183 0 0 0-.155-.086h-1.4a.185.185 0 0 0-.183.184v2.456c0 .102.082.185.183.185h2.942a.183.183 0 0 0 .163-.096.187.187 0 0 0-.007-.191v.001z"/><path fill="#f5c200" d="M3.6 1.6a3.6 3.6 0 0 0 0 7.2 3.6 3.6 0 0 0 0-7.2zm1.307 5.617a.58.58 0 0 1-.76 0L2.611 5.834V3.731c0-.268.242-.486.539-.486s.538.218.538.486v1.7l1.224 1.104a.45.45 0 0 1-.006.681h-.001z"/></svg><svg width="16" height="16" viewBox="0 0 16 16" x="448" y="448" xmlns="http://www.w3.org/2000/svg"><title>discount-percent-grey</title><path fill="#c8c7cc" stroke="#c8c7cc" stroke-width=".24" d="M15.576 7.622a.535.535 0 0 1 0 .756l-1.527 1.547.307 2.132a.545.545 0 0 1-.45.611h-.003l-2.165.371-1.031 1.902a.555.555 0 0 1-.736.231l.003.001-1.976-.945-1.975.946a.56.56 0 0 1-.731-.23l-.001-.003-1.031-1.903-2.165-.371a.545.545 0 0 1-.453-.614v.003l.308-2.132L.421 8.377a.535.535 0 0 1 0-.756l1.528-1.547-.308-2.132a.545.545 0 0 1 .45-.611h.003l2.165-.371L5.29 1.058a.56.56 0 0 1 .735-.231L6.022.826l1.976.945L9.973.825a.558.558 0 0 1 .732.23l.001.003 1.03 1.903 2.165.371c.295.05.495.32.453.611l-.307 2.132 1.527 1.547zM13.063 9.36l1.344-1.361-1.344-1.36a.535.535 0 0 1-.15-.457v.003l.272-1.875-1.905-.327a.553.553 0 0 1-.392-.277l-.001-.003-.906-1.672-1.736.831a.553.553 0 0 1-.49-.002l.003.001-1.736-.831-.907 1.672a.558.558 0 0 1-.39.281h-.003l-1.904.326.272 1.875a.534.534 0 0 1-.152.454l-1.344 1.36 1.344 1.361c.119.12.175.288.15.454l-.271 1.875 1.904.327c.171.03.313.134.392.278l.001.003.906 1.671 1.736-.831a.553.553 0 0 1 .49.002l-.003-.001 1.737.831.906-1.672a.556.556 0 0 1 .39-.28h.003l1.904-.327-.272-1.875a.534.534 0 0 1 .152-.454z"/><path fill="#c8c7cc" d="M6.241 7.59c.74 0 1.341-.59 1.341-1.314s-.601-1.315-1.341-1.315-1.342.59-1.342 1.315C4.899 7 5.5 7.59 6.241 7.59zm4.437-2.212a.448.448 0 0 0-.628.001l-4.726 4.63a.428.428 0 0 0 0 .614.445.445 0 0 0 .626-.001l4.727-4.63a.428.428 0 0 0 0-.614zM9.76 8.41c-.739 0-1.341.59-1.341 1.314s.601 1.315 1.341 1.315c.741 0 1.342-.591 1.342-1.315S10.501 8.41 9.76 8.41z"/></svg><svg width="16" height="16" viewBox="0 0 16 16" x="464" y="464" xmlns="http://www.w3.org/2000/svg"><title>discount-percent-red</title><defs><linearGradient x1="50%" y1="0%" x2="50%" y2="100%" id="a"><stop stop-color="#FBB03B" offset="0%"/><stop stop-color="#D4145A" offset="100%"/></linearGradient></defs><path fill="url(#a)" d="M14.758 8c0-1.019 1.241-2.277.874-3.163-.38-.917-2.163-.924-2.855-1.616-.692-.691-.699-2.473-1.617-2.854-.885-.367-2.143.875-3.162.875S5.721 0 4.836.367c-.917.38-.925 2.162-1.616 2.854S.746 3.919.366 4.838c-.367.885.875 2.143.875 3.161s-1.242 2.277-.875 3.162c.38.918 2.162.926 2.854 1.618s.698 2.474 1.616 2.854c.885.368 2.144-.874 3.162-.874s2.277 1.241 3.163.874c.918-.38.925-2.162 1.617-2.854s2.474-.699 2.854-1.617c.368-.885-.874-2.144-.874-3.163z"/><path fill="#fff" fill-rule="evenodd" d="M4.814 6.126a1.38 1.38 0 0 1 1.345-1.679c.649 0 1.2.442 1.342 1.075.081.358.016.727-.18 1.037a1.369 1.369 0 0 1-1.158.641h-.006c-.647 0-1.2-.442-1.342-1.075zM6.365 11.4l-.846-.535L9.535 4.52l.846.535L6.365 11.4zm4.602-.498a1.371 1.371 0 0 1-1.16.641h-.004a1.385 1.385 0 0 1-1.34-1.065l-.002-.009a1.364 1.364 0 0 1 .183-1.044l-.003.005A1.37 1.37 0 0 1 9.8 8.789h.004c.648 0 1.2.442 1.342 1.075.081.358.017.726-.18 1.037z"/></svg><svg width="16" height="16" viewBox="0 0 16 16" x="480" y="480" xmlns="http://www.w3.org/2000/svg"><title>envelope-fill-color</title><path fill="#4a4a4a" stroke="#4a4a4a" stroke-width=".178" d="M12.271 14.146H1.217C.546 14.146 0 13.579 0 12.884v-8.2c0-.696.546-1.262 1.217-1.262h8.937c.253 0 .457.212.457.474v.009a.467.467 0 0 1-.457.466H1.216a.309.309 0 0 0-.302.308v8.203c0 .174.135.314.302.314H12.27a.308.308 0 0 0 .302-.314V8.325c0-.255.204-.462.458-.466.253 0 .457.212.457.475v4.549c0 .697-.546 1.263-1.216 1.263z"/><path fill="#c8c7cc" d="M9.96 5.003c0-.342.053-.671.152-.979H1.306c-.635 0-.908.837-.402 1.236l5.438 4.3a.645.645 0 0 0 .805 0l3.407-2.693a3.172 3.172 0 0 1-.592-1.853v-.012.001z"/><path fill="#4a4a4a" stroke="#4a4a4a" stroke-width=".178" d="M6.744 10.176c-.244 0-.485-.085-.68-.238L.626 5.636a1.173 1.173 0 0 1-.38-1.307l-.003.008a1.11 1.11 0 0 1 1.062-.79h8.806c.146 0 .283.073.37.196s.11.283.064.427a2.735 2.735 0 0 0 .38 2.42l-.006-.008a.486.486 0 0 1-.091.66L7.422 9.937a1.097 1.097 0 0 1-.68.238zM1.306 4.498c-.128 0-.178.091-.196.145a.208.208 0 0 0 .07.239h.001l5.439 4.3a.202.202 0 0 0 .251 0l3.071-2.428a3.628 3.628 0 0 1-.439-1.743c0-.181.013-.359.038-.533l-.002.02H1.307z"/><path fill="#c83c32" d="M12.523 9.066c-1.917 0-3.478-1.618-3.478-3.606s1.561-3.606 3.478-3.606S16 3.472 16 5.46c0 1.989-1.56 3.606-3.477 3.606z"/></svg><svg width="16" height="16" viewBox="0 0 16 16" x="496" y="496" xmlns="http://www.w3.org/2000/svg"><title>envelope-rotate-color</title><path fill="#fc0" d="M1.505 6.924l4.952-4.329 7.858 7.338-3.499 3.959-3.108-.173-6.203-6.554z"/><path fill="#4a4a4a" d="M15.376 13.204h-2.93l2.744-2.628a.621.621 0 0 0 0-.907L6.96 1.788a.689.689 0 0 0-.947 0L.81 6.77a.621.621 0 0 0 0 .907l5.77 5.526H.625c-.345 0-.625.267-.625.598s.28.598.624.598h14.752c.344 0 .624-.268.624-.598s-.28-.598-.624-.598zm-2.708-4.136l-4.189-.854-.891-4.011 5.08 4.864zM2.231 7.224l3.814-3.653 1.186 5.334c.03.13.095.242.185.328.092.088.21.15.342.178l5.569 1.136-2.775 2.658H8.474l-6.243-5.98z"/></svg><svg width="16" height="16" viewBox="0 0 16 16" x="512" y="512" xmlns="http://www.w3.org/2000/svg"><title>envelope-rotate-grey</title><path fill="#c8c7cc" d="M15.376 13.204h-2.93l2.744-2.628a.621.621 0 0 0 0-.907L6.96 1.788a.689.689 0 0 0-.947 0L.81 6.77a.621.621 0 0 0 0 .907l5.77 5.526H.625c-.345 0-.625.267-.625.598s.28.598.624.598h14.752c.344 0 .624-.268.624-.598s-.28-.598-.624-.598zm-2.708-4.136l-4.189-.854-.891-4.011 5.08 4.864zM2.231 7.224l3.814-3.653 1.186 5.334c.03.13.095.242.185.328.092.088.21.15.342.178l5.569 1.136-2.775 2.658H8.474l-6.243-5.98z"/></svg><svg width="16" height="16" viewBox="0 0 16 16" x="528" y="528" xmlns="http://www.w3.org/2000/svg"><title>exclamation-circle-red</title><path fill="#e70000" d="M8 0a8 8 0 0 0 0 16A8 8 0 0 0 8 0z"/><path fill="#fff" stroke="#fff" stroke-width=".229" d="M8 3.102c.499 0 .903.404.903.903L8.672 9.39v.002c0 .37-.3.67-.67.67H8c-.303 0-.646-.16-.672-.672l-.231-5.385c0-.499.404-.903.903-.903zm.815 9.689a1.154 1.154 0 1 1-1.63-1.634 1.154 1.154 0 0 1 1.629 1.634z"/></svg><svg width="16" height="16" viewBox="0 0 16 16" x="544" y="544" xmlns="http://www.w3.org/2000/svg"><title>filter-black</title><path fill="#4a4a4a" d="M13.152 0a2.395 2.395 0 0 0-2.362 1.985H.879l-.027-.001a.403.403 0 0 0 0 .806l.028-.001H.879h9.907a2.403 2.403 0 0 0 2.362 1.986h.007a2.391 2.391 0 0 0 2.391-2.384 2.397 2.397 0 0 0-2.394-2.39zm0 3.967c-.877 0-1.594-.711-1.594-1.583S12.274.8 13.152.8s1.593.711 1.593 1.584c0 .871-.716 1.583-1.593 1.583zm1.997 3.608H5.238a2.404 2.404 0 0 0-2.362-1.984h-.007A2.391 2.391 0 0 0 .478 7.975a2.394 2.394 0 0 0 2.394 2.383h.005a2.396 2.396 0 0 0 2.362-1.985h9.91c.222 0 .402-.18.403-.402a.401.401 0 0 0-.4-.396h-.001zM2.877 9.561a1.592 1.592 0 0 1-1.594-1.584c0-.871.716-1.583 1.594-1.583s1.593.711 1.593 1.583a1.59 1.59 0 0 1-1.593 1.584zm10.275 1.666a2.395 2.395 0 0 0-2.362 1.985H.879l-.027-.001a.403.403 0 0 0 0 .806l.028-.001H.879h9.907a2.402 2.402 0 0 0 2.363 1.985h.007a2.39 2.39 0 0 0 2.391-2.384 2.397 2.397 0 0 0-2.395-2.39zm0 3.967c-.877 0-1.594-.712-1.594-1.584s.716-1.584 1.594-1.584 1.593.712 1.593 1.584c0 .871-.716 1.584-1.593 1.584z"/></svg><svg width="16" height="16" viewBox="0 0 16 16" x="560" y="560" xmlns="http://www.w3.org/2000/svg"><title>filter-checkboxes</title><path fill="var(--color1,#4a4a4a)" d="M2.753 2.056a.386.386 0 0 0-.554-.004.402.402 0 0 0-.003.567l.936.964a.385.385 0 0 0 .554 0l2.848-2.9a.406.406 0 0 0 .003-.567.382.382 0 0 0-.554 0l-.862.876A2.42 2.42 0 0 0 3.357.228C2.001.229.899 1.357.899 2.744s1.102 2.514 2.457 2.514c1.092 0 2.037-.717 2.354-1.787a.403.403 0 0 0-.26-.5l-.003-.001a.395.395 0 0 0-.489.266l-.001.003a1.693 1.693 0 0 1-1.602 1.217c-.923 0-1.672-.767-1.672-1.712s.749-1.711 1.671-1.711a1.66 1.66 0 0 1 1.208.53l.001.001-1.149 1.171-.66-.678zm.603 3.538C2 5.594.898 6.72.898 8.109c0 1.387 1.102 2.515 2.457 2.515s2.457-1.128 2.457-2.516c0-1.387-1.102-2.514-2.457-2.514zm0 4.226c-.923 0-1.672-.767-1.672-1.711s.749-1.712 1.671-1.712c.924 0 1.673.767 1.673 1.712S4.279 9.82 3.356 9.82zm2.456 3.656c0-1.387-1.102-2.516-2.457-2.516S.898 12.089.898 13.476 2 15.991 3.355 15.991c1.355 0 2.457-1.128 2.457-2.516zM3.356 15.19c-.923 0-1.672-.767-1.672-1.711s.749-1.712 1.671-1.712c.924 0 1.673.767 1.673 1.712s-.749 1.711-1.672 1.711zm11.342-7.485H7.065a.398.398 0 0 0-.394.398v.006c0 .222.176.403.394.403h7.633a.398.398 0 0 0 .394-.398v-.01a.398.398 0 0 0-.394-.398zm0-5.361H7.065a.398.398 0 0 0-.394.398v.006a.4.4 0 0 0 .394.404h7.633a.398.398 0 0 0 .394-.398v-.011a.398.398 0 0 0-.394-.398zm0 10.732H7.065a.398.398 0 0 0-.394.398v.006c0 .222.176.403.394.403h7.633a.398.398 0 0 0 .394-.398v-.012a.396.396 0 0 0-.394-.396z"/></svg><svg width="16" height="16" viewBox="0 0 16 16" x="576" y="576" xmlns="http://www.w3.org/2000/svg"><title>flag-green</title><path fill="#63b31f" d="M4.48 15.966c-.467.14-.934-.17-1.07-.648L.034 2.275c-.137-.479.138-.986.604-1.098.466-.141.932.14 1.07.648l3.374 13.07a.856.856 0 0 1-.598 1.068l-.006.001zM14.93 5.515c-.658 1.211-2.77 2.845-5.376 2.14-2.414-.647-4.17.339-4.883 2.592 0 0-2.002-7.408-2.167-8.028.22-.394 2.332-3.747 5.953-1.38 3.62 2.338 5.98 4.028 7.543 1.21-.027-.027-.411 2.254-1.07 3.466z"/></svg><svg width="16" height="16" viewBox="0 0 16 16" x="592" y="592" xmlns="http://www.w3.org/2000/svg"><title>flag-red</title><path fill="#c83c32" d="M4.48 15.966c-.467.14-.934-.17-1.07-.648L.034 2.275c-.137-.479.138-.986.604-1.098.466-.141.932.14 1.07.648l3.374 13.07a.856.856 0 0 1-.598 1.068l-.006.001zM14.93 5.515c-.658 1.211-2.77 2.845-5.376 2.14-2.414-.647-4.17.339-4.883 2.592 0 0-2.002-7.408-2.167-8.028.22-.394 2.332-3.747 5.953-1.38 3.62 2.338 5.98 4.028 7.543 1.21-.027-.027-.411 2.254-1.07 3.466z"/></svg><svg width="16" height="16" viewBox="0 0 16 16" x="608" y="608" xmlns="http://www.w3.org/2000/svg"><title>gallery-black</title><path d="M3.429 1.714h9.143c.947 0 1.715.768 1.715 1.715v9.144c0 .947-.767 1.714-1.714 1.714H3.428a1.714 1.714 0 0 1-1.714-1.714V3.428c0-.947.767-1.714 1.714-1.714h.001zm9.142 1.143H3.428a.57.57 0 0 0-.571.571v8.476L5.33 9.019a.57.57 0 0 1 .821-.049l2.993 2.743-.857-2 2.48-2.728a.57.57 0 0 1 .799-.045l-.001-.001 1.578 1.381V3.427a.571.571 0 0 0-.571-.571zm-7.142 4a1.43 1.43 0 0 1 0-2.858 1.43 1.43 0 0 1 0 2.858z"/></svg><svg width="16" height="16" viewBox="0 0 16 16" x="624" y="624" xmlns="http://www.w3.org/2000/svg"><title>gallery-grey</title><path fill="#cfcfcf" d="M3.429 1.714h9.143c.947 0 1.715.768 1.715 1.715v9.144c0 .947-.767 1.714-1.714 1.714H3.428a1.714 1.714 0 0 1-1.714-1.714V3.428c0-.947.767-1.714 1.714-1.714h.001zm9.142 1.143H3.428a.57.57 0 0 0-.571.571v8.476L5.33 9.019a.57.57 0 0 1 .821-.049l2.993 2.743-.857-2 2.48-2.728a.57.57 0 0 1 .799-.045l-.001-.001 1.578 1.381V3.427a.571.571 0 0 0-.571-.571zm-7.142 4a1.43 1.43 0 0 1 0-2.858 1.43 1.43 0 0 1 0 2.858z"/></svg><svg width="16" height="16" viewBox="0 0 16 16" x="640" y="640" xmlns="http://www.w3.org/2000/svg"><title>heart-circle-red</title><path fill="#ff3b30" d="M8 16A8 8 0 0 0 8 0a8 8 0 0 0 0 16z"/><path fill="#fff" d="M12.407 6.148c-.228-.57-.685-1.049-1.318-1.345a2.42 2.42 0 0 0-1.727-.13l.017-.004c-.547.16-1.04.597-1.38 1.102-.338-.505-.83-.942-1.378-1.102a2.39 2.39 0 0 0-1.724.14l.014-.006c-.632.296-1.09.775-1.318 1.345s-.229 1.23.059 1.888C4.266 9.442 7.98 12.744 8 12.8c.02-.056 3.734-3.358 4.348-4.764.288-.658.287-1.319.059-1.888z"/></svg><svg width="16" height="16" viewBox="0 0 16 16" x="656" y="656" xmlns="http://www.w3.org/2000/svg"><title>idea-color</title><path fill="#4a4a4a" d="M9.827 10.8c.109-.354.296-.77.594-1.376.601-1.223.813-1.825.813-2.59-.002-1.738-1.474-3.155-3.3-3.158-1.826.002-3.298 1.419-3.3 3.157 0 .766.212 1.368.813 2.591.297.606.484 1.022.593 1.376h3.787zM9.7 11.867H6.167v1.076H9.7v-1.076zM7.933 2.61c2.407.003 4.364 1.887 4.367 4.224 0 .982-.251 1.695-.922 3.06-.465.95-.611 1.338-.611 1.737v1.476c0 .244-.1.476-.276.646a.926.926 0 0 1-.641.257H6.017a.926.926 0 0 1-.641-.257.895.895 0 0 1-.276-.645v-1.476c0-.399-.146-.788-.611-1.737-.671-1.366-.922-2.078-.922-3.061.003-2.336 1.96-4.22 4.366-4.223z"/><path fill="#fc0" d="M6.467 14.933H9.4a.533.533 0 1 1 0 1.066H6.467a.533.533 0 1 1 0-1.066zm.8-13.333V.533a.533.533 0 1 1 1.066 0V1.6a.533.533 0 1 1-1.066 0zM2.6 7.2H1.533a.533.533 0 1 1 0-1.066H2.6a.533.533 0 1 1 0 1.066zm11.867 0H13.4a.533.533 0 1 1 0-1.066h1.067a.533.533 0 1 1 0 1.066zM3.832 3.292l-.754-.754a.534.534 0 0 1 .754-.754l.754.754a.534.534 0 0 1-.754.754zm9.051-.848l-.754.754a.534.534 0 0 1-.754-.754l.754-.754a.534.534 0 0 1 .754.754z"/></svg><svg width="16" height="16" viewBox="0 0 16 16" x="672" y="672" xmlns="http://www.w3.org/2000/svg"><title>idea-grey</title><path fill="#c8c7cc" d="M9.827 10.8c.109-.354.296-.77.594-1.376.601-1.223.813-1.825.813-2.59-.002-1.738-1.474-3.155-3.3-3.158-1.826.002-3.298 1.419-3.3 3.157 0 .766.212 1.368.813 2.591.297.606.484 1.022.593 1.376h3.787zM9.7 11.867H6.167v1.076H9.7v-1.076zM7.933 2.61c2.407.003 4.364 1.887 4.367 4.224 0 .982-.251 1.695-.922 3.06-.465.95-.611 1.338-.611 1.737v1.476c0 .244-.1.476-.276.646a.926.926 0 0 1-.641.257H6.017a.926.926 0 0 1-.641-.257.895.895 0 0 1-.276-.645v-1.476c0-.399-.146-.788-.611-1.737-.671-1.366-.922-2.078-.922-3.061.003-2.336 1.96-4.22 4.366-4.223zM6.467 14.933H9.4a.533.533 0 1 1 0 1.066H6.467a.533.533 0 1 1 0-1.066zm.8-13.333V.533a.533.533 0 1 1 1.066 0V1.6a.533.533 0 1 1-1.066 0zM2.6 7.2H1.533a.533.533 0 1 1 0-1.066H2.6a.533.533 0 1 1 0 1.066zm11.867 0H13.4a.533.533 0 1 1 0-1.066h1.067a.533.533 0 1 1 0 1.066zM3.832 3.292l-.754-.754a.534.534 0 0 1 .754-.754l.754.754a.534.534 0 0 1-.754.754zm9.051-.848l-.754.754a.534.534 0 0 1-.754-.754l.754-.754a.534.534 0 0 1 .754.754z"/></svg><svg width="16" height="16" viewBox="0 0 16 16" x="688" y="688" xmlns="http://www.w3.org/2000/svg"><title>info-circle-grey</title><path fill="#4a4a4a" stroke="#4a4a4a" stroke-width=".24" d="M8 .5C3.865.5.5 3.865.5 8s3.365 7.5 7.5 7.5 7.5-3.365 7.5-7.5S12.135.5 8 .5zm0 13.636A6.143 6.143 0 0 1 1.864 8 6.143 6.143 0 0 1 8 1.864 6.143 6.143 0 0 1 14.136 8 6.143 6.143 0 0 1 8 14.136z"/><path fill="#4a4a4a" d="M8 3.682A.909.909 0 0 0 8 5.5a.909.909 0 0 0 0-1.818zm0 3.182a.682.682 0 0 0-.682.682v4.091a.682.682 0 0 0 1.364 0V7.546A.682.682 0 0 0 8 6.864z"/></svg><svg width="16" height="16" viewBox="0 0 16 16" x="704" y="704" xmlns="http://www.w3.org/2000/svg"><title>info-circle-grey</title><path fill="#8F8F8F" stroke="#c8c7cc" stroke-width=".24" d="M8 .5C3.865.5.5 3.865.5 8s3.365 7.5 7.5 7.5 7.5-3.365 7.5-7.5S12.135.5 8 .5zm0 13.636A6.143 6.143 0 0 1 1.864 8 6.143 6.143 0 0 1 8 1.864 6.143 6.143 0 0 1 14.136 8 6.143 6.143 0 0 1 8 14.136z"/><path fill="#8F8F8F" d="M8 3.682A.909.909 0 0 0 8 5.5a.909.909 0 0 0 0-1.818zm0 3.182a.682.682 0 0 0-.682.682v4.091a.682.682 0 0 0 1.364 0V7.546A.682.682 0 0 0 8 6.864z"/></svg><svg width="16" height="16" viewBox="0 0 16 16" x="720" y="720" xmlns="http://www.w3.org/2000/svg"><title>info-cursive-circle-grey</title><path fill="#4a4a4a" d="M8.008 0A8 8 0 0 1 8 16h-.008A8 8 0 0 1 8 0h.008zm-.611 6.08H5.97c-.11.001-.216.016-.316.045l.008-.002a.297.297 0 0 0-.233.246v.002a.286.286 0 0 0 .16.331c.153.071.319.116.488.131.444.021.624.216.556.673-.124.856-.293 1.707-.436 2.56-.099.576-.18 1.153-.275 1.729-.125.776.597 1.504 1.172 1.6.34.048.683.069 1.027.067a2.676 2.676 0 0 0 1.944-.843.737.737 0 0 0 .198-.303l.002-.005a.381.381 0 0 0-.067-.296l.001.001a.285.285 0 0 0-.254-.026l.002-.001c-.131.043-.248.133-.376.188a2.234 2.234 0 0 1-.451.157l-.016.003a.457.457 0 0 1-.562-.405v-.002a1.48 1.48 0 0 1-.014-.458l-.001.007c.053-.372.131-.74.199-1.107.181-1.004.367-2.008.555-3.013.051-.275.137-.547.08-.835a.48.48 0 0 0-.523-.445h.002-1.441zm.87-3.56a1.453 1.453 0 1 0-.17 2.896l.046-.001h-.002a1.454 1.454 0 0 0 .134-2.892l-.007-.001v-.003z"/></svg><svg width="16" height="16" viewBox="0 0 16 16" x="736" y="736" xmlns="http://www.w3.org/2000/svg"><title>letter-color</title><path fill="#4a4a4a" d="M3.68 15.26a.841.841 0 0 1-.391-.097.81.81 0 0 1-.438-.681v-.002l-.079-1.694H1.404A1.393 1.393 0 0 1 0 11.405V2.121C0 1.36.63.739 1.404.739h13.192c.775 0 1.404.619 1.404 1.382v9.284c0 .761-.63 1.381-1.404 1.381H9.933a.493.493 0 0 1-.493-.489c0-.27.223-.49.498-.49h4.659c.226 0 .41-.181.41-.402V2.121a.406.406 0 0 0-.407-.402H1.403a.408.408 0 0 0-.407.402v9.284c0 .222.184.402.41.402H3.25c.266 0 .485.206.497.467l.087 1.887 3.827-2.283a.5.5 0 0 1 .257-.071h2.896c.275 0 .497.219.497.49a.493.493 0 0 1-.493.489h-2.76l-3.947 2.355a.835.835 0 0 1-.43.12z"/><path fill="#fc0" d="M14.971 2.773l-6.49 4.869a.804.804 0 0 1-.962 0L1.031 2.773c-.603-.453-.278-1.401.481-1.401h12.98c.759 0 1.084.947.481 1.401z"/><path fill="#4a4a4a" d="M8 8.291c-.295 0-.567-.098-.786-.263l.003.002-6.49-4.87a1.241 1.241 0 0 1-.438-1.424l-.003.009A1.274 1.274 0 0 1 1.49.882h.019-.001 12.98c.563 0 1.042.339 1.222.863s.007 1.081-.44 1.416L8.78 8.03a1.297 1.297 0 0 1-.782.259zm-6.49-6.43h-.011a.283.283 0 0 0-.269.196l-.001.002a.277.277 0 0 0 .1.324l.001.001 6.49 4.868a.296.296 0 0 0 .359-.001l-.001.001 6.491-4.868a.275.275 0 0 0 .1-.326l.001.002a.282.282 0 0 0-.269-.197h-.011.001-12.98z"/></svg><svg width="16" height="16" viewBox="0 0 16 16" x="752" y="752" xmlns="http://www.w3.org/2000/svg"><title>lock-grey</title><path fill="#c8c7cc" d="M3.111 16h9.778c.733 0 1.333-.584 1.333-1.298V7.351c0-.713-.6-1.298-1.333-1.298h-.222V4.692C12.667 2.161 10.578.108 8 .108S3.333 2.161 3.333 4.691v1.363h-.222c-.733 0-1.333.584-1.333 1.298v7.351c0 .713.6 1.297 1.333 1.297zM4.667 4.692c0-1.816 1.489-3.286 3.333-3.286s3.333 1.47 3.333 3.286v1.363H4.666V4.692zM3.111 7.351h9.778v7.351H3.111V7.351z"/></svg><svg width="16" height="16" viewBox="0 0 16 16" x="768" y="768" xmlns="http://www.w3.org/2000/svg"><title>locker-color</title><path fill="var(--color1,#fc0)" d="M2.915 7.213h10.251v8.054H2.915V7.213z"/><path fill="var(--color2,#4a4a4a)" d="M3.11 16h9.78c.734 0 1.334-.588 1.334-1.306V7.293c0-.718-.6-1.306-1.334-1.306h-.222V4.616C12.668 2.069 10.579.001 8 .001S3.332 2.069 3.332 4.616v1.371H3.11c-.734 0-1.334.588-1.334 1.306v7.401c0 .718.6 1.306 1.334 1.306zM4.666 4.615c0-1.829 1.489-3.309 3.334-3.309s3.334 1.48 3.334 3.309v1.371H4.666V4.615zM3.11 7.293h9.78v7.401H3.11V7.293z"/><path fill="var(--color2,#4a4a4a)" d="M7.308 12.837c0 .379.303.685.676.685s.676-.307.676-.685v-2.742c0-.379-.303-.685-.676-.685s-.676.307-.676.685v2.742z"/><path fill="var(--color2,#4a4a4a)" d="M9.505 10.142a1.464 1.464 0 1 1-2.928 0 1.464 1.464 0 0 1 2.928 0z"/></svg><svg width="16" height="16" viewBox="0 0 16 16" x="784" y="784" xmlns="http://www.w3.org/2000/svg"><title>locker-grey</title><path fill="#c8c7cc" d="M3.11 16h9.78c.734 0 1.334-.588 1.334-1.306V7.293c0-.718-.6-1.306-1.334-1.306h-.222V4.616C12.668 2.069 10.579.001 8 .001S3.332 2.069 3.332 4.616v1.371H3.11c-.734 0-1.334.588-1.334 1.306v7.401c0 .718.6 1.306 1.334 1.306zM4.666 4.615c0-1.829 1.489-3.309 3.334-3.309s3.334 1.48 3.334 3.309v1.371H4.666V4.615zM3.11 7.293h9.78v7.401H3.11V7.293z"/><path fill="#c8c7cc" d="M7.308 12.837c0 .379.303.685.676.685s.676-.307.676-.685v-2.742c0-.379-.303-.685-.676-.685s-.676.307-.676.685v2.742z"/><path fill="#c8c7cc" d="M9.505 10.142a1.464 1.464 0 1 1-2.928 0 1.464 1.464 0 0 1 2.928 0z"/></svg><svg width="16" height="16" viewBox="0 0 16 16" x="800" y="800" xmlns="http://www.w3.org/2000/svg"><title>map-marker-grey</title><path fill="#4a4a4a" d="M10.655 5.778c0-.777-.263-1.437-.79-1.982-.527-.552-1.166-.827-1.917-.827-.744 0-1.383.276-1.916.827-.527.545-.79 1.205-.79 1.982 0 .782.263 1.446.79 1.99.533.546 1.172.819 1.916.819.751 0 1.39-.273 1.917-.818.527-.551.79-1.215.79-1.991zM8 0c1.524 0 2.822.557 3.893 1.67C12.964 2.786 13.5 4.128 13.5 5.699c0 1.268-.37 2.415-1.109 3.44l-3.463 6.204a1.708 1.708 0 0 1-.133.237l.004-.006-.034.063h-.017A.931.931 0 0 1 8.01 16H8h.001-.02a.914.914 0 0 1-.777-.432l-.002-.004-.009.01v-.018l-3.6-6.445c-.728-1.007-1.092-2.145-1.092-3.413 0-1.57.536-2.913 1.607-4.027S6.478 0 8.001 0z"/></svg><svg width="16" height="16" viewBox="0 0 16 16" x="816" y="816" xmlns="http://www.w3.org/2000/svg"><title>map-marker-grey</title><path fill="#c8c7cc" d="M10.655 5.778c0-.777-.263-1.437-.79-1.982-.527-.552-1.166-.827-1.917-.827-.744 0-1.383.276-1.916.827-.527.545-.79 1.205-.79 1.982 0 .782.263 1.446.79 1.99.533.546 1.172.819 1.916.819.751 0 1.39-.273 1.917-.818.527-.551.79-1.215.79-1.991zM8 0c1.524 0 2.822.557 3.893 1.67C12.964 2.786 13.5 4.128 13.5 5.699c0 1.268-.37 2.415-1.109 3.44l-3.463 6.204a1.708 1.708 0 0 1-.133.237l.004-.006-.034.063h-.017A.931.931 0 0 1 8.01 16H8h.001-.02a.914.914 0 0 1-.777-.432l-.002-.004-.009.01v-.018l-3.6-6.445c-.728-1.007-1.092-2.145-1.092-3.413 0-1.57.536-2.913 1.607-4.027S6.478 0 8.001 0z"/></svg><svg width="16" height="16" viewBox="0 0 16 16" x="832" y="832" xmlns="http://www.w3.org/2000/svg"><title>map-marker-o-grey</title><path fill="#c8c7cc" stroke="#c8c7cc" stroke-width=".24" d="M8 0C4.702 0 2.018 2.6 2.018 5.795c0 3.965 5.353 9.786 5.581 10.032a.55.55 0 0 0 .802.001c.228-.246 5.58-6.067 5.58-10.032C13.982 2.6 11.299.001 8 .001zm0 14.678c-1.802-2.073-4.904-6.163-4.904-8.884 0-2.62 2.2-4.752 4.904-4.752s4.904 2.132 4.904 4.752c0 2.721-3.102 6.81-4.904 8.884z"/><path fill="#c8c7cc" stroke="#c8c7cc" stroke-width=".24" d="M8 2.88c-1.66 0-3.01 1.307-3.01 2.915S6.34 8.71 8 8.71s3.01-1.308 3.01-2.915c0-1.608-1.35-2.916-3.01-2.916zm0 4.786c-1.065 0-1.932-.84-1.932-1.871 0-1.033.867-1.872 1.932-1.872s1.932.84 1.932 1.872S9.065 7.666 8 7.666z"/></svg><svg width="16" height="16" viewBox="0 0 16 16" x="848" y="848" xmlns="http://www.w3.org/2000/svg"><title>message-color</title><path fill="#4a4a4a" d="M14.399 11.523c.883 0 1.601-.73 1.601-1.629V2.833c0-.9-.717-1.629-1.601-1.629H1.602c-.883 0-1.601.73-1.601 1.629v7.061c0 .9.717 1.629 1.601 1.629l7.104-.015 3.345 2.805c.577.484 1.283.138 1.283-.62v-2.176l1.065.005z"/><path fill="#fc0" d="M12.265 10.436l.002.545-.009 2.099-3.152-2.644H1.602a.54.54 0 0 1-.535-.543V2.832a.54.54 0 0 1 .535-.543h12.797a.54.54 0 0 1 .535.543v7.061a.54.54 0 0 1-.535.543h-2.134z"/><path fill="#4a4a4a" d="M11.853 5.82c.295 0 .533-.243.533-.543s-.239-.543-.533-.543H4.451c-.295 0-.533.243-.533.543s.239.543.533.543h7.402zM8.452 8.289c.295 0 .533-.243.533-.543s-.239-.543-.533-.543H4.368c-.295 0-.533.243-.533.543s.239.543.533.543h4.084z"/></svg><svg width="16" height="16" viewBox="0 0 16 16" x="864" y="864" xmlns="http://www.w3.org/2000/svg"><title>message-grey</title><path fill="#c8c7cc" d="M14.399 11.523c.883 0 1.601-.73 1.601-1.629V2.833c0-.9-.717-1.629-1.601-1.629H1.602c-.883 0-1.601.73-1.601 1.629v7.061c0 .9.717 1.629 1.601 1.629l7.104-.015 3.345 2.805c.577.484 1.283.138 1.283-.62v-2.176l1.065.005z"/><path fill="#fff" d="M12.265 10.436l.002.545-.009 2.099-3.152-2.644H1.602a.54.54 0 0 1-.535-.543V2.832a.54.54 0 0 1 .535-.543h12.797a.54.54 0 0 1 .535.543v7.061a.54.54 0 0 1-.535.543h-2.134z"/><path fill="#c8c7cc" d="M11.853 5.82c.295 0 .533-.243.533-.543s-.239-.543-.533-.543H4.451c-.295 0-.533.243-.533.543s.239.543.533.543h7.402zM8.452 8.289c.295 0 .533-.243.533-.543s-.239-.543-.533-.543H4.368c-.295 0-.533.243-.533.543s.239.543.533.543h4.084z"/></svg><svg width="16" height="16" viewBox="0 0 16 16" x="880" y="880" xmlns="http://www.w3.org/2000/svg"><title>message-question-color</title><path fill="#4a4a4a" d="M14.399 11.523c.883 0 1.601-.73 1.601-1.629V2.833c0-.9-.717-1.629-1.601-1.629H1.602c-.883 0-1.601.73-1.601 1.629v7.061c0 .9.717 1.629 1.601 1.629l7.104-.015 3.345 2.805c.577.484 1.283.138 1.283-.62v-2.176l1.065.005z"/><path fill="#fc0" d="M12.265 10.436l.002.545-.009 2.099-3.152-2.644H1.602a.54.54 0 0 1-.535-.543V2.832a.54.54 0 0 1 .535-.543h12.797a.54.54 0 0 1 .535.543v7.061a.54.54 0 0 1-.535.543h-2.134z"/><path fill="#4a4a4a" d="M4.606 9.603c-.165 0-.307-.053-.427-.159S4 9.189 4 8.997c0-.162.057-.302.171-.419s.255-.175.423-.175c.167 0 .31.058.429.173s.177.256.177.421c0 .189-.059.337-.177.445s-.257.161-.417.161zM6 4.839c0-.248.081-.499.244-.754s.4-.465.712-.632a2.28 2.28 0 0 1 1.092-.251c.387 0 .728.07 1.024.209s.525.329.686.57c.161.24.242.501.242.783 0 .222-.046.416-.138.583s-.201.311-.328.433c-.127.121-.354.326-.682.613-.091.081-.163.152-.218.213s-.095.117-.122.168c-.027.051-.047.102-.062.153s-.037.14-.066.268c-.051.271-.209.407-.476.407-.139 0-.255-.044-.35-.133s-.142-.221-.142-.395c0-.219.035-.409.104-.57s.161-.301.276-.423a6.34 6.34 0 0 1 .464-.433c.171-.146.294-.256.37-.331s.14-.157.192-.249A.592.592 0 0 0 8.9 4.77c0-.209-.079-.385-.238-.528s-.363-.215-.614-.215c-.293 0-.509.072-.648.217s-.256.358-.352.64c-.091.295-.263.442-.516.442-.149 0-.275-.052-.378-.155S6 4.956 6 4.836zm1.806 4.764c-.162 0-.304-.053-.425-.159S7.2 9.19 7.2 9.001c0-.169.058-.31.175-.425s.26-.173.431-.173c.167 0 .308.058.423.173s.171.257.171.425c0 .187-.06.334-.179.441s-.258.161-.415.161zm3.2 0c-.165 0-.307-.053-.427-.159s-.179-.255-.179-.447c0-.162.057-.302.171-.419s.255-.175.423-.175c.167 0 .31.058.429.173s.177.256.177.421c0 .189-.059.337-.177.445s-.257.161-.417.161z"/></svg><svg width="16" height="16" viewBox="0 0 16 16" x="896" y="896" xmlns="http://www.w3.org/2000/svg"><title>contact-question1x1</title><path fill="#c8c7cc" d="M14.399 11.523c.883 0 1.601-.73 1.601-1.629V2.833c0-.9-.717-1.629-1.601-1.629H1.602c-.883 0-1.601.73-1.601 1.629v7.061c0 .9.717 1.629 1.601 1.629l7.104-.015 3.345 2.805c.577.484 1.283.138 1.283-.62v-2.176l1.065.005z"/><path fill="#fff" d="M12.265 10.436l.002.545-.009 2.099-3.152-2.644H1.602a.54.54 0 0 1-.535-.543V2.832a.54.54 0 0 1 .535-.543h12.797a.54.54 0 0 1 .535.543v7.061a.54.54 0 0 1-.535.543h-2.134z"/><path fill="#c8c7cc" d="M4.606 9.603c-.165 0-.307-.053-.427-.159S4 9.189 4 8.997c0-.162.057-.302.171-.419s.255-.175.423-.175c.167 0 .31.058.429.173s.177.256.177.421c0 .189-.059.337-.177.445s-.257.161-.417.161zM6 4.839c0-.248.081-.499.244-.754s.4-.465.712-.632a2.28 2.28 0 0 1 1.092-.251c.387 0 .728.07 1.024.209s.525.329.686.57c.161.24.242.501.242.783 0 .222-.046.416-.138.583s-.201.311-.328.433c-.127.121-.354.326-.682.613-.091.081-.163.152-.218.213s-.095.117-.122.168c-.027.051-.047.102-.062.153s-.037.14-.066.268c-.051.271-.209.407-.476.407-.139 0-.255-.044-.35-.133s-.142-.221-.142-.395c0-.219.035-.409.104-.57s.161-.301.276-.423a6.34 6.34 0 0 1 .464-.433c.171-.146.294-.256.37-.331s.14-.157.192-.249A.592.592 0 0 0 8.9 4.77c0-.209-.079-.385-.238-.528s-.363-.215-.614-.215c-.293 0-.509.072-.648.217s-.256.358-.352.64c-.091.295-.263.442-.516.442-.149 0-.275-.052-.378-.155S6 4.956 6 4.836zm1.806 4.764c-.162 0-.304-.053-.425-.159S7.2 9.19 7.2 9.001c0-.169.058-.31.175-.425s.26-.173.431-.173c.167 0 .308.058.423.173s.171.257.171.425c0 .187-.06.334-.179.441s-.258.161-.415.161zm3.2 0c-.165 0-.307-.053-.427-.159s-.179-.255-.179-.447c0-.162.057-.302.171-.419s.255-.175.423-.175c.167 0 .31.058.429.173s.177.256.177.421c0 .189-.059.337-.177.445s-.257.161-.417.161z"/></svg><svg width="16" height="16" viewBox="0 0 16 16" x="912" y="912" xmlns="http://www.w3.org/2000/svg"><title>message-smile-sad-color</title><path fill="#fc0" stroke="#4a4a4a" stroke-width="1.067" d="M13.289 3.423C11.877 2.194 10 1.516 8 1.516s-3.877.678-5.289 1.907C1.304 4.649.534 6.274.534 8c0 1.398.527 2.771 1.496 3.891l.224.259-.143.312a3.166 3.166 0 0 1-1.153 1.359c-.029.019-.04.044-.033.074.006.028.024.044.059.049.223.032.451.047.689.047.724 0 1.377-.153 1.952-.453l.249-.13.248.132A8.277 8.277 0 0 0 8 14.485c2.001 0 3.877-.678 5.289-1.907 1.407-1.226 2.177-2.851 2.177-4.577s-.77-3.351-2.177-4.577zm0 0z"/><path fill="#4a4a4a" d="M5.221 11.526c.075.04.158.058.237.058.17 0 .331-.079.422-.224.43-.693 1.338-1.14 2.32-1.14.986 0 1.874.429 2.312 1.122.134.213.43.285.659.162.233-.123.312-.393.178-.603-.612-.967-1.819-1.566-3.149-1.566-1.346 0-2.557.61-3.161 1.588-.134.213-.051.484.181.603zM4.11 8.175a.465.465 0 0 0 .64.155l2.146-1.288a.461.461 0 0 0-.049-.818l-2.188-.97c-.236-.106-.511 0-.617.235s0 .508.236.614l1.372.61-1.38.826a.458.458 0 0 0-.16.636zm7.849-2.687c-.107-.235-.381-.337-.617-.235l-2.188.97a.457.457 0 0 0-.274.394.456.456 0 0 0 .225.424l2.146 1.289a.47.47 0 0 0 .64-.156.463.463 0 0 0-.16-.637l-1.38-.826 1.372-.61c.236-.106.343-.379.236-.614z"/></svg><svg width="16" height="16" viewBox="0 0 16 16" x="928" y="928" xmlns="http://www.w3.org/2000/svg"><title>message-smile-sad-grey</title><path fill="#fff" stroke="#c8c7cc" stroke-width="1.067" d="M13.289 3.423C11.877 2.194 10 1.516 8 1.516s-3.877.678-5.289 1.907C1.304 4.649.534 6.274.534 8c0 1.398.527 2.771 1.496 3.891l.224.259-.143.312a3.166 3.166 0 0 1-1.153 1.359c-.029.019-.04.044-.033.074.006.028.024.044.059.049.223.032.451.047.689.047.724 0 1.377-.153 1.952-.453l.249-.13.248.132A8.277 8.277 0 0 0 8 14.485c2.001 0 3.877-.678 5.289-1.907 1.407-1.226 2.177-2.851 2.177-4.577s-.77-3.351-2.177-4.577zm0 0z"/><path fill="#4a4a4a" d="M5.221 11.526c.075.04.158.058.237.058.17 0 .331-.079.422-.224.43-.693 1.338-1.14 2.32-1.14.986 0 1.874.429 2.312 1.122.134.213.43.285.659.162.233-.123.312-.393.178-.603-.612-.967-1.819-1.566-3.149-1.566-1.346 0-2.557.61-3.161 1.588-.134.213-.051.484.181.603zM4.11 8.175a.465.465 0 0 0 .64.155l2.146-1.288a.461.461 0 0 0-.049-.818l-2.188-.97c-.236-.106-.511 0-.617.235s0 .508.236.614l1.372.61-1.38.826a.458.458 0 0 0-.16.636zm7.849-2.687c-.107-.235-.381-.337-.617-.235l-2.188.97a.457.457 0 0 0-.274.394.456.456 0 0 0 .225.424l2.146 1.289a.47.47 0 0 0 .64-.156.463.463 0 0 0-.16-.637l-1.38-.826 1.372-.61c.236-.106.343-.379.236-.614z"/></svg><svg width="16" height="16" viewBox="0 0 16 16" x="944" y="944" xmlns="http://www.w3.org/2000/svg"><title>minus-black</title><path fill="#4a4a4a" d="M0 6h16v4H0z"/></svg><svg width="16" height="16" viewBox="0 0 16 16" x="960" y="960" xmlns="http://www.w3.org/2000/svg"><title>panorama</title><path d="M12.903 3.01c-3.236.651-6.57.651-9.806 0L0 2.391v11.22l3.097-.62a24.862 24.862 0 0 1 9.806 0l3.097.62V2.391l-3.097.619zM15 12.39l-1.9-.38c-.7-.139-1.4-.243-2.1-.325V9.5h-1v2.088c-.666-.05-1.333-.085-2-.085s-1.333.034-2 .085V9.5H5v2.185c-.7.082-1.4.185-2.1.325l-1.9.38V3.61l1.9.38c.7.139 1.4.243 2.1.325V6.5h1V4.412a25.68 25.68 0 0 0 4 0V6.5h1V4.315c.7-.082 1.4-.186 2.1-.325l1.9-.38v8.78z"/><path d="M5 7.5h1v1H5v-1zm5 0h1v1h-1v-1z"/></svg><svg width="16" height="16" viewBox="0 0 16 16" x="976" y="976" xmlns="http://www.w3.org/2000/svg"><title>panorama-(1)</title><path fill="#cfcfcf" d="M12.903 3.01c-3.236.651-6.57.651-9.806 0L0 2.391v11.22l3.097-.62a24.862 24.862 0 0 1 9.806 0l3.097.62V2.391l-3.097.619zM15 12.39l-1.9-.38c-.7-.139-1.4-.243-2.1-.325V9.5h-1v2.088c-.666-.05-1.333-.085-2-.085s-1.333.034-2 .085V9.5H5v2.185c-.7.082-1.4.185-2.1.325l-1.9.38V3.61l1.9.38c.7.139 1.4.243 2.1.325V6.5h1V4.412a25.68 25.68 0 0 0 4 0V6.5h1V4.315c.7-.082 1.4-.186 2.1-.325l1.9-.38v8.78z"/><path fill="#cfcfcf" d="M5 7.5h1v1H5v-1zm5 0h1v1h-1v-1z"/></svg><svg width="16" height="16" viewBox="0 0 16 16" x="992" y="992" xmlns="http://www.w3.org/2000/svg"><title>payinfo-grey</title><path fill="#c8c7cc" d="M8 0a.522.522 0 0 0-.522.522v1.065a6.444 6.444 0 0 0-5.891 5.891H.522a.522.522 0 0 0 0 1.044h1.065a6.444 6.444 0 0 0 5.891 5.891v1.065a.522.522 0 0 0 1.044 0v-1.065a6.444 6.444 0 0 0 5.891-5.891h1.065a.522.522 0 0 0 0-1.044h-1.065a6.444 6.444 0 0 0-5.891-5.891V.522A.522.522 0 0 0 8 0z"/><path fill="#f6f5f3" d="M7.445 2.636c.011-.002.022.001.033 0v1.016a.522.522 0 0 0 1.044.001V2.636a5.38 5.38 0 0 1 4.84 4.82l.002.022h-1.016a.522.522 0 0 0 0 1.044h1.016a5.38 5.38 0 0 1-4.82 4.84l-.022.002v-1.016a.522.522 0 0 0-1.044 0v1.016a5.38 5.38 0 0 1-4.84-4.82l-.002-.022h1.016a.522.522 0 0 0 0-1.044H2.636a5.385 5.385 0 0 1 4.786-4.84l.023-.002z"/><path fill="#8f8f8f" d="M5.859 4.869h2.837c1.035 0 1.913.851 1.913 1.913s-.878 1.913-1.913 1.913H7.131v.347h1.913a.522.522 0 0 1 .001 1.044H7.131v.522c.003.275-.247.522-.522.522s-.525-.247-.522-.522v-.522h-.173a.522.522 0 0 1-.001-1.044h.174v-.348h-.173c-.276.004-.522-.246-.522-.521s.247-.525.522-.522h.173V5.912h-.173c-.273.014-.527-.249-.522-.522.005-.305.194-.507.467-.522zm1.272 1.044v1.739h1.565c.457 0 .87-.39.87-.869s-.413-.869-.87-.869H7.131z"/></svg><svg width="16" height="16" viewBox="0 0 16 16" x="1008" y="1008" xmlns="http://www.w3.org/2000/svg"><title>pen-grey</title><path fill="#c8c7cc" d="M15.785 4.19L11.765.169a.576.576 0 0 0-.818 0L1.215 9.901a.583.583 0 0 0-.157.288l-.001.004L.011 15.26a.578.578 0 0 0 .688.683l-.004.001 5.067-1.046a.583.583 0 0 0 .292-.157l9.732-9.731a.576.576 0 0 0 0-.818zM1.973 11.476l2.505 2.505-3.156.652.651-3.156zm3.671 2.036l-3.203-3.204 8.913-8.913 1.193 1.193-5.392 5.394a.578.578 0 0 0 .818.818l5.393-5.394 1.193 1.193-8.914 8.912z"/></svg><svg width="16" height="16" viewBox="0 0 16 16" x="1024" y="1024" xmlns="http://www.w3.org/2000/svg"><title>phone-grey</title><path fill="#c8c7cc" d="M13.556 11.256c-.943-.802-1.901-1.288-2.833-.487l-.556.485c-.408.35-1.164 1.992-4.09-1.355C3.15 6.556 4.892 6.036 5.3 5.688l.559-.485c.928-.802.577-1.813-.091-2.853l-.404-.631C4.693.681 3.961 0 3.032.801l-.503.437C2.119 1.535.971 2.502.691 4.339c-.335 2.205.723 4.728 3.145 7.498 2.42 2.77 4.789 4.163 7.033 4.139 1.865-.019 2.991-1.015 3.343-1.377l.505-.437c.927-.802.351-1.617-.593-2.421l-.568-.485z"/></svg><svg width="16" height="16" viewBox="0 0 16 16" x="1040" y="1040" xmlns="http://www.w3.org/2000/svg"><title>phonecall-color</title><path fill="#4a4a4a" d="M8.552 15.979c.055.003.111.007.163.007.603 0 1.108-.223 1.502-.661l.013-.013c.13-.159.28-.305.44-.461.111-.107.221-.219.329-.335.535-.567.531-1.314-.007-1.862l-1.391-1.417c-.257-.276-.57-.419-.899-.419-.326 0-.642.143-.906.415l-.769.783c-.052-.03-.108-.057-.16-.083-.088-.047-.173-.089-.244-.136-.747-.481-1.424-1.112-2.069-1.921a5.16 5.16 0 0 1-.661-1.049c.195-.185.381-.375.56-.561l.215-.219c.273-.279.417-.6.417-.932s-.144-.654-.417-.933l-.691-.703-.235-.242a11.88 11.88 0 0 0-.473-.478c-.257-.262-.567-.401-.892-.401-.323 0-.636.136-.907.401l-.867.883c-.318.32-.526.75-.563 1.228v.007C-.022 7.64.2 8.35.369 8.818c.411 1.132 1.029 2.184 1.945 3.309a12.024 12.024 0 0 0 3.989 3.18c.583.281 1.369.617 2.248.673z"/><path fill="#fc0" d="M2.925 11.601c-.857-1.049-1.431-2.025-1.812-3.071-.231-.633-.319-1.125-.28-1.589a1.14 1.14 0 0 1 .342-.737l.853-.869c.079-.076.203-.169.349-.169.14 0 .257.09.339.173.153.145.3.298.456.461l.241.249.691.704c.085.087.183.215.183.359s-.101.272-.183.358c-.075.077-.147.149-.218.226-.212.219-.414.428-.633.627l-.016.017c-.238.242-.195.484-.143.643l.01.027c.182.448.437.873.831 1.377.704.883 1.443 1.57 2.261 2.098.105.069.212.123.316.175.088.047.173.09.245.136l.036.02c.251.127.499.083.7-.126l.867-.883c.078-.08.202-.176.342-.176.137 0 .251.093.329.176l1.398 1.424c.231.235.231.471-.01.727-.095.103-.199.203-.307.309-.163.163-.335.329-.491.518-.245.265-.531.388-.909.388-.039 0-.075 0-.114-.003-.743-.05-1.437-.345-1.955-.597a11.255 11.255 0 0 1-3.718-2.971z"/><path fill="#4a4a4a" d="M9.657 8.916c.437.11.887.167 1.343.167 2.77 0 5.022-2.035 5.022-4.534S13.77.015 11 .015 5.979 2.046 5.979 4.548c0 .959.339 1.895.958 2.665-.117.229-.28.415-.483.547a.54.54 0 0 0-.224.571l-.001-.004a.53.53 0 0 0 .437.412h.003c.427.06 1.255.093 2.027-.382a.41.41 0 0 0 .136-.559l.001.002a.395.395 0 0 0-.549-.139l.002-.001a2.087 2.087 0 0 1-.864.286 2.46 2.46 0 0 0 .359-.664.42.42 0 0 0-.082-.418c-.603-.667-.923-1.467-.923-2.32 0-2.051 1.893-3.72 4.223-3.72s4.223 1.669 4.223 3.72-1.893 3.72-4.223 3.72c-.391 0-.779-.046-1.153-.139a.4.4 0 0 0-.483.296l-.001.003a.407.407 0 0 0 .29.49l.003.001z"/><path fill="#4a4a4a" d="M11.666 4.549a.667.667 0 1 1-1.334 0 .667.667 0 0 1 1.334 0zm1.509 0a.667.667 0 1 1-1.334 0 .667.667 0 0 1 1.334 0zm-3.017 0a.667.667 0 1 1-1.334 0 .667.667 0 0 1 1.334 0z"/></svg><svg width="16" height="16" viewBox="0 0 16 16" x="1056" y="1056" xmlns="http://www.w3.org/2000/svg"><title>phono-none-grey</title><path fill="#c8c7cc" d="M15.811 14.867L1.104.188a.645.645 0 0 0-.914 0 .643.643 0 0 0 0 .912l14.707 14.679a.644.644 0 0 0 .914 0 .643.643 0 0 0 0-.912z"/><path fill="#c8c7cc" d="M14.017 13.344H1.984a.69.69 0 0 1-.691-.689V5.316c0-.38.31-.689.691-.689h2.005l.036.001a.646.646 0 1 0 0-1.292l-.038.001h.002-2.005a1.983 1.983 0 0 0-1.983 1.98v7.339a1.983 1.983 0 0 0 1.983 1.98h12.033a.645.645 0 0 0 0-1.29zm0-10.008h-2.328l-1.145-1.714a.647.647 0 0 0-.538-.287H5.995l-.036-.001a.646.646 0 1 0 0 1.292l.038-.001h-.002H9.66l1.145 1.714c.12.18.322.287.538.287h2.673a.69.69 0 0 1 .691.689v6.232a.646.646 0 1 0 1.292 0V5.315a1.982 1.982 0 0 0-1.983-1.979z"/><path fill="#c8c7cc" d="M10.558 9.64a.646.646 0 0 0-.897.166l-.001.002a2.034 2.034 0 0 1-2.826.523l.007.004a2.024 2.024 0 0 1-.007-3.336l.007-.004a.645.645 0 0 0 .168-.898l.001.002a.646.646 0 0 0-.9-.167l.002-.001a3.313 3.313 0 0 0 1.87 6.048c1.06 0 2.103-.505 2.745-1.441a.643.643 0 0 0-.166-.896l-.002-.001z"/></svg><svg width="16" height="16" viewBox="0 0 16 16" x="1072" y="1072" xmlns="http://www.w3.org/2000/svg"><title>plus-black</title><path fill="#4a4a4a" d="M0 6h16v4H0z"/><path fill="#4a4a4a" d="M10 0v16H6V0z"/></svg><svg width="16" height="16" viewBox="0 0 16 16" x="1088" y="1088" xmlns="http://www.w3.org/2000/svg"><title>plus-grey</title><path fill="#c8c7cc" d="M6.4 6.4H0v3.2h6.4V16h3.2V9.6H16V6.4H9.6V0H6.4v6.4z"/></svg><svg width="16" height="16" viewBox="0 0 16 16" x="1104" y="1104" xmlns="http://www.w3.org/2000/svg"><title>print-black</title><path fill="#4a4a4a" d="M13.744 4.34h-1.026V1.435c0-.793-.643-1.436-1.436-1.436H4.718c-.793 0-1.436.643-1.436 1.436V4.34H2.256A2.256 2.256 0 0 0 0 6.596v4.431c0 .34.276.615.615.615h2.667v2.921c0 .793.643 1.436 1.436 1.436h6.564c.793 0 1.436-.643 1.436-1.436v-2.921h2.667c.34 0 .615-.276.615-.615V6.596a2.256 2.256 0 0 0-2.256-2.256zM4.513 1.436c0-.113.092-.205.205-.205h6.564c.113 0 .205.092.205.205v2.905H4.513V1.436zm6.974 13.128a.205.205 0 0 1-.205.205H4.718a.205.205 0 0 1-.205-.205V8.18h6.974v6.384zm3.282-4.152h-2.051V7.565a.615.615 0 0 0-.615-.615H3.898a.615.615 0 0 0-.615.615v2.847H1.232V6.597l-.001-.033c0-.566.459-1.026 1.026-1.026h11.488c.567 0 1.026.46 1.026 1.026v3.848z"/><path fill="#4a4a4a" d="M9.641 12.16H6.359a.615.615 0 0 0 0 1.23h3.282a.615.615 0 0 0 0-1.23zm0-2.609H6.359a.615.615 0 0 0 0 1.23h3.282a.615.615 0 0 0 0-1.23z"/></svg><svg width="16" height="16" viewBox="0 0 16 16" x="1120" y="1120" xmlns="http://www.w3.org/2000/svg"><title>profile-color</title><path fill="#fc0" d="M5.924 1.271L8.578.924l2.023 1.31.683 2.396-.916 3.589-1.579.964-1.196.449-1.668-.625-.659-1.308-.67-1.597-.247-1.473.247-1.455.67-.941z"/><path fill="#4a4a4a" d="M8.012 9.035c-.576 0-1.247-.415-1.8-1.096a5.128 5.128 0 0 1-.911-1.973c-.048-.269-1.224-.122-1.152.243.528 2.437 2.255 4.02 3.838 4.02 1.895 0 4.007-2.266 4.007-5.506 0-2.631-1.656-4.458-4.007-4.458-1.847 0-3.238 1.121-3.766 2.851-.12.365 1.055.585 1.127.34.384-1.218 1.344-1.972 2.639-1.972 1.68 0 2.831 1.315 2.831 3.264.024 2.631-1.655 4.288-2.807 4.288z"/><path fill="#4a4a4a" d="M7.976 9.035c.576 0 1.247-.415 1.8-1.096.432-.56.744-1.242.911-1.973.048-.269 1.223-.122 1.152.243-.528 2.437-2.255 4.02-3.839 4.02-1.895 0-4.006-2.266-4.006-5.506C3.994 2.092 5.649.265 8 .265c1.847 0 3.239 1.121 3.766 2.851.12.365-1.056.585-1.127.34C10.255 2.238 9.295 1.484 8 1.484c-1.679 0-2.831 1.315-2.831 3.264-.023 2.631 1.656 4.288 2.807 4.288zm6.633 1.974c-.84-.975-2.062-1.486-3.671-1.486a.65.65 0 0 0-.665.636c0 .349.283.631.632.631h.01-.001c1.247 0 2.159.341 2.734 1.048.696.804.792 1.949.792 2.631H9.738v1.267h5.805l.096-.536c0-.098.36-2.51-1.031-4.191z"/><path fill="#4a4a4a" d="M10.339 14.469H1.583c0-.683.096-1.803.792-2.632.576-.683 1.512-1.048 2.735-1.048.383 0 .695-.366.624-.78a.626.626 0 0 0-.648-.488c-1.607 0-2.855.512-3.67 1.486C.001 12.688.36 15.1.384 15.198l.096.536h9.883c-.024 0-.024-1.267-.024-1.267z"/></svg><svg width="16" height="16" viewBox="0 0 16 16" x="1136" y="1136" xmlns="http://www.w3.org/2000/svg"><title>profile-grey</title><path fill="#c8c7cc" d="M8.12 9.023c-.576 0-1.247-.415-1.8-1.096a5.128 5.128 0 0 1-.911-1.973c-.048-.269-1.224-.122-1.152.243.528 2.437 2.255 4.02 3.838 4.02 1.895 0 4.007-2.266 4.007-5.506 0-2.631-1.656-4.458-4.007-4.458-1.847 0-3.238 1.121-3.766 2.851-.12.365 1.055.585 1.127.34C5.84 2.226 6.8 1.472 8.095 1.472c1.68 0 2.831 1.315 2.831 3.264.024 2.631-1.655 4.288-2.807 4.288z"/><path fill="#c8c7cc" d="M8.084 9.023c.576 0 1.247-.415 1.8-1.096.432-.56.744-1.242.911-1.973.048-.269 1.223-.122 1.152.243-.528 2.437-2.255 4.02-3.839 4.02-1.895 0-4.006-2.266-4.006-5.506C4.102 2.08 5.757.253 8.108.253c1.847 0 3.239 1.121 3.766 2.851.12.365-1.056.585-1.127.34-.384-1.218-1.344-1.972-2.639-1.972-1.679 0-2.831 1.315-2.831 3.264-.023 2.631 1.656 4.288 2.807 4.288zm6.633 1.974c-.84-.975-2.062-1.486-3.671-1.486a.65.65 0 0 0-.665.636c0 .349.283.631.631.631h.01-.001c1.247 0 2.159.341 2.734 1.048.696.804.792 1.949.792 2.631H9.845v1.267h5.805l.096-.536c0-.098.36-2.51-1.031-4.191z"/><path fill="#c8c7cc" d="M10.447 14.457H1.691c0-.683.096-1.803.792-2.632.576-.683 1.512-1.048 2.735-1.048.383 0 .695-.366.624-.78a.626.626 0 0 0-.648-.488c-1.607 0-2.855.512-3.67 1.486C.109 12.676.468 15.088.492 15.186l.096.536h9.883c-.024 0-.024-1.267-.024-1.267z"/></svg><svg width="16" height="16" viewBox="0 0 16 16" x="1152" y="1152" xmlns="http://www.w3.org/2000/svg"><title>refresh-black</title><path fill="#4a4a4a" d="M15.542 1.809a.58.58 0 0 0-.688.437l-.001.004-.422 1.949C13.087 1.973 10.682.508 7.934.508h-.019.001C3.754.508.367 3.858.367 7.976c0 .318.26.575.581.575s.581-.257.581-.575c0-3.485 2.865-6.319 6.388-6.319h.014a6.396 6.396 0 0 1 5.495 3.117l.016.029-1.936-.411a.574.574 0 0 0-.247 1.122l.003.001 3.324.704a.585.585 0 0 0 .439-.08l-.002.001a.579.579 0 0 0 .252-.358l.001-.004.711-3.288a.575.575 0 0 0-.442-.68l-.004-.001zm-.584 5.414a.577.577 0 0 0-.561.577v.017-.001a6.218 6.218 0 0 1-1.723 4.529l.002-.002a6.365 6.365 0 0 1-4.639 2.001h-.028.001-.012a6.397 6.397 0 0 1-5.406-2.97l-.015-.026 2.019.536a.574.574 0 0 0 .304-1.109l-.004-.001-3.283-.872a.584.584 0 0 0-.443.06l.003-.002a.58.58 0 0 0-.27.345l-.001.004-.882 3.248a.574.574 0 0 0 .554.723h.009a.58.58 0 0 0 .559-.422l.001-.004.495-1.825c1.368 2.097 3.704 3.464 6.358 3.464.093 0 .185-.002.278-.005h-.013a7.523 7.523 0 0 0 5.26-2.357l.003-.004a7.346 7.346 0 0 0 2.033-5.363v.013a.578.578 0 0 0-.578-.555h-.023.001z"/></svg><svg width="16" height="16" viewBox="0 0 16 16" x="1168" y="1168" xmlns="http://www.w3.org/2000/svg"><title>rocket-color</title><path fill="#4a4a4a" d="M16 1.016c-.172 3.428-.941 5.78-4.392 8.528 0 1.417-.6 2.89-1.711 3.882l-1.969-2.181c-.427.34-.94.594-1.425.594-.713 0-1.369-.226-1.825-.765-.827-.935-.77-2.408.172-3.23L2.88 5.662C4.079 4.614 5.562 4.19 6.959 4.359c3.166-3.032 5.618-3.513 9.04-3.343z"/><path fill="#fff" d="M12.463 6.2c.656-.595.713-1.53.114-2.181-.284-.34-.769-.538-1.198-.538-.342 0-.713.17-.941.34-.656.595-.713 1.53-.114 2.182.284.34.769.538 1.198.538.342.028.685-.114.941-.34z"/><path fill="#ff3b30" d="M0 15.154l.114-.34c0-.057.599-2.125 1.369-2.89.428-.425.941-.652 1.427-.652.284 0 .542.057.713.284.484.481.284 1.416-.343 2.125-.826.822-2.794 1.36-2.908 1.416l-.371.057z"/></svg><svg width="16" height="16" viewBox="0 0 16 16" x="1184" y="1184" xmlns="http://www.w3.org/2000/svg"><title>search-black</title><path fill="#4a4a4a" stroke="#4a4a4a" stroke-width=".267" d="M10.289 10.289c1.859-1.859 1.859-4.879 0-6.76-1.858-1.858-4.902-1.858-6.76 0s-1.858 4.902 0 6.76c1.858 1.858 4.902 1.858 6.76 0zm1.075 1.075c-2.452 2.453-6.459 2.453-8.911 0S0 4.905 2.453 2.453C4.905 0 8.912 0 11.367 2.456c2.449 2.477 2.449 6.457-.003 8.909z"/><path fill="#4a4a4a" stroke="#4a4a4a" stroke-width=".267" d="M10.365 11.441l4.336 4.336a.761.761 0 0 0 1.076-1.076l-4.336-4.336a.761.761 0 0 0-1.076 1.076z"/></svg><svg width="16" height="16" viewBox="0 0 16 16" x="1200" y="1200" xmlns="http://www.w3.org/2000/svg"><title>search-grey</title><path fill="#8f8f8f" stroke="#8f8f8f" stroke-width=".267" d="M10.289 10.289c1.859-1.859 1.859-4.879 0-6.76-1.858-1.858-4.902-1.858-6.76 0s-1.858 4.902 0 6.76c1.858 1.858 4.902 1.858 6.76 0zm1.075 1.075c-2.452 2.453-6.459 2.453-8.911 0S0 4.905 2.453 2.453C4.905 0 8.912 0 11.367 2.456c2.449 2.477 2.449 6.457-.003 8.909z"/><path fill="#8f8f8f" stroke="#8f8f8f" stroke-width=".267" d="M10.365 11.441l4.336 4.336a.761.761 0 0 0 1.076-1.076l-4.336-4.336a.761.761 0 0 0-1.076 1.076z"/></svg><svg width="16" height="16" viewBox="0 0 16 16" x="1216" y="1216" xmlns="http://www.w3.org/2000/svg"><title>shield-blue</title><path fill="#2980b9" d="M8 16c0-.005-6.588-2.908-6.588-11.637L8 0l6.588 4.363C14.588 13.091 8 16 8 16z"/><path fill="#fff" d="M9.882 6.254L7.267 8.852 6.112 7.704 5.077 8.733l2.19 2.177 3.65-3.625z"/></svg><svg width="16" height="16" viewBox="0 0 16 16" x="1232" y="1232" xmlns="http://www.w3.org/2000/svg"><title>shop-color</title><path fill="#4a4a4a" d="M15.907 5.709l-2.5-3.5A.504.504 0 0 0 13 2V1a.99.99 0 0 0-1-1H4a.99.99 0 0 0-1 1v1a.502.502 0 0 0-.406.207l-.001.001-2.5 3.5a.496.496 0 0 0-.093.29v.001c0 1.103.897 2 2 2a1.97 1.97 0 0 0 1-.281v7.281c0 .561.439 1 1 1h8a.99.99 0 0 0 1-1V7.718a1.97 1.97 0 0 0 1 .281c1.103 0 2-.897 2-2v-.001a.499.499 0 0 0-.094-.292l.001.001zM4 1h8v1H4V1zm8 14H4v-2h8v2zm0-3H4V7.719A1.97 1.97 0 0 0 5 8c.597 0 1.133-.263 1.5-.679a1.995 1.995 0 0 0 2.998.003l.002-.002c.368.417.903.679 1.499.679H11a1.97 1.97 0 0 0 1-.281v4.281z"/><path fill="#fc0" d="M14 7c-.552 0-1-.449-1-1a.5.5 0 0 0-1 0 1.001 1.001 0 0 1-2 0 .5.5 0 0 0-1 0 1.001 1.001 0 0 1-2 0 .5.5 0 0 0-1 0 1.001 1.001 0 0 1-2 0 .5.5 0 0 0-1 0 1.001 1.001 0 0 1-1.989.152l-.001-.006L3.257 3h9.486l2.246 3.146A1.002 1.002 0 0 1 14 7z"/></svg><svg width="16" height="16" viewBox="0 0 16 16" x="1248" y="1248" xmlns="http://www.w3.org/2000/svg"><title>shopping-basket-black</title><path fill="#4a4a4a" d="M12.465 13.6l-8.917.005-1.723-6.41a.616.616 0 0 0-.761-.437l.004-.001a.627.627 0 0 0-.431.771l-.001-.004 1.846 6.865c.073.271.316.46.593.46h9.847a.615.615 0 0 0 .592-.456l.001-.004 1.847-6.865a.626.626 0 0 0-.428-.765l-.004-.001a.614.614 0 0 0-.755.435l-.001.004-1.71 6.405z"/><path fill="#4a4a4a" d="M10.175 11.885a.626.626 0 0 0 .428.765l.004.001a.615.615 0 0 0 .754-.435l.001-.004.674-2.505a.626.626 0 0 0-.428-.765l-.004-.001a.616.616 0 0 0-.755.434l-.001.004-.673 2.506zm-5.538.328a.615.615 0 0 0 .76.437l-.004.001a.627.627 0 0 0 .431-.771l.001.004-.673-2.505a.616.616 0 0 0-.761-.437l.004-.001a.627.627 0 0 0-.431.771l-.001-.004.673 2.505zm2.748-.173v.004a.62.62 0 0 0 .615.62.62.62 0 0 0 .615-.62V9.539A.62.62 0 0 0 8 8.919a.62.62 0 0 0-.615.62v2.501zm8-4.057a.62.62 0 0 0 .615-.62v-.008a.62.62 0 0 0-.615-.62H.615a.62.62 0 0 0-.615.62v.008a.62.62 0 0 0 .615.62h14.77zM3.047 5.365a.626.626 0 0 0 .428.765l.004.001a.616.616 0 0 0 .755-.434l.001-.004 1.009-3.754a.626.626 0 0 0-.427-.765l-.004-.001a.615.615 0 0 0-.755.433l-.001.004-1.009 3.754zm8.718.329a.616.616 0 0 0 .76.437l-.004.001a.627.627 0 0 0 .431-.77l.001.004-1.009-3.753a.615.615 0 0 0-.76-.437l.004-.001a.627.627 0 0 0-.431.771l-.001-.004 1.009 3.753z"/></svg><svg width="16" height="16" viewBox="0 0 16 16" x="1264" y="1264" xmlns="http://www.w3.org/2000/svg"><title>shopping-basket-black-white</title><path fill="#4a4a4a" d="M6.673 12.338c-.736 0-1.335.599-1.335 1.335s.599 1.335 1.335 1.335 1.335-.599 1.335-1.335-.599-1.335-1.335-1.335zm5.338 0c-.736 0-1.335.599-1.335 1.335s.599 1.335 1.335 1.335 1.335-.599 1.335-1.335-.599-1.335-1.335-1.335z"/><path fill="#fff" d="M3.828 3.845h11.549l-1.616 6.473-8.272.174z"/><path fill="#4a4a4a" d="M7.359 8.48a.572.572 0 0 0 .634.504H7.99a.567.567 0 0 0 .512-.623v.002l-.265-2.521a.573.573 0 0 0-.634-.503h.003a.568.568 0 0 0-.512.623V5.96l.265 2.522zm3.598.506a.571.571 0 0 0 .63-.502v-.003l.265-2.522a.568.568 0 0 0-.51-.621h-.002a.574.574 0 0 0-.631.502v.003l-.265 2.522a.568.568 0 0 0 .51.62h.002z"/><path fill="#4a4a4a" d="M15.879 3.454a.579.579 0 0 0-.453-.22H3.968l-.481-1.819a.574.574 0 0 0-.553-.423H.57a.57.57 0 0 0-.57.565.57.57 0 0 0 .575.565h1.911l.477 1.802a.243.243 0 0 0 .01.037l-.001-.004 1.774 6.709c.069.245.29.422.553.422h8.348a.574.574 0 0 0 .557-.422l1.779-6.725a.556.556 0 0 0-.103-.489l.001.001zM13.2 9.96H5.745l-1.48-5.595H14.68L13.2 9.96z"/><path fill="none" stroke="#4a4a4a" stroke-width=".333" d="M15.748 3.558a.412.412 0 0 0-.323-.156H3.838l-.033-.124-.481-1.819a.407.407 0 0 0-.392-.299H.568c-.221 0-.4.178-.403.398 0 .219.182.398.408.398h2.04l.033.124.478 1.807.008.029 1.774 6.707a.407.407 0 0 0 .395.299h8.344a.405.405 0 0 0 .395-.298l1.779-6.725a.388.388 0 0 0-.072-.342l.001.001zm-2.419 6.569H5.616L4.048 4.198h10.849l-1.568 5.929z"/></svg><svg width="16" height="16" viewBox="0 0 16 16" x="1280" y="1280" xmlns="http://www.w3.org/2000/svg"><title>orders-24-color-bw</title><path fill="#c8c7cc" d="M1.315 7.483H14.83l-1.973 6.833H3.096z"/><path fill="#777" d="M12.465 13.752l-8.917.005-1.723-6.41a.616.616 0 0 0-.761-.437l.004-.001a.627.627 0 0 0-.431.771l-.001-.004 1.846 6.865c.073.271.316.46.593.46h9.847a.615.615 0 0 0 .592-.456l.001-.004 1.847-6.865a.626.626 0 0 0-.428-.765l-.004-.001a.614.614 0 0 0-.755.435l-.001.004-1.71 6.405z"/><path fill="#777" d="M10.175 12.037a.626.626 0 0 0 .428.765l.004.001a.615.615 0 0 0 .754-.435l.001-.004.674-2.505a.626.626 0 0 0-.428-.765l-.004-.001a.616.616 0 0 0-.755.434l-.001.004-.673 2.506zm-5.538.328a.615.615 0 0 0 .76.437l-.004.001a.627.627 0 0 0 .431-.771l.001.004-.673-2.505a.616.616 0 0 0-.761-.437l.004-.001a.627.627 0 0 0-.431.771l-.001-.004.673 2.505zm2.748-.174v.004a.62.62 0 0 0 .615.62.62.62 0 0 0 .615-.62V9.69A.62.62 0 0 0 8 9.07a.62.62 0 0 0-.615.62v2.501zm8-4.056a.62.62 0 0 0 .615-.62v-.008a.62.62 0 0 0-.615-.62H.615a.62.62 0 0 0-.615.62v.008a.62.62 0 0 0 .615.62h14.77zM3.047 5.517a.626.626 0 0 0 .428.765l.004.001a.616.616 0 0 0 .755-.434l.001-.004 1.009-3.754a.626.626 0 0 0-.427-.765l-.004-.001a.615.615 0 0 0-.755.433l-.001.004-1.009 3.754zm8.718.328a.616.616 0 0 0 .76.437l-.004.001a.627.627 0 0 0 .431-.77l.001.004-1.009-3.753a.615.615 0 0 0-.76-.437l.004-.001a.627.627 0 0 0-.431.771l-.001-.004 1.009 3.753z"/></svg><svg width="16" height="16" viewBox="0 0 16 16" x="1296" y="1296" xmlns="http://www.w3.org/2000/svg"><title>shopping-basket-color</title><path fill="#fc0" d="M1.315 7.332H14.83l-1.973 6.833H3.096z"/><path fill="#4a4a4a" d="M12.465 13.6l-8.917.005-1.723-6.41a.616.616 0 0 0-.761-.437l.004-.001a.627.627 0 0 0-.431.771l-.001-.004 1.846 6.865c.073.271.316.46.593.46h9.847a.615.615 0 0 0 .592-.456l.001-.004 1.847-6.865a.626.626 0 0 0-.428-.765l-.004-.001a.614.614 0 0 0-.755.435l-.001.004-1.71 6.405z"/><path fill="#4a4a4a" d="M10.175 11.885a.626.626 0 0 0 .428.765l.004.001a.615.615 0 0 0 .754-.435l.001-.004.674-2.505a.626.626 0 0 0-.428-.765l-.004-.001a.616.616 0 0 0-.755.434l-.001.004-.673 2.506zm-5.538.328a.615.615 0 0 0 .76.437l-.004.001a.627.627 0 0 0 .431-.771l.001.004-.673-2.505a.616.616 0 0 0-.761-.437l.004-.001a.627.627 0 0 0-.431.771l-.001-.004.673 2.505zm2.748-.173v.004a.62.62 0 0 0 .615.62.62.62 0 0 0 .615-.62V9.539A.62.62 0 0 0 8 8.919a.62.62 0 0 0-.615.62v2.501zm8-4.057a.62.62 0 0 0 .615-.62v-.008a.62.62 0 0 0-.615-.62H.615a.62.62 0 0 0-.615.62v.008a.62.62 0 0 0 .615.62h14.77zM3.047 5.365a.626.626 0 0 0 .428.765l.004.001a.616.616 0 0 0 .755-.434l.001-.004 1.009-3.754a.626.626 0 0 0-.427-.765l-.004-.001a.615.615 0 0 0-.755.433l-.001.004-1.009 3.754zm8.718.329a.616.616 0 0 0 .76.437l-.004.001a.627.627 0 0 0 .431-.77l.001.004-1.009-3.753a.615.615 0 0 0-.76-.437l.004-.001a.627.627 0 0 0-.431.771l-.001-.004 1.009 3.753z"/></svg><svg width="16" height="16" viewBox="0 0 16 16" x="1312" y="1312" xmlns="http://www.w3.org/2000/svg"><title>orders-24-color-green</title><path fill="#63b31f" d="M1.315 7.483H14.83l-1.973 6.833H3.096z"/><path fill="#4a4a4a" d="M12.465 13.752l-8.917.005-1.723-6.41a.616.616 0 0 0-.761-.437l.004-.001a.627.627 0 0 0-.431.771l-.001-.004 1.846 6.865c.073.271.316.46.593.46h9.847a.615.615 0 0 0 .592-.456l.001-.004 1.847-6.865a.626.626 0 0 0-.428-.765l-.004-.001a.614.614 0 0 0-.755.435l-.001.004-1.71 6.405z"/><path fill="#4a4a4a" d="M10.175 12.037a.626.626 0 0 0 .428.765l.004.001a.615.615 0 0 0 .754-.435l.001-.004.674-2.505a.626.626 0 0 0-.428-.765l-.004-.001a.616.616 0 0 0-.755.434l-.001.004-.673 2.506zm-5.538.328a.615.615 0 0 0 .76.437l-.004.001a.627.627 0 0 0 .431-.771l.001.004-.673-2.505a.616.616 0 0 0-.761-.437l.004-.001a.627.627 0 0 0-.431.771l-.001-.004.673 2.505zm2.748-.174v.004a.62.62 0 0 0 .615.62.62.62 0 0 0 .615-.62V9.69A.62.62 0 0 0 8 9.07a.62.62 0 0 0-.615.62v2.501zm8-4.056a.62.62 0 0 0 .615-.62v-.008a.62.62 0 0 0-.615-.62H.615a.62.62 0 0 0-.615.62v.008a.62.62 0 0 0 .615.62h14.77zM3.047 5.517a.626.626 0 0 0 .428.765l.004.001a.616.616 0 0 0 .755-.434l.001-.004 1.009-3.754a.626.626 0 0 0-.427-.765l-.004-.001a.615.615 0 0 0-.755.433l-.001.004-1.009 3.754zm8.718.328a.616.616 0 0 0 .76.437l-.004.001a.627.627 0 0 0 .431-.77l.001.004-1.009-3.753a.615.615 0 0 0-.76-.437l.004-.001a.627.627 0 0 0-.431.771l-.001-.004 1.009 3.753z"/></svg><svg width="16" height="16" viewBox="0 0 16 16" x="1328" y="1328" xmlns="http://www.w3.org/2000/svg"><title>shopping-basket-grey</title><path fill="#c8c7cc" d="M12.465 13.6l-8.917.005-1.723-6.41a.616.616 0 0 0-.761-.437l.004-.001a.627.627 0 0 0-.431.771l-.001-.004 1.846 6.865c.073.271.316.46.593.46h9.847a.615.615 0 0 0 .592-.456l.001-.004 1.847-6.865a.626.626 0 0 0-.428-.765l-.004-.001a.614.614 0 0 0-.755.435l-.001.004-1.71 6.405z"/><path fill="#c8c7cc" d="M10.175 11.885a.626.626 0 0 0 .428.765l.004.001a.615.615 0 0 0 .754-.435l.001-.004.674-2.505a.626.626 0 0 0-.428-.765l-.004-.001a.616.616 0 0 0-.755.434l-.001.004-.673 2.506zm-5.538.328a.615.615 0 0 0 .76.437l-.004.001a.627.627 0 0 0 .431-.771l.001.004-.673-2.505a.616.616 0 0 0-.761-.437l.004-.001a.627.627 0 0 0-.431.771l-.001-.004.673 2.505zm2.748-.173v.004a.62.62 0 0 0 .615.62.62.62 0 0 0 .615-.62V9.539A.62.62 0 0 0 8 8.919a.62.62 0 0 0-.615.62v2.501zm8-4.057a.62.62 0 0 0 .615-.62v-.008a.62.62 0 0 0-.615-.62H.615a.62.62 0 0 0-.615.62v.008a.62.62 0 0 0 .615.62h14.77zM3.047 5.365a.626.626 0 0 0 .428.765l.004.001a.616.616 0 0 0 .755-.434l.001-.004 1.009-3.754a.626.626 0 0 0-.427-.765l-.004-.001a.615.615 0 0 0-.755.433l-.001.004-1.009 3.754zm8.718.329a.616.616 0 0 0 .76.437l-.004.001a.627.627 0 0 0 .431-.77l.001.004-1.009-3.753a.615.615 0 0 0-.76-.437l.004-.001a.627.627 0 0 0-.431.771l-.001-.004 1.009 3.753z"/></svg><svg width="16" height="16" viewBox="0 0 16 16" x="1344" y="1344" xmlns="http://www.w3.org/2000/svg"><title>orders-24-color-red</title><path fill="#c83c32" d="M1.315 7.483H14.83l-1.973 6.833H3.096z"/><path fill="#4a4a4a" d="M12.465 13.752l-8.917.005-1.723-6.41a.616.616 0 0 0-.761-.437l.004-.001a.627.627 0 0 0-.431.771l-.001-.004 1.846 6.865c.073.271.316.46.593.46h9.847a.615.615 0 0 0 .592-.456l.001-.004 1.847-6.865a.626.626 0 0 0-.428-.765l-.004-.001a.614.614 0 0 0-.755.435l-.001.004-1.71 6.405z"/><path fill="#f6f5f3" d="M10.175 12.037a.626.626 0 0 0 .428.765l.004.001a.615.615 0 0 0 .754-.435l.001-.004.674-2.505a.626.626 0 0 0-.428-.765l-.004-.001a.616.616 0 0 0-.755.434l-.001.004-.673 2.506zm-5.538.328a.615.615 0 0 0 .76.437l-.004.001a.627.627 0 0 0 .431-.771l.001.004-.673-2.505a.616.616 0 0 0-.761-.437l.004-.001a.627.627 0 0 0-.431.771l-.001-.004.673 2.505zm2.748-.174v.004a.62.62 0 0 0 .615.62.62.62 0 0 0 .615-.62V9.69A.62.62 0 0 0 8 9.07a.62.62 0 0 0-.615.62v2.501z"/><path fill="#4a4a4a" d="M15.385 8.135a.62.62 0 0 0 .615-.62v-.008a.62.62 0 0 0-.615-.62H.615a.62.62 0 0 0-.615.62v.008a.62.62 0 0 0 .615.62h14.77zM3.047 5.517a.626.626 0 0 0 .428.765l.004.001a.616.616 0 0 0 .755-.434l.001-.004 1.009-3.754a.626.626 0 0 0-.427-.765l-.004-.001a.615.615 0 0 0-.755.433l-.001.004-1.009 3.754zm8.718.328a.616.616 0 0 0 .76.437l-.004.001a.627.627 0 0 0 .431-.77l.001.004-1.009-3.753a.615.615 0 0 0-.76-.437l.004-.001a.627.627 0 0 0-.431.771l-.001-.004 1.009 3.753z"/></svg><svg width="16" height="16" viewBox="0 0 16 16" x="1360" y="1360" xmlns="http://www.w3.org/2000/svg"><title>shopping-cart-color</title><path fill="#4a4a4a" d="M6.673 12.338c-.736 0-1.335.599-1.335 1.335s.599 1.335 1.335 1.335 1.335-.599 1.335-1.335-.599-1.335-1.335-1.335zm5.338 0c-.736 0-1.335.599-1.335 1.335s.599 1.335 1.335 1.335 1.335-.599 1.335-1.335-.599-1.335-1.335-1.335z"/><path fill="#fc0" d="M3.828 3.845h11.549l-1.616 6.473-8.272.174z"/><path fill="#4a4a4a" d="M7.359 8.481a.572.572 0 0 0 .634.504H7.99a.567.567 0 0 0 .512-.623v.002l-.265-2.521a.573.573 0 0 0-.634-.503h.003a.568.568 0 0 0-.512.623v-.002l.265 2.522zm3.597.504a.571.571 0 0 0 .63-.502V8.48l.265-2.522a.568.568 0 0 0-.51-.621h-.002a.574.574 0 0 0-.631.502v.003l-.265 2.522a.568.568 0 0 0 .51.62h.002z"/><path fill="#4a4a4a" d="M15.879 3.454a.579.579 0 0 0-.453-.22H3.968l-.481-1.819a.574.574 0 0 0-.553-.423H.57a.57.57 0 0 0-.57.565.57.57 0 0 0 .575.565h1.911l.477 1.802a.243.243 0 0 0 .01.037l-.001-.004 1.774 6.709c.069.245.29.422.553.422h8.348a.574.574 0 0 0 .557-.422l1.779-6.725a.556.556 0 0 0-.103-.489l.001.001zM13.2 9.96H5.745l-1.48-5.595H14.68L13.2 9.96z"/><path fill="none" stroke="#4a4a4a" stroke-width=".308" d="M15.748 3.557a.386.386 0 0 1 .071.344l.001-.003-1.778 6.725a.408.408 0 0 1-.392.298H5.3a.406.406 0 0 1-.391-.295l-.001-.003-2.293-8.669H.571a.403.403 0 0 1-.403-.398c0-.22.182-.398.408-.398h2.356c.187 0 .349.123.395.299l.481 1.819.033.124h11.586a.41.41 0 0 1 .323.156zm-2.419 6.569H5.616L4.048 4.197h10.849l-1.568 5.929z"/></svg><svg width="16" height="16" viewBox="0 0 16 16" x="1376" y="1376" xmlns="http://www.w3.org/2000/svg"><title>shopping-cart-grey</title><path fill="#c8c7cc" d="M6.674 12.338c-.736 0-1.335.599-1.335 1.335s.599 1.335 1.335 1.335 1.335-.599 1.335-1.335-.599-1.335-1.335-1.335zm5.339 0c-.736 0-1.335.599-1.335 1.335s.599 1.335 1.335 1.335 1.335-.599 1.335-1.335-.599-1.335-1.335-1.335zM7.36 8.481a.572.572 0 0 0 .634.504h-.003a.567.567 0 0 0 .512-.623v.002l-.265-2.521a.573.573 0 0 0-.634-.503h.003a.568.568 0 0 0-.512.623v-.002l.265 2.522zm3.597.504a.571.571 0 0 0 .63-.502V8.48l.265-2.522a.568.568 0 0 0-.51-.621h-.002a.574.574 0 0 0-.631.502v.003l-.265 2.522a.568.568 0 0 0 .51.62h.002z"/><path fill="#c8c7cc" d="M15.88 3.454a.579.579 0 0 0-.453-.22H3.969l-.481-1.819a.574.574 0 0 0-.553-.423H.571a.57.57 0 0 0-.57.565.57.57 0 0 0 .575.565h1.911l.477 1.802a.243.243 0 0 0 .01.037l-.001-.004 1.774 6.709c.069.245.29.422.553.422h8.348a.574.574 0 0 0 .557-.422l1.779-6.725a.556.556 0 0 0-.103-.489l.001.001zM13.202 9.96H5.747l-1.48-5.595h10.415l-1.48 5.595z"/><path fill="none" stroke="#c8c7cc" stroke-width=".333" d="M15.749 3.557a.386.386 0 0 1 .071.344l.001-.003-1.778 6.725a.408.408 0 0 1-.392.298h-8.35a.406.406 0 0 1-.391-.295l-.001-.003-2.293-8.669H.572a.403.403 0 0 1-.403-.398c0-.22.182-.398.408-.398h2.356c.187 0 .349.123.395.299l.481 1.819.033.124h11.586a.41.41 0 0 1 .323.156zm-2.418 6.569H5.618L4.05 4.197h10.849l-1.568 5.929z"/></svg><svg width="16" height="16" viewBox="0 0 16 16" x="1392" y="1392" xmlns="http://www.w3.org/2000/svg"><title>shopping-cart-none-grey</title><path fill="#c8c7cc" d="M6.497 12.918c-.717 0-1.299.608-1.299 1.356s.583 1.356 1.299 1.356c.717 0 1.3-.608 1.3-1.356s-.583-1.356-1.3-1.356zm5.198 0c-.717 0-1.3.608-1.3 1.356s.583 1.356 1.3 1.356 1.3-.608 1.3-1.356-.583-1.356-1.3-1.356zm3.765-9.176a.557.557 0 0 0-.442-.223H3.864l-.468-1.848a.565.565 0 0 0-.542-.43H.56a.566.566 0 0 0-.559.567v.008c0 .317.251.574.559.574h1.861l.464 1.831a.549.549 0 0 0 .009.038l-.001-.004 1.728 6.815c.062.247.28.427.541.429h8.123a.563.563 0 0 0 .542-.425l.001-.004 1.731-6.832a.591.591 0 0 0-.1-.497l.001.002zm-2.607 6.609H5.595L4.154 4.667h10.139l-1.441 5.684z"/><path fill="none" stroke="#c8c7cc" stroke-width=".383" d="M15.304 4.01c.07.094.095.216.066.331l-1.732 6.831a.369.369 0 0 1-.352.283H5.163a.367.367 0 0 1-.352-.28l-.001-.003-1.728-6.814-.007-.029-.466-1.837-.037-.146H.559a.372.372 0 0 1-.364-.372v-.008c0-.21.164-.378.364-.378h2.294c.165 0 .311.115.353.282l.506 1.995h11.305a.36.36 0 0 1 .286.144l.001.001zm-2.299 6.686H5.443L3.904 4.623h10.639l-1.539 6.073z"/><path fill="#c8c7cc" d="M1.835 13.576L14.218 1.193a.678.678 0 1 1 .959.959L2.794 14.535a.678.678 0 1 1-.959-.959z"/><path fill="none" stroke="#fff" d="M1.476 13.217L13.859.834a1.187 1.187 0 0 1 1.678 1.678L3.154 14.895a1.187 1.187 0 0 1-1.678-1.678z"/></svg><svg width="16" height="16" viewBox="0 0 16 16" x="1408" y="1408" xmlns="http://www.w3.org/2000/svg"><title>sort-black</title><path fill="#4a4a4a" d="M12.068 15.492c.25 0 .453-.197.453-.441V2.013l2.708 2.644a.453.453 0 0 0 .32.129h.001c.124 0 .236-.05.318-.13a.427.427 0 0 0 0-.62L12.391.641a.466.466 0 0 0-.636 0L8.278 4.037a.427.427 0 0 0 0 .62.456.456 0 0 0 .637 0l2.708-2.644v13.043c0 .241.195.436.436.436h.01zm-4.347-4.148a.453.453 0 0 0-.636 0l-2.708 2.644V.951A.447.447 0 0 0 3.93.508h-.011a.447.447 0 0 0-.447.441v13.038L.768 11.343a.455.455 0 0 0-.637 0 .43.43 0 0 0 0 .622l3.477 3.395a.453.453 0 0 0 .32.129h.001c.124 0 .236-.05.318-.13l3.476-3.394a.44.44 0 0 0-.003-.621z"/></svg><svg width="16" height="16" viewBox="0 0 16 16" x="1424" y="1424" xmlns="http://www.w3.org/2000/svg"><title>black2</title><path fill="#4a4a4a" stroke="#4a4a4a" stroke-width=".5" d="M14.645 6.481a.428.428 0 0 1-.107.444l-2.885 2.869.63 4a.434.434 0 0 1-.175.419l-.001.001a.44.44 0 0 1-.463.036l.003.001L8 12.421l-3.648 1.83a.447.447 0 0 1-.461-.037l.001.001a.435.435 0 0 1-.176-.423v.002l.631-4-2.885-2.87a.435.435 0 0 1-.106-.446l-.001.003a.442.442 0 0 1 .347-.296h.003l4.038-.642L7.607 1.94a.444.444 0 0 1 .785-.003l.001.002 1.864 3.603 4.038.642a.44.44 0 0 1 .349.293l.001.003zM10.87 9.334l2.435-2.421-3.408-.542a.445.445 0 0 1-.322-.23l-.001-.002L8 3.098l-1.573 3.04a.443.443 0 0 1-.32.233h-.003l-3.408.542 2.435 2.42c.1.1.145.239.124.377l-.533 3.375L7.8 11.541a.447.447 0 0 1 .403.002l-.003-.001 3.078 1.544-.533-3.375a.432.432 0 0 1 .124-.376z"/></svg><svg width="16" height="16" viewBox="0 0 16 16" x="1440" y="1440" xmlns="http://www.w3.org/2000/svg"><title>star-color</title><path fill="#4a4a4a" stroke="#4a4a4a" stroke-width=".333" d="M15.447 6.298a.494.494 0 0 0-.389-.332h-.003l-4.525-.719L8.441 1.21a.497.497 0 0 0-.439-.266h-.004a.496.496 0 0 0-.438.263l-.001.003-2.088 4.037-4.525.719a.494.494 0 0 0-.391.329l-.001.003a.483.483 0 0 0 .12.497l3.234 3.216-.707 4.483a.49.49 0 0 0 .196.471l.001.001a.493.493 0 0 0 .517.04l-.003.001 4.087-2.052 4.088 2.052a.496.496 0 0 0 .515-.042l-.001.001a.49.49 0 0 0 .198-.475v.003l-.707-4.483 3.234-3.216a.483.483 0 0 0 .119-.5l.001.003z"/><path fill="#fc0" d="M11.215 9.494a.486.486 0 0 0-.138.425v-.003l.597 3.783-3.45-1.731a.496.496 0 0 0-.449.001l.003-.001-3.45 1.731.597-3.783a.486.486 0 0 0-.138-.421L2.058 6.783l3.819-.607a.496.496 0 0 0 .361-.257l.001-.003 1.763-3.408 1.763 3.407a.495.495 0 0 0 .36.261h.003l3.818.607-2.728 2.714z"/></svg><svg width="16" height="16" viewBox="0 0 16 16" x="1456" y="1456" xmlns="http://www.w3.org/2000/svg"><title>star-color-border-white</title><path fill="#fff" stroke="#fff" stroke-width=".333" d="M15.975 6.177a.532.532 0 0 0-.417-.356h-.003l-4.846-.77L8.472.728a.531.531 0 0 0-.47-.285h-.004a.53.53 0 0 0-.469.282l-.001.003-2.236 4.323-4.846.77a.531.531 0 0 0-.419.352l-.001.004a.519.519 0 0 0 .129.532l3.463 3.443-.757 4.8a.521.521 0 0 0 .211.504l.002.001a.531.531 0 0 0 .554.043l-.003.001 4.376-2.198 4.378 2.197a.523.523 0 0 0 .552-.045l-.002.001a.521.521 0 0 0 .211-.508v.003l-.757-4.8 3.463-3.443a.519.519 0 0 0 .127-.536l.001.004z"/><path fill="#fc0" d="M11.443 9.6a.522.522 0 0 0-.147.455v-.003l.639 4.051-3.695-1.854a.53.53 0 0 0-.481.002l.003-.001-3.695 1.854.639-4.051a.519.519 0 0 0-.148-.451L1.635 6.698l4.089-.65a.533.533 0 0 0 .387-.276l.001-.003L8 2.119l1.888 3.648a.532.532 0 0 0 .385.28h.003l4.088.65-2.922 2.906z"/></svg><svg width="16" height="16" viewBox="0 0 16 16" x="1472" y="1472" xmlns="http://www.w3.org/2000/svg"><title>star-grey</title><path fill="#c8c7cc" stroke="#c8c7cc" stroke-width=".5" d="M15.447 6.299a.49.49 0 0 1-.12.498l-3.233 3.215.706 4.483a.486.486 0 0 1-.196.47l-.001.001a.494.494 0 0 1-.518.04l.003.001-4.087-2.051-4.088 2.051a.497.497 0 0 1-.516-.041l.001.001a.488.488 0 0 1-.198-.475v.003l.707-4.483L.674 6.796a.483.483 0 0 1-.119-.499L.554 6.3a.494.494 0 0 1 .389-.331h.003l4.525-.719L7.56 1.212a.496.496 0 0 1 .879-.003l.001.003 2.089 4.038 4.525.719a.493.493 0 0 1 .391.328l.001.003zm-4.231 3.197l2.729-2.713-3.819-.607a.496.496 0 0 1-.361-.257l-.001-.003L8 2.508 6.237 5.915a.498.498 0 0 1-.359.261h-.003l-3.819.607 2.729 2.712a.492.492 0 0 1 .139.422l-.597 3.782 3.449-1.73a.497.497 0 0 1 .451.001l-.003-.001 3.449 1.73-.597-3.782a.483.483 0 0 1 .139-.421z"/></svg><svg width="16" height="16" viewBox="0 0 16 16" x="1488" y="1488" xmlns="http://www.w3.org/2000/svg"><title>star-white-border-black</title><path fill="#4a4a4a" stroke="#4a4a4a" stroke-width=".333" d="M14.645 6.481a.44.44 0 0 0-.347-.296h-.003l-4.038-.642L8.393 1.94a.442.442 0 0 0-.392-.237h-.004a.443.443 0 0 0-.391.235l-.001.002-1.863 3.603-4.038.642a.439.439 0 0 0-.349.294l-.001.003a.428.428 0 0 0 .107.443l2.885 2.869-.631 4a.434.434 0 0 0 .176.42l.001.001a.444.444 0 0 0 .462.036l-.003.001 3.647-1.831 3.648 1.831a.438.438 0 0 0 .46-.038l-.001.001a.435.435 0 0 0 .177-.423v.002l-.631-4 2.885-2.869a.435.435 0 0 0 .105-.446l.001.003z"/><path fill="#fff" d="M10.869 9.333a.436.436 0 0 0-.123.379V9.71l.533 3.375L8.2 11.54a.445.445 0 0 0-.401.001l.003-.001-3.079 1.545.533-3.376a.432.432 0 0 0-.124-.376l-2.435-2.42 3.407-.542a.443.443 0 0 0 .322-.23l.001-.002L8 3.098l1.573 3.04c.064.123.182.21.321.233h.003l3.407.541-2.435 2.421z"/></svg><svg width="16" height="16" viewBox="0 0 16 16" x="1504" y="1504" xmlns="http://www.w3.org/2000/svg"><title>stars-color</title><path fill="#4a4a4a" d="M8.013.667a.577.577 0 0 0-.463.306l-.002.003-2.2 4.187-4.845.619a.58.58 0 0 0-.475.363l-.001.004a.54.54 0 0 0 .15.568l3.477 3.297-.865 4.61a.546.546 0 0 0 .218.527l.002.001c.167.119.4.139.587.051L7.2 13.42l.163-.866-.296-.287-2.966 1.462.72-3.813a.539.539 0 0 0-.162-.47L1.786 6.717l4.011-.521a.576.576 0 0 0 .428-.296l.002-.003L8.044 2.44l1.759 3.492c.087.156.24.266.421.292h.003l3.981.59-2.345 2.162.151.31.987.149 2.827-2.597a.541.541 0 0 0 .149-.56l.001.004a.571.571 0 0 0-.45-.373h-.003l-4.84-.711L8.567.983c-.159-.21-.331-.307-.551-.315z"/><path fill="#4a4a4a" d="M10.265 7.267a.57.57 0 0 0-.503.301l-.002.003-1.039 2.024-2.275.304a.57.57 0 0 0-.455.369l-.001.004a.557.557 0 0 0 .143.566l1.631 1.595-.406 2.225a.559.559 0 0 0 .216.534l.001.001c.165.12.4.14.583.049l2.043-1.038 2.031 1.067c.182.095.419.08.587-.039a.558.558 0 0 0 .225-.537v.003l-.371-2.231 1.666-1.565a.555.555 0 0 0 .146-.567l.001.004a.57.57 0 0 0-.445-.378h-.003l-2.275-.344-1.004-2.041c-.132-.301-.319-.285-.493-.309z"/><path fill="#fc0" stroke="#fc0" stroke-width=".333" d="M10.247 9.056l.639 1.301a.57.57 0 0 0 .409.304h.003l1.445.218-1.057.997a.553.553 0 0 0-.161.486v-.003l.237 1.422-1.288-.683a.58.58 0 0 0-.526.001l.003-.002-1.294.66.255-1.417a.556.556 0 0 0-.151-.494l-1.045-1.015 1.451-.189a.573.573 0 0 0 .423-.295l.001-.003.655-1.29z"/></svg><svg width="16" height="16" viewBox="0 0 16 16" x="1520" y="1520" xmlns="http://www.w3.org/2000/svg"><title>stars-grey</title><path fill="#c8c7cc" d="M8.013.667a.577.577 0 0 0-.463.306l-.002.003-2.2 4.187-4.845.619a.58.58 0 0 0-.475.363l-.001.004a.54.54 0 0 0 .15.568l3.477 3.297-.865 4.61a.546.546 0 0 0 .218.527l.002.001c.167.119.4.139.587.051L7.2 13.42l.163-.866-.296-.287-2.966 1.462.72-3.813a.539.539 0 0 0-.162-.47L1.786 6.717l4.011-.521a.576.576 0 0 0 .428-.296l.002-.003L8.044 2.44l1.759 3.492c.087.156.24.266.421.292h.003l3.981.59-2.345 2.162.151.31.987.149 2.827-2.597a.541.541 0 0 0 .149-.56l.001.004a.571.571 0 0 0-.45-.373h-.003l-4.84-.711L8.567.983c-.159-.21-.331-.307-.551-.315z"/><path fill="#c8c7cc" d="M10.265 7.267c.175.025.361.009.493.309l1.004 2.041 2.275.344c.21.034.38.18.447.374l.001.004a.55.55 0 0 1-.147.563l-1.666 1.565.371 2.231a.56.56 0 0 1-.225.535.573.573 0 0 1-.59.038l.003.002-2.031-1.067-2.043 1.038a.576.576 0 0 1-.585-.05l.002.001a.557.557 0 0 1-.216-.539v.003l.407-2.225-1.631-1.595a.556.556 0 0 1-.142-.57l-.001.004a.569.569 0 0 1 .454-.373h.003l2.275-.304 1.039-2.024a.572.572 0 0 1 .505-.304zm-.018 1.789l-.655 1.29a.572.572 0 0 1-.421.298h-.003l-1.451.189 1.045 1.015a.553.553 0 0 1 .15.497l.001-.004-.255 1.416 1.294-.659a.58.58 0 0 1 .526.001l-.003-.002 1.288.683-.237-1.422a.553.553 0 0 1 .162-.481l1.057-.997-1.445-.218a.569.569 0 0 1-.411-.301l-.001-.003-.639-1.301z"/></svg><svg width="16" height="16" viewBox="0 0 16 16" x="1536" y="1536" xmlns="http://www.w3.org/2000/svg"><title>thumbs-up-color</title><path fill="none" stroke="#4a4a4a" stroke-width="1.067" d="M2.181 9.053v5.621c0 .354.278.639.617.639h1.844a.613.613 0 0 0 .509-.275c.294.285.686.462 1.12.462h4.941c1.107 0 1.813-.603 1.939-1.652l.664-4.379c.003-.016.003-.033.003-.049 0-.934-.734-1.694-1.635-1.694H9.712V5.887c0-.796-.225-1.37-.671-1.711-.705-.534-1.67-.229-1.711-.216a.322.322 0 0 0-.218.308v2.091c0 1.629-1.828 2.186-1.904 2.209a.24.24 0 0 0-.104.056.608.608 0 0 0-.459-.213H2.798a.63.63 0 0 0-.617.642z"/><path fill="#4a4a4a" d="M4.638 8.388h1.034v6.466H4.638V8.388z"/><path fill="#fc0" d="M7.353 2.052V1.018a.517.517 0 0 1 1.034 0v1.034a.517.517 0 0 1-1.034 0zM4.767 6.448H3.733a.517.517 0 0 1 0-1.034h1.034a.517.517 0 0 1 0 1.034zm8.276 0h-1.034a.517.517 0 0 1 0-1.034h1.034a.517.517 0 0 1 0 1.034zM4.669 3.693l-.732-.732a.518.518 0 0 1 .732-.732l.732.732a.518.518 0 0 1-.732.732zm7.485-.823l-.732.732a.518.518 0 0 1-.732-.732l.732-.732a.518.518 0 0 1 .732.732z"/></svg><svg width="16" height="16" viewBox="0 0 16 16" x="1552" y="1552" xmlns="http://www.w3.org/2000/svg"><title>thumbs-up-grey</title><path fill="none" stroke="#c8c7cc" stroke-width="1.067" d="M2.181 9.053v5.621c0 .354.278.639.617.639h1.844a.613.613 0 0 0 .509-.275c.294.285.686.462 1.12.462h4.941c1.107 0 1.813-.603 1.939-1.652l.664-4.379c.003-.016.003-.033.003-.049 0-.934-.734-1.694-1.635-1.694H9.712V5.887c0-.796-.225-1.37-.671-1.711-.705-.534-1.67-.229-1.711-.216a.322.322 0 0 0-.218.308v2.091c0 1.629-1.828 2.186-1.904 2.209a.24.24 0 0 0-.104.056.608.608 0 0 0-.459-.213H2.798a.63.63 0 0 0-.617.642z"/><path fill="#c8c7cc" d="M4.638 8.388h1.034v6.466H4.638V8.388zm2.715-6.336V1.018a.517.517 0 0 1 1.034 0v1.034a.517.517 0 0 1-1.034 0zM4.767 6.448H3.733a.517.517 0 0 1 0-1.034h1.034a.517.517 0 0 1 0 1.034zm8.276 0h-1.034a.517.517 0 0 1 0-1.034h1.034a.517.517 0 0 1 0 1.034zM4.669 3.693l-.732-.732a.518.518 0 0 1 .732-.732l.732.732a.518.518 0 0 1-.732.732zm7.485-.823l-.732.732a.518.518 0 0 1-.732-.732l.732-.732a.518.518 0 0 1 .732.732z"/></svg><svg width="16" height="16" viewBox="0 0 16 16" x="1568" y="1568" xmlns="http://www.w3.org/2000/svg"><title>thumbs-up-white</title><path fill="#fff" d="M13.925 6.278c1.539.1 2.075.652 1.941 2.39-.1 1.37-.335 3.71-.536 5.565-.15 1.387-1.138 1.638-2.593 1.638-2.895 0-7.866-1.037-7.866-1.037l.017-7.771s.134-.067.251-.099c2.544-.703 3.9-4.563 4.352-5.699s2.527-.619 2.259.835c-.167.919-.635 2.891-.987 4.312 1.221-.117 2.376-.184 3.163-.134zm-10.962.201c.452 0 .836.367.836.836v7.302a.827.827 0 0 1-.836.836H.828A.828.828 0 0 1 0 14.625v-7.31c0-.469.367-.836.837-.836h2.125z"/></svg><svg width="16" height="16" viewBox="0 0 16 16" x="1584" y="1584" xmlns="http://www.w3.org/2000/svg"><title>trash-black</title><path fill="#4a4a4a" d="M12.901 1.145H9.47C9.391.923 9.528 0 8.936 0H7.064c-.592 0-.455.923-.534 1.145H3.099a1.58 1.58 0 0 0-1.57 1.58v1.449a.57.57 0 0 0 .568.573h1.067v10.679a.57.57 0 0 0 .568.574h8.538a.571.571 0 0 0 .568-.573V4.747h1.067a.571.571 0 0 0 .568-.573v-1.45a1.58 1.58 0 0 0-1.57-1.58h-.001zm-1.2 13.707H4.299V4.749h7.402v10.105zM13.336 3.6H2.664v-.869c0-.242.195-.439.435-.439h9.803c.24 0 .436.197.436.439V3.6z"/><path fill="#4a4a4a" d="M6.512 12.873a.571.571 0 0 0 .568-.573V6.252a.571.571 0 0 0-.568-.571.571.571 0 0 0-.568.571v6.047a.57.57 0 0 0 .568.574zm2.976 0a.571.571 0 0 0 .568-.573V6.252a.571.571 0 0 0-.568-.571.571.571 0 0 0-.568.571v6.047a.57.57 0 0 0 .568.574z"/></svg><svg width="16" height="16" viewBox="0 0 16 16" x="1600" y="1600" xmlns="http://www.w3.org/2000/svg"><title>trash-red</title><path fill="#c83c32" d="M12.901 1.145H9.47C9.391.923 9.528 0 8.936 0H7.064c-.592 0-.455.923-.534 1.145H3.099a1.58 1.58 0 0 0-1.57 1.58v1.449a.57.57 0 0 0 .568.573h1.067v10.679a.57.57 0 0 0 .568.574h8.538a.571.571 0 0 0 .568-.573V4.747h1.067a.571.571 0 0 0 .568-.573v-1.45a1.58 1.58 0 0 0-1.57-1.58h-.001zm-1.2 13.707H4.299V4.749h7.402v10.105zM13.336 3.6H2.664v-.869c0-.242.195-.439.435-.439h9.803c.24 0 .436.197.436.439V3.6z"/><path fill="#c83c32" d="M6.512 12.873a.571.571 0 0 0 .568-.573V6.252a.571.571 0 0 0-.568-.571.571.571 0 0 0-.568.571v6.047a.57.57 0 0 0 .568.574zm2.976 0a.571.571 0 0 0 .568-.573V6.252a.571.571 0 0 0-.568-.571.571.571 0 0 0-.568.571v6.047a.57.57 0 0 0 .568.574z"/></svg></svg>