<svg width="241" height="32" viewBox="0 0 241 32" xmlns="http://www.w3.org/2000/svg"><title>8thOfMarch242x32</title><g fill="none" fill-rule="evenodd"><path d="M123.4 19.098c-.47 0-.91.209-1.203.576-1.027 1.19-2.309 1.786-3.815 1.786-.958 0-1.81-.209-2.553-.635a4.404 4.404 0 0 1-1.75-1.776c-.42-.764-.626-1.628-.626-2.59 0-.972.205-1.836.626-2.59a4.4 4.4 0 0 1 1.75-1.776c.744-.426 1.595-.635 2.553-.635 1.233 0 2.308.387 3.228 1.181.362.318.626.506 1.144.506.87 0 1.575-.714 1.575-1.597 0-.467-.196-.883-.509-1.171l-.01-.01-.02-.02a7.337 7.337 0 0 0-1.965-1.26c-1.076-.476-2.289-.714-3.619-.714-1.584 0-3.012.347-4.284 1.042a7.578 7.578 0 0 0-2.993 2.877c-.723 1.23-1.095 2.62-1.095 4.167 0 1.548.372 2.937 1.095 4.167.724 1.23 1.722 2.183 2.993 2.878 1.272.694 2.69 1.041 4.265 1.041 1.33 0 2.542-.238 3.628-.714a7.078 7.078 0 0 0 2.68-2.024c.293-.288.47-.685.47-1.131 0-.873-.695-1.578-1.565-1.578zM105.05 8.373a1.56 1.56 0 0 1 1.546 1.567v13.048c0 .853-.695 1.557-1.546 1.557-.85 0-1.545-.704-1.545-1.557v-.14a7.807 7.807 0 0 1-4.88 1.697c-4.402 0-7.971-3.621-7.971-8.086s3.57-8.086 7.97-8.086c1.84 0 3.531.635 4.881 1.696V9.94a1.56 1.56 0 0 1 1.545-1.567zm-1.545 8.394v-.606c-.156-2.6-2.279-4.663-4.88-4.663-2.7 0-4.89 2.223-4.89 4.961 0 2.748 2.19 4.97 4.89 4.97 2.601 0 4.724-2.063 4.88-4.662zm62.116-8.126h.01c.802 0 1.467.635 1.525 1.438a7.909 7.909 0 0 1 4.9-1.706c4.402 0 7.972 3.621 7.972 8.086s-3.57 8.086-7.972 8.086a7.873 7.873 0 0 1-4.89-1.696v4.96c0 .854-.694 1.558-1.535 1.558h-.01c-.841 0-1.526-.704-1.526-1.557V16.777c-.01-.11-.01-.209-.01-.318 0-.1 0-.198.01-.308v-5.953c0-.853.685-1.557 1.526-1.557zm1.545 7.798v.04c.01 2.738 2.191 4.95 4.89 4.95 2.7 0 4.89-2.222 4.89-4.97 0-2.738-2.19-4.96-4.89-4.96-2.699 0-4.88 2.212-4.89 4.94zm50.996-1.786c.802 0 1.457.665 1.457 1.479 0 .813-.655 1.478-1.457 1.478s-1.448-.665-1.448-1.478c0-.814.646-1.479 1.448-1.479zm18.446 3.78v.993l-.01.02v.03l-.01.049-.01.05-.01.03-.01.049-.01.02-.009.03-.02.04-.01.029-.029.04-.01.02-.029.05-.02.039-.019.02-.03.04-.029.039-.039.03-.039.04-.03.03-.038.029-.04.03-.048.03-.02.01-.039.03-.03.01-.038.019-.05.02-.029.01-.039.01-.03.01-.048.01-.03.01h-.048l-.03.01h-.204l-.03-.01-.048-.01h-.03l-.048-.01-.05-.02-.019-.01-.049-.01-.02-.01-.048-.03-.04-.02-.029-.01-.039-.03-.02-.01-.019-.02-.02-.01-.039-.029-.039-.04-.039-.03-.03-.039-.038-.04-.03-.04-.02-.03-.019-.029-.03-.04-.009-.02-.02-.049-.02-.05-.019-.04-.01-.03-.019-.049v-.02l-.01-.05-.01-.029v-.03l-.01-.02v-1.012h-1.163c-.577 0-1.154-.089-1.682-.327-.47-.218-.861-.526-1.145-.972-.283-.447-.4-.943-.4-1.469 0-.526.117-1.032.4-1.478a2.676 2.676 0 0 1 1.145-.972c.528-.239 1.105-.328 1.682-.328h4.381c.577 0 1.155.09 1.683.328.47.218.86.535 1.144.972.284.446.401.952.401 1.478s-.117 1.022-.401 1.469c-.284.446-.675.754-1.144.972-.528.238-1.106.327-1.683.327h-1.163zm-11.962 0v.884c0 .575-.46 1.041-1.027 1.041a1.043 1.043 0 0 1-1.037-1.041v-5.378c0-.576.47-1.052 1.037-1.052h2.181c.577 0 1.164.09 1.692.328.47.218.86.535 1.135.972.293.446.41.952.41 1.478s-.127 1.022-.41 1.469c-.274.446-.665.754-1.135.972-.528.238-1.115.327-1.692.327h-1.154zm11.962-3.75v1.955h1.075c.313 0 .685-.05.94-.258.215-.189.293-.437.293-.715 0-.287-.069-.536-.294-.724-.244-.208-.626-.258-.939-.258h-1.075zm-2.054 1.955v-1.955h-1.076c-.313 0-.695.05-.94.258-.224.188-.293.437-.293.724 0 .278.069.526.294.715.244.208.626.258.939.258h1.076zm-9.908-1.955v1.955h1.066c.323 0 .695-.05.949-.258.215-.189.293-.437.293-.715 0-.287-.078-.536-.293-.724-.254-.208-.626-.258-.949-.258h-1.066zm-12.255 1.131a4.462 4.462 0 0 0 .978-2.788c0-2.42-1.936-4.385-4.323-4.385h-6.631c-.91 0-1.653.744-1.672 1.657v12.591c0 .763.616 1.388 1.369 1.388h7.317c2.591 0 4.694-2.133 4.694-4.762a4.782 4.782 0 0 0-1.73-3.7zm-8.079 5.785V17.61h4.579c1.085 0 1.966.893 1.966 1.994 0 1.102-.88 1.995-1.966 1.995h-4.578zm.656-10.012h3.628c.832 0 1.506.685 1.506 1.538 0 .844-.674 1.528-1.506 1.528h-4.284v-3.066h.656zm-8.822 6.023h-10.231c.538 1.915 2.28 3.334 4.343 3.334 1.496 0 2.905-.516 3.873-1.42a1.624 1.624 0 0 1 2.318.11 1.68 1.68 0 0 1-.098 2.351c-1.565 1.459-3.785 2.292-6.093 2.292-4.304 0-7.795-3.552-7.795-7.907 0-4.356 3.491-7.898 7.795-7.898 3.922 0 7.208 3.135 7.629 7.074.01.09.02.169.02.258 0 .992-.793 1.796-1.761 1.796v.01zm-1.526-2.957c-.704-1.706-2.367-2.907-4.303-2.907-1.937 0-3.6 1.2-4.294 2.907h8.597zm-1.839-7.114c-.988 0-1.79-.813-1.79-1.825 0-1.002.802-1.816 1.79-1.816s1.8.814 1.8 1.816a1.814 1.814 0 0 1-1.8 1.825zm-5.545 0c-.988 0-1.8-.813-1.8-1.825 0-1.002.812-1.816 1.8-1.816s1.79.814 1.79 1.816c0 1.012-.802 1.825-1.79 1.825zm-123.958.834c4.401 0 7.971 3.621 7.971 8.086s-3.57 8.086-7.971 8.086-7.971-3.621-7.971-8.086 3.57-8.086 7.971-8.086zm0 3.125c2.7 0 4.89 2.223 4.89 4.961 0 2.748-2.19 4.97-4.89 4.97-2.7 0-4.89-2.222-4.89-4.97 0-2.738 2.19-4.96 4.89-4.96zM39.307 9.166l.01.01c.02.01.039.03.049.05l4.998 5.288 5.076-5.348a1.746 1.746 0 0 1 1.252-.525c.987 0 1.79.813 1.79 1.815v11.996c0 1.002-.803 1.816-1.79 1.816-.979 0-1.79-.814-1.79-1.816v-7.997l-3.384 3.572-.03.03-.01.01a1.627 1.627 0 0 1-1.007.456h-.225a1.627 1.627 0 0 1-1.007-.457l-.01-.01a.135.135 0 0 0-.04-.03l-3.344-3.541v7.967c0 1.002-.812 1.816-1.79 1.816-.988 0-1.79-.814-1.79-1.816V10.456c0-1.002.802-1.815 1.79-1.815.49 0 .93.198 1.252.525zm104.035-.525c.978 0 1.77.813 1.77 1.795v3.344h3.922c1.878 0 3.326.417 4.333 1.27.998.853 1.506 2.104 1.506 3.77 0 1.776-.557 3.126-1.663 4.058-1.115.933-2.67 1.4-4.684 1.4h-5.184c-.968 0-1.77-.814-1.77-1.796V10.436c0-.982.802-1.795 1.77-1.795zm1.77 7.818v5.14h3.218c.93 0 1.653-.239 2.171-.695.519-.466.783-1.131.783-2.014 0-1.617-.988-2.431-2.954-2.431h-3.218zm13.967-7.818c.968 0 1.77.813 1.77 1.795v12.046c0 .982-.802 1.795-1.77 1.795-.978 0-1.78-.813-1.78-1.795V10.436c0-.982.802-1.795 1.78-1.795zm-26.408 0h5.243c.792 0 1.447.664 1.447 1.478 0 .804-.655 1.468-1.447 1.468h-3.482v10.905c0 .982-.792 1.785-1.76 1.785-.969 0-1.761-.803-1.761-1.785V11.587h-3.462c-.793 0-1.448-.664-1.448-1.468 0-.814.655-1.478 1.448-1.478h5.222zm-56.805 0c.988 0 1.79.813 1.79 1.805v4.356h7.003v-4.356c0-.992.802-1.805 1.78-1.805s1.78.813 1.78 1.805v12.016c0 1.002-.802 1.815-1.78 1.815s-1.78-.813-1.78-1.815v-4.594h-7.003v4.594c0 1.002-.802 1.815-1.79 1.815-.978 0-1.78-.813-1.78-1.815V10.446c0-.992.802-1.805 1.78-1.805z" fill="#59915C"/><path d="M17.668 20.803l-.18-.28.013-.002c.078.13.137.229.167.282z" fill="#FAF4AC"/><path d="M15.133 10.076a31.462 31.462 0 0 0 7.55 12.763H19.66a33.637 33.637 0 0 1-6.853-12.763h2.325z" fill="#F6D24A"/><path d="M18.064 10.076a33.63 33.63 0 0 1-6.831 12.763H8.219a31.46 31.46 0 0 0 7.52-12.763h2.325z" fill="#D25844"/><path d="M22.938 20.038a16.081 16.081 0 0 1-15.004 0v-2.565a14.106 14.106 0 0 0 15.004 0v2.565z" fill="#7EB75F"/><path d="M1.653 18.845l.077-.186.01-.03.004-.047a.033.033 0 0 0 .01-.025l.002-.044-.028-.229a.045.045 0 0 0-.02-.023l-.04-.157-.031-.065a.042.042 0 0 0-.017-.023l-.036-.066-.056-.087a.036.036 0 0 0-.017-.021l-.037-.066-.066-.064-.114-.124-.025-.024-.024-.022-.026-.02-.126-.103-.026-.02-.02-.03-.003.012a.098.098 0 0 0-.023-.023l-.144-.04a.081.081 0 0 0-.025-.012l.037.056-.037-.056-.024-.027a.039.039 0 0 0-.015.014.112.112 0 0 0-.032-.008.04.04 0 0 0-.027-.016l-.045-.007a.038.038 0 0 0-.024-.01l-.045-.003-.163-.006a.379.379 0 0 0-.413.294.133.133 0 0 0-.018.027l-.039.094a.859.859 0 0 0 .098.547l.03.066a.167.167 0 0 0 .019.024c.019.126.123.194.2.277.074.064.155.12.241.168l.096.037.068.022.03.01.115.02h.04l.078.01.118.016.073.02c.005.006.013.01.022.008l.045.007.068.002.005-.001h.042l.048-.001.093-.003a.055.055 0 0 0 .025.01l.062.067.1-.008-.07-.111zm-.342-.87l.024.021-.025-.02a39.3 39.3 0 0 0 .154-.085l-.153.084zm-.523-.527a.302.302 0 0 0-.043-.067l-.03-.067.03.066a.371.371 0 0 1 .043.068z" fill="#3D9354" fill-rule="nonzero"/><path d="M5.22 25.06l-.107-.127-.242-.32-.023-.026-.041-.049-.303-.403-.02-.026-.058-.084a.042.042 0 0 0-.018-.021l-.09-.155-.062-.13a.045.045 0 0 0-.017-.024l-.061-.133-.034-.065a.062.062 0 0 0-.016-.022l-.217-.465-.053-.09-.029-.066-.046-.09-.012.003.012-.003-.016-.04-.046-.091-.047-.205-.005-.046-.006-.044v-.003l-.005-.043v-.003l-.007-.091-.004-.044v-.002l-.006-.04a.041.041 0 0 0-.011-.024l.002-.073v-.001l-.003-.044-.002-.092v-.051l.006-.16a.033.033 0 0 0 .006-.028l-.002-.04v-.002l.007-.048.004-.073v-.087l.014-.07.025-.235.026-.189.023-.023.13-.06.043-.042c.143-.124.286-.247.426-.374a.296.296 0 0 0 .047-.096l.017-.017.063-.036c.047-.066.087-.136.119-.21.04-.127.06-.26.087-.39a.993.993 0 0 0 .05-.468.062.062 0 0 0 .01-.026l-.002-.04v-.002a.765.765 0 0 0-.047-.41.614.614 0 0 0-.5-.515.603.603 0 0 0-.612-.075.244.244 0 0 0-.047.005c-.181.053-.258.213-.35.354-.035.07-.063.142-.084.217a.776.776 0 0 0-.125.403l-.012.073-.027.398.073.361.005.047.03.066.069.177a.039.039 0 0 0 .012.023l.042.065a.047.047 0 0 0 .015.022l.144.194a.062.062 0 0 0 .015.023l.069.132.038.043.043.065.121.105-.006.21-.023.19-.005.047-.005.072-.002.04-.005.052-.002.069.002.042-.003.048.002.05-.003.156.007.137.009.096-.007.068-.024.028-.026-.02-.046-.09-.134-.31-.057-.134-.03-.067a.03.03 0 0 0-.013-.022l-.016-.041a.042.042 0 0 0-.016-.026l-.014-.041-.018-.028-.012-.037-.03-.07a.03.03 0 0 0-.013-.024l-.071-.178a.022.022 0 0 0-.011-.02l-.011-.049-.012-.043-.019.024.02-.024-.062-.182-.036-.11-.046-.134-.042-.115-.022-.066h-.002l-.009-.047-.021-.072-.037-.11L2.682 20l-.01-.042a.023.023 0 0 0-.01-.024l-.014-.047-.026-.069v.003l-.01-.045-.001-.002-.02-.065a89.728 89.728 0 0 0-.064-.231l-.02-.088-.065-.224-.006-.046-.01-.041-.004-.055v-.042h.002l.029-.188.058-.332v-.044.001l.014-.029.001-.042.001-.05a.057.057 0 0 0 .013-.024v-.044.002l.015-.073v.001l.016-.072v.001l.017-.072v.001l.015-.071L2.6 17.9l.021-.071.015-.073.015-.07.005-.052.045-.114.067-.03.088-.01.09-.041.064-.045.044-.043.128-.098.042-.015.152-.222a.09.09 0 0 0 .014-.025l.08-.146a.565.565 0 0 0 .1-.348.508.508 0 0 0-.395-.573h-.043l-.073-.016-.182.025-.137.053-.063.034-.023.023-.025.02-.083.06-.059.075-.065.122-.054.122-.039.05-.03.073-.014.107-.017.153-.01.049a.019.019 0 0 0-.005.023v.04l.003.046.005.046.009.092.008.042c0 .009.005.017.012.021l.014.048a.013.013 0 0 0 .008.016l.023.05a.034.034 0 0 0 .016.022l.038.066.023.023.159.167.003.05-.007.045h-.001a.024.024 0 0 0-.01.025l-.011.069-.003.002-.02.07v.047a.063.063 0 0 0-.013.028l.002.042v.001l-.016.07v.001l.001.046v-.002l-.015.073v.049a.072.072 0 0 0-.014.024v.044-.001l-.016.073-.001.047a.075.075 0 0 0-.012.024l-.002.048a.056.056 0 0 0-.013.024l-.002.046-.046.21-.026-.02a.123.123 0 0 0-.017-.023l-.01-.045-.007-.045-.06-.34v-.004l-.005-.038-.014-.071-.02-.094-.018-.067-.006-.048-.007-.044-.021-.135a.02.02 0 0 0-.01-.02l-.006-.044-.027-.236-.007-.045-.01-.09-.007-.046-.004-.047-.005-.046-.013-.136v-.091l.084-.265.02-.07-.008-.047.027-.025h-.002l.015-.028.02-.068.014-.03.004-.04.01-.012.006-.016.026-.072-.03.025.03-.025.074-.19.034-.094.04-.1.009-.01.002-.014.04-.095.017-.027.06-.163.041-.097h.002l.04-.01h.044l.066-.026c.164-.04.315-.12.44-.232l.023-.024.105-.08-.022-.02.022.019.021-.025.041-.094.04-.095.033-.097a.592.592 0 0 0-.046-.505c-.043-.154-.172-.204-.303-.252a.605.605 0 0 0-.625.501l.007.003c.034-.032.086-.057.101-.097-.015.04-.067.065-.102.097l-.006-.003-.038.097a.447.447 0 0 0-.07.331l.004.048.03.18c.003.01.008.02.015.027l.03-.031.045-.004-.046.004-.03.031.014.04.084.154-.024.073a.027.027 0 0 0-.012.024l-.023.072-.037.096a.03.03 0 0 0-.012.026l-.024.07a.03.03 0 0 0-.014.026l-.112.286-.056.167-.016.03-.008.045a.03.03 0 0 0-.011.023l-.01.05a.02.02 0 0 0-.008.02l-.025.07h.002a.035.035 0 0 0-.012.027.045.045 0 0 0-.018.023l-.007.045.007.002a.086.086 0 0 0-.02.024l-.026.025-.001-.001-.002.002-.026-.067-.004-.047-.004-.046-.004-.178-.016-.148.006-.066.02-.027a.033.033 0 0 0 .022-.016l.021-.032-.024-.02.024.02.022-.025-.022.025-.02.032.063-.041.064-.071.049-.1.008-.01.001-.012.037-.14.011-.073.017-.115.005-.05v-.07l-.004-.18-.008-.048-.025-.067-.015-.09-.084-.155-.03-.066a.543.543 0 0 0-.57-.227.535.535 0 0 0-.42.552l.009.091.005.046.005.046.01.043.05.137.041.108c.001.01.006.019.014.024l.04.065a.04.04 0 0 0 .016.023l.038.064.042.044.086.107.056.085.149.123.071.03.051.028.042.045.013.14.019.228.003.051.034.316.017.14.004.046.006.045.005.046.01-.008.009-.015-.01.016-.009.007.007.043a.012.012 0 0 0 .01.016l-.002.037.002.04.002.003.014.07.013.085.012.093.023.11a.089.089 0 0 0-.009.028l.028.069-.05.007-.043-.046a.125.125 0 0 1 .01-.025l-.042-.038-.038-.042-.066-.09-.042-.047-.04-.057-.048-.045-.022-.025-.087-.104-.034-.043.03-.043.026-.033h.002a.232.232 0 0 0 .062-.237l-.016-.062-.008-.052-.018-.042-.016-.023-.031-.112-.039-.064-.018-.026-.025-.065-.144-.195-.049-.043-.051-.041-.13-.148a.717.717 0 0 0-.39-.195l-.043.002a.503.503 0 0 0-.473.623c0 .1.052.191.138.241l.08.107c.046.104.12.193.213.257l.044.037.023-.016.127.097-.006-.042.006.042.142.089c.01.002.02.007.027.015a.167.167 0 0 0 .026-.013c.005.006.012.01.02.01l.26.048.112-.035c.05.026.098.056.145.089.038.036.075.075.108.116l.063.06.066.088.04.041.066.085.043.052.037.06a.028.028 0 0 0 .015.021l.04.066c0 .009.005.016.013.02l.016.046.029.116.005.046.081.41.002-.002.007.046.023.07v-.004l.006.05-.001-.004.007.048v-.002l.008.046.008.04a.026.026 0 0 0 .01.023l.01.054.014.041v.002l.006.041-.001.005.005.04c0 .009.004.018.011.024l.049.206.008.044.024.111.041.161-.003-.001-.284-.2-.086-.106L2 19.301l-.11-.132-.168-.212-.1.007.149.192.047.044.101.136.006-.013.094.088.11.127.118.107.018.002.134.078-.134-.078-.018-.002-.006.027.197.162.072.064.032.114.016.062.054.161a.06.06 0 0 0 .013.03l.016.085.01.042.028.07h-.003l.035.112.13.405.01.04.019.027h-.002l.012.041a.021.021 0 0 0 .012.022l.014.049h-.001l.01.04c0 .01.005.021.014.027l.035.114a.095.095 0 0 1-.016.023l.027.02a.047.047 0 0 0 .011.02.065.065 0 0 0-.008.028l-.003-.002v.001l-.044-.047-.044-.036-.09-.108a39.474 39.474 0 0 0-.1-.13h-.001l-.063-.084-.038-.044-.066-.084-.152-.173-.006-.048v-.046l-.002-.047a.037.037 0 0 0 .01-.027l.002-.042-.007-.092a91.572 91.572 0 0 1-.022-.23l-.01-.043-.024-.07-.01-.04a.03.03 0 0 0-.014-.026l-.007-.044-.01-.045a.032.032 0 0 0-.015-.022l-.035-.117-.015-.041-.019-.022-.106-.13-.029-.019-.046-.044-.033-.064-.048-.04-.024-.026-.103-.08-.05-.04-.288-.119a.455.455 0 0 0-.35-.031.537.537 0 0 0-.482.238c-.039.051-.067.11-.104.162a.62.62 0 0 0-.032.653l.006.044a.113.113 0 0 0 .021.024l.007.045.03.066c.098.19.26.34.457.423a.162.162 0 0 0 .024.018l.121.059.098.04a.09.09 0 0 0 .023.017l.046-.002.072.019.167.052.047.002.045-.006.14-.013.088-.017.047-.005.045-.003.047-.003.04-.011a.057.057 0 0 0 .025-.015l.045-.011.03-.015.102-.047.023-.02.01-.005.007-.009.12.091.091.11.04.04.065.087.037.043.114.13.104.128.079.11h.015l.06.014-.06-.014h-.015l.062.083.061.062.041.07c0 .007.005.015.012.019l.018.046.018.027.031.062.069.18.029.066.293.617.127.252.012-.011-.012.01.016.037.041.048.117.218.032.064.089.154a.04.04 0 0 0 .017.023l.034.062.02.026.057.087a.033.033 0 0 0 .013.02 267.915 267.915 0 0 0 .143.241l.038.067.118.15.148.195c.003.01.01.017.02.022l.102.133.02.036.207.236.045.065.087.085.09.106.078.045.017-.023-.053-.067zm-.944-6.594zm-.35-.228zm-.948-1.716l.15.125-.15-.125zm-.698.48l.028.022-.028-.022-.01-.01.01.01zm1.086-2.485l.052.042-.052-.042-.022-.021a.226.226 0 0 0 .022.021zm-1.272 2.92l-.026-.02.026.02zm-.02-.225l.005.046-.005-.046-.006-.047.006.047zm-.222-1.58l-.041.05.041-.05zm.193 1.047zm-.517-.808l-.056-.087.057.087.053.088-.054-.088zm.554 1.427l-.024.028.024-.028zm-.442-.38zm.375.921l.1.083-.1-.083zm.341.967l.028-.027.017-.028-.017.029-.028.026zm-.041-.16zm.852 3.066l-.021.025.02-.025z" fill="#3D9354" fill-rule="nonzero"/><path fill="#3D9354" fill-rule="nonzero" d="M2.18 16.62l.013-.028.006-.043-.026.026zm14.354 13.015a.02.02 0 0 0 .018-.01l.048-.018a.03.03 0 0 0 .02-.014l.045-.016.026-.02.155-.082.265-.157a.03.03 0 0 0 .023-.018l.066-.035a.03.03 0 0 0 .024-.016l.088-.053.067-.034a.027.027 0 0 0 .022-.016l.068-.035.166.058.041.007a.07.07 0 0 0 .03.01h.182l.048-.003a.447.447 0 0 0 .315-.122l.09-.054-.004-.006c.026-.04.043-.094.08-.116-.037.022-.054.077-.08.116l.004.006a.605.605 0 0 0 .394-.697c-.069-.122-.138-.242-.298-.259a.592.592 0 0 0-.506.036l-.09.048-.088.055-.086.055-.02.025.02.02-.02-.02a30.24 30.24 0 0 0-.064.117l-.02.027a1.01 1.01 0 0 0-.158.47l-.014.07.007.045-.005.04.002.002-.09.057-.152.085-.023.02-.087.056-.014.004-.009.011-.091.056-.087.048-.177.103-.02.034.02-.034-.067.037-.014.008-.01.013-.04.01-.027.019-.064.03-.026.02.001-.002-.02.03h-.048l-.066.031-.247.126-.09.015-.137.008-.046.004-.047.003h-.046l-.092.005h-.044l-.238.012h-.045a.02.02 0 0 0-.021-.005h-.181l-.048.002-.069-.007-.096-.004-.072-.003-.039.002h-.004l-.345-.004h-.046l-.046-.003a.144.144 0 0 0-.024-.013l-.024-.022.2-.08.044-.009a.06.06 0 0 0 .022-.016l.047-.01a.08.08 0 0 0 .022-.016l.046-.008.07-.029h-.002l.043-.006a.076.076 0 0 0 .022-.017l.049-.009.069-.026h-.002l.045-.006h.001l.067-.028h.001l.041-.004a.062.062 0 0 0 .026-.018l.046-.008.067-.03.001-.003.067-.022c.01 0 .018-.005.022-.014v-.002l.043-.014.05-.004.19.13.027.019.072.027a.034.034 0 0 0 .024.012l.052.014c.004.006.011.008.017.005l.05.006a.03.03 0 0 0 .023.01h.043l.092-.006.047-.002.045-.004.04-.007c.008.003.017 0 .022-.009l.046-.018.149-.04.103-.032.067-.041.044-.047.111-.073.11-.084.063-.07.047-.092.016-.028.019-.026.024-.067.03-.144-.006-.184-.026-.07-.007-.042a.508.508 0 0 0-.63-.297.565.565 0 0 0-.327.155l-.131.102a.083.083 0 0 0-.022.017l-.195.186-.009.045-.076.141-.035.05-.034.07-.025.096.003.09-.018.07-.106.063-.05.014-.067.026-.069.026-.067.032-.046.006-.068.026h.001l-.068.028-.068.027h.001l-.069.027h.002l-.044.007a.058.058 0 0 0-.02.016l-.05.01v-.001l-.042.008-.026.018h.001l-.043.008-.319.11-.18.06-.042.008-.054.005-.043-.003h-.046l-.232-.027-.09-.006-.238-.026-.068-.009h-.001l-.047-.003h.004l-.073-.016-.048-.006a.023.023 0 0 0-.025-.006l-.043-.003-.16-.02-.114-.018-.075-.01h-.048v-.002l-.069-.012-.12-.022-.14-.024-.114-.018-.19-.031-.02.022.02-.022-.044-.004-.05-.003a.022.022 0 0 0-.021-.008l-.187-.042a.03.03 0 0 0-.026-.009l-.074-.018-.039-.005-.03-.015-.043-.007a.04.04 0 0 0-.028-.01l-.043-.01a.031.031 0 0 0-.025-.01l-.07-.018a258.716 258.716 0 0 0-.47-.117l-.094-.031-.025-.023.023-.028.066-.017.097-.007.136-.015.153-.029.05-.005.046-.011h.001l.042-.005.067-.013.051-.013.04-.008.07-.017.045-.013.184-.053.206-.04.124.103.07.032.05.03.14.047c.008.005.016.01.026.011a178.77 178.77 0 0 0 .238.122l.072.031a.04.04 0 0 0 .024.009l.185.039.001-.008v.008l.07.019.047-.003.367.014.39-.09.07-.025a.778.778 0 0 0 .377-.188 1.09 1.09 0 0 0 .2-.118c.125-.113.27-.215.294-.403 0-.015 0-.031-.003-.047a.603.603 0 0 0-.173-.59.614.614 0 0 0-.59-.412.764.764 0 0 0-.41.02h-.002l-.04.005a.065.065 0 0 0-.024.014.998.998 0 0 0-.455.124c-.124.05-.252.09-.37.15a1.103 1.103 0 0 0-.188.15l-.025.069a.12.12 0 0 0-.014.019c-.03.02-.07.034-.088.062-.103.158-.2.32-.3.48l-.035.049-.038.139-.02.026-.182.056-.227.062-.068.026h.001l-.045.007h-.001l-.04.007-.071.016-.047.014h-.002l-.04.005c-.01 0-.02.003-.027.01l-.156.032-.05.01v-.002l-.092.013-.043.005h-.002l-.071.014a.04.04 0 0 0-.025-.008l-.041.002h-.002l-.044.002-.091.008h-.003l-.043.003h-.003l-.044.001-.047.003-.21-.014-.096-.03-.043-.01-.096-.03-.07-.018-.097-.038c-.165-.046-.33-.092-.495-.14a.062.062 0 0 0-.024-.011l-.07-.024-.14-.039a.044.044 0 0 0-.027-.013l-.139-.04-.166-.064a.042.042 0 0 0-.024-.014l-.092-.044-.029-.016-.447-.233-.055-.033-.03-.019-.354-.187a44.934 44.934 0 0 1-.142-.084l-.075-.041-.02.02.057.07.119.072.098.072.071.034.267.166.038.014.149.08a.042.042 0 0 0 .024.016l.217.114.167.092.072.027a159.503 159.503 0 0 0 .26.102c.006.006.014.01.022.01l.096.042.028.015.067.025a.04.04 0 0 0 .026.012l.166.063.068.022.234.08.054.032.038.01.27.085.655.19.07.018h.001l.189.039.065.021.03.013.049.01c.005.007.013.01.02.009l.075.029.072.05.092.049-.002-.015-.025-.057.025.056.002.016.12.06.143.082.148.091.048.03.095.05.048.033.122.073.11.103-.008.008-.003.01-.017.027-.03.109-.01.031-.003.046a.057.057 0 0 0-.01.028l-.005.041.005.046.004.045.002.047-.002.09.01.14v.046l.01.045.079.157.03.069v-.001l.005.046a.086.086 0 0 0 .02.02l.056.09.078.11a.174.174 0 0 0 .021.02.91.91 0 0 0 .491.384l.071.02.046-.002a.112.112 0 0 0 .026.017h.044v-.001a.62.62 0 0 0 .64-.136c.045-.046.099-.083.143-.13a.534.534 0 0 0 .157-.514.456.456 0 0 0-.087-.34 82.16 82.16 0 0 1-.164-.266l-.047-.042-.096-.088-.03-.02-.046-.04-.069-.024-.051-.038-.024-.025a66.975 66.975 0 0 0-.144-.084l-.025-.015-.043-.008-.122-.016a.032.032 0 0 0-.024-.012l-.045-.002h-.046a.03.03 0 0 0-.027-.01l-.042-.003-.073-.013-.044-.001-.23.014-.092.008-.04.01c-.01 0-.02.005-.026.013l-.047.005-.044.008-.049.002-.196-.122-.092-.052-.05-.03-.093-.048a56.272 56.272 0 0 0-.145-.08l-.12-.07-.044-.038-.053-.036v-.001l-.001-.002a.068.068 0 0 0 .026-.013.048.048 0 0 0 .022.008l.023.023a.096.096 0 0 1 .02-.02l.118.017a.033.033 0 0 0 .03.01l.04.003v-.001l.05.006a.03.03 0 0 0 .025.009l.043.004-.001-.001.03.014.04.003.42.064.117.015v-.002l.073.016.044.003.086.003c.01.005.02.008.031.008l.168.026.064.006.118.014.075.06.19.17.026-.012-.004-.017-.099-.12.1.12.003.017.125.1.144.088.101.078-.011.008.15.078.052.04.212.116-.008-.1a85.63 85.63 0 0 0-.237-.131l-.148-.088-.01.077.01-.077-.1-.073-.117-.068-.244-.248-.001-.003.165.015.113.006h.045l.212.015a.034.034 0 0 0 .026.007l.04-.001.004-.002.041-.001h.003l.043.007.054.001a.027.027 0 0 0 .025.006l.04.002.048.001h-.003l.048-.001.043-.002.072.011h.047v.002l.417.014.046-.002.12.01.046.008c.006.007.014.01.023.01l.071.028a.028.028 0 0 0 .023.012l.066.027.057.034.095.052.047.032.098.051.07.053c.045.026.09.055.131.088.04.04.077.083.111.128l-.016.116.089.25a.027.027 0 0 0 .013.018.16.16 0 0 0-.009.027c.01.006.016.014.02.024l.11.126h.042-.042l.116.11-.011.026.043.036a.6.6 0 0 0 .288.169l.118.062a.276.276 0 0 0 .26.098.503.503 0 0 0 .539-.567l-.005-.044a.718.718 0 0 0-.256-.353l-.166-.104-.05-.044-.05-.041-.215-.11-.069-.016-.028-.013-.069-.028-.116-.013-.025-.012-.045-.01h-.053l-.063-.005a.232.232 0 0 0-.223.099v.001l-.03.032-.036.035-.049-.026-.116-.07-.028-.016-.053-.04-.063-.03-.053-.035-.099-.05-.047-.03-.044-.036a.127.127 0 0 1-.024.013l-.052-.035v-.05l.071.016a.096.096 0 0 0 .026-.013l.113.005.094-.003h.085l.072.002.004.001.04-.005.035-.007a.012.012 0 0 0 .018.007h.044l.005-.01.014-.012-.014.011-.005.01.045-.002.046-.001.046-.004.141-.005.317-.018.051-.004.228-.019-.004-.014v-.036.036l.004.014.14-.009.051.034.036.046.041.065.146.127.093.041.12.068.049.035.07.027a.04.04 0 0 0 .026.012l.07.028a.03.03 0 0 0 .025.01l.114.023.143.029.044.002.046-.002.046-.003.092-.006a.535.535 0 0 0 .477-.503.542.542 0 0 0-.316-.526l-.07-.019-.167-.058h-.091l-.07-.014h-.05l-.177.024-.07.012-.047.013-.111.035-.07.023-.133.058-.012.004-.009.01-.09.063-.06.075-.03.07a.032.032 0 0 0-.012.023l-.023.026-.064.016-.15.008-.176.025-.045.003-.048.004-.07-.015.002-.001-.001-.002.02-.03a.087.087 0 0 0 .02-.024l.004.007.043-.013a.044.044 0 0 0 .02-.022.034.034 0 0 0 .025-.016v.001l.065-.036zm1.726-1.48a.225.225 0 0 1-.025-.018l-.05-.045.05.045a.191.191 0 0 0 .025.018zm.052.09h-.002.002zm-3.84-.062zm-4.444.884v-.01.01zm1.117.45l.021-.024-.021.025zm3.042.276l.025-.021-.025.02-.022.033.022-.032zm.126.11l.025.024-.025-.024zm.861.103l-.098-.086.098.086zm.4-.155l-.015.012.023.022-.023-.022-.023.026.023-.026.015-.012zm1.805-.04l-.043.048.043-.049zm-.184.357l-.095-.039.095.04.095.041-.095-.042z"/><path d="M14.218 30.647l.012.093.006.047.007.042v.005l.013.066.014.044c0 .008.004.016.012.02l.03.069.036.113.022.075.007.04.038.11.015.03.032.062.053.09c.06.077.128.148.204.21.094.062.178.154.306.153a.186.186 0 0 0 .027.015l.07.019a.858.858 0 0 0 .555.008l.086-.053a.134.134 0 0 0 .024-.023.379.379 0 0 0 .224-.455l-.032-.16-.01-.043a.038.038 0 0 0-.015-.022l-.013-.044a.04.04 0 0 0-.02-.024.118.118 0 0 0-.014-.03.039.039 0 0 0 .011-.017l-.03-.02a.083.083 0 0 0-.016-.022l-.062-.136a.098.098 0 0 0-.026-.019l.01-.004-.031-.016-.025-.023-.123-.107-.023-.023-.026-.02-.027-.02-.141-.093-.074-.055-.071-.026a.037.037 0 0 0-.024-.013l-.094-.041-.072-.025a.042.042 0 0 0-.025-.013l-.069-.02-.161-.015a.046.046 0 0 0-.027-.016l-.23.01-.043.01a.033.033 0 0 0-.023.013l-.045.012-.029.014-.17.106-.122-.051.008.1.076.05a.055.055 0 0 0 .015.023zm1.614.538l.07.02-.07-.02zm-1.402-.575l-.024-.021-.024-.02.024.02.024.02zm.724.113l.058-.165-.058.165-.025-.02.025.02zm1.243-1.077l.021-.03-.041.013-.027.018zm-2.22.272h-.004z" fill="#3D9354" fill-rule="nonzero"/><path d="M7.922 26.157c-.087-.035-.154-.114-.255-.119l-.014-.008-.037-.005-.138-.031-.17-.013a.236.236 0 0 0-.17-.013l-.013-.008-.037-.005-.073-.008-.184-.022-.023.004c-.042-.003-.085-.004-.127-.008-.03-.003-.061-.01-.092-.016l-.005-.024.055-.022.078-.029.022-.006c.04-.018.08-.035.118-.055a.235.235 0 0 0 .042-.037l.055-.022.064-.039.009-.012.023-.006.054-.027.01-.01.021-.007.02-.023.021-.01.012-.01.03-.02.01-.012a.724.724 0 0 1 .086-.042.237.237 0 0 0 .124-.098l.032-.019.01-.013.072-.05a.359.359 0 0 0 .065-.045c.04-.043.075-.09.112-.136.008-.003.018-.004.022-.01.1-.113.184-.24.25-.377a.414.414 0 0 0 .015-.078l.025-.313.004-.064a.17.17 0 0 0-.01-.165.504.504 0 0 1-.096-.157.396.396 0 0 0-.116-.136 1.743 1.743 0 0 0-.183-.124.111.111 0 0 0-.039-.007l-.051-.014-.036-.004-.064-.02-.037-.007a.17.17 0 0 0-.06-.02c-.107.007-.214.019-.32.028l-.088.04-.055.024-.022.006-.032.017-.023.006-.01.013-.086.043-.1.092-.074.05-.022.005-.165.01-.083.006-.04.033-.042.032-.026.039a.363.363 0 0 0-.132.137c-.042.05-.102.09-.104.165l-.046.07-.007.014-.02.028-.03.077-.032.101-.005.014-.069.133-.01.014-.036.032.032-.114.02-.065v-.023l.014-.028.014-.074.012-.028.008-.014v-.022l.029-.137.034-.199.014-.026.004-.06.005-.014.01-.073.008-.014.015-.11.008-.014.004-.096a.488.488 0 0 0 .004-.275l.008-.015-.005-.022-.015-.188c-.023-.094-.045-.189-.072-.282a.31.31 0 0 0-.049-.075.555.555 0 0 0-.235-.257.126.126 0 0 0-.047-.007l-.014-.009c-.076-.013-.153-.029-.23-.04-.062-.008-.125-.011-.187-.017l-.023.005-.01.013a.194.194 0 0 0-.2.066l-.023.005-.01.013a.105.105 0 0 0-.095.056.821.821 0 0 0-.187.23c-.003.006 0 .016 0 .024l-.018.087.005.023-.027.101-.064.036-.105.01-.132.053-.042.03-.137.088-.145.163-.018.028c-.016.06-.073.108-.06.18a.389.389 0 0 0-.006.192l.004.022.005.023.005.083-.014.05a.58.58 0 0 0 .025.293l.005.023.028.078.025.054.01.01.006.023.044.086.044.051.017.033.022.03.015.01.022.018.078.067.013.01.042.027.18.118.072.067-.013-.005-.042-.027-.023.002-.023.003-.041-.024-.05-.017-.12-.054-.051-.018-.014-.006a.834.834 0 0 1-.096-.014c-.047-.012-.093-.03-.139-.045l-.104-.086c-.035-.024-.069-.05-.115-.036l-.124-.022h-.12l-.023.005-.013-.008a.729.729 0 0 0-.444.162.173.173 0 0 0-.114.144l-.008.013.004.023a.307.307 0 0 1-.027.069.12.12 0 0 0-.017.101c.006.026.003.054.007.081a.313.313 0 0 0 .016.052l.047.11v.06l-.054.201-.063.157.006.142-.009.133a.377.377 0 0 0 .044.284c.021.06.064.111.12.141.011.005.02.012.024.022.034.068.103.11.178.11l.11.013c.03.021.057.029.083-.005l.165-.01.169-.048a.288.288 0 0 1 .156-.056l.022-.004.023-.005.033-.018.022-.005.032-.02.033-.017a.192.192 0 0 0 .14-.067l.033-.015.022-.008.142-.065.092-.077.032-.018.032-.018.03-.02.207-.162.065-.035c.026-.008.05-.013.063.02l.03.043-.028.02-.043.026-.082.068-.084.044-.059.079-.04.031-.03.023-.02.023-.053.029-.056.08-.03.021-.009.012-.029.043-.028.037-.04.036-.063.096-.055.083-.032.017a.167.167 0 0 0-.139.12.436.436 0 0 1-.034.062.51.51 0 0 0-.089.206c-.001.015-.008.04-.017.043-.05.015-.052.058-.066.096a.393.393 0 0 0-.022.302l.015.069.082.158a.496.496 0 0 0 .164.16l.04.028a.785.785 0 0 0 .24.216.093.093 0 0 0 .033.003l.037.005.027.017.007.005.007.004c.068.043.147.016.22.03a.508.508 0 0 0 .096 0c.034 0 .068.002.102 0a.529.529 0 0 0 .063-.01l.092-.019a.311.311 0 0 0 .201-.065.493.493 0 0 0 .317-.268c.04-.06.07-.127.088-.198.014-.043.03-.085.041-.128a.132.132 0 0 0-.005-.046.134.134 0 0 0 .022-.124l.027-.101a.154.154 0 0 0 .02-.113.21.21 0 0 1 .004-.07l-.001-.061.01-.17-.013-.008.014-.11.006.005.007.003.044.05.04.065.047.073.022.032.12.118.059.06c.038.04.08.079.114.123a.704.704 0 0 0 .192.16c.078.048.16.092.242.135a2.1 2.1 0 0 0 .217.063.681.681 0 0 0 .325-.003.602.602 0 0 0 .266-.102.365.365 0 0 0 .249-.2.197.197 0 0 0 .01-.045c.008-.022.018-.044.025-.067.007-.028.012-.057.018-.085l.067-.072.127-.075.04-.033.01-.012.082-.066a.502.502 0 0 0 .131-.23c.08-.1.114-.228.094-.354a.715.715 0 0 0-.183-.388zm-.015.178l.007-.003-.007.003zm-2.285.38l-.024.002-.022.005-.016-.005-.08-.06.005-.013-.006-.02-.01-.012.01-.013.002-.039a.029.029 0 0 0 .01-.013.014.014 0 0 0 .01-.008l.02-.012.004.004.02-.026.01.006h.002l.009-.012h-.001l.037.003.018.006-.006.005.028.017.013.01.015.007-.007.014.01.01-.01.01-.001.018.011.004.009.015-.006.011.011.011-.045.066.006.004a.025.025 0 0 0-.013.01l-.013-.005zm-.9-.14l-.001.003.002-.01v.002-.002c.015.003.03.003.045-.002l-.046.01zm-.1-1.29H4.62l-.08-.052c.026.017.053.035.08.051a.296.296 0 0 1 0-.001l.019.034c-.006-.011-.012-.023-.019-.033zm.945.817L5.51 26.1c-.034-.008-.062-.02-.068-.06l-.003-.043.005-.015-.01-.008.02-.027.003-.013.002-.022.008-.015.018-.028.03-.02.033-.016.023-.006.021-.001a.02.02 0 0 1 .014.007l.015.007.034.04.014.009-.002.098.01.008-.008.014.01.012-.005.012-.009.014-.022.025-.043.011-.01.01-.012-.005-.01.013zm-.197.02zm-.438.136l.018-.027a.023.023 0 0 1 .01-.012l.008-.015.045-.009c.004 0 .007 0 .01.003a.064.064 0 0 1 .076.015l.02.029.001.002.004.021-.024.063-.013-.004a.024.024 0 0 1-.01.01l-.008.015-.023.005-.013-.009-.01.01-.029-.013-.007.012-.016-.009-.026-.017-.012-.011.007-.013.001-.035-.01-.01zm.615-1.058l-.007.014.007-.014-.012-.01.012.01zm.269 1.007l-.044-.025a.02.02 0 0 0-.008-.011l.005-.014-.009-.046.043-.03.02-.008c.075.012.082.021.078.091l-.02.026-.007.012-.013-.005-.01.01h-.035zm-.377-.468a.096.096 0 0 1-.048.09c-.045.039-.087.01-.129-.008l-.023-.03-.01-.01.004-.015-.013-.009.005-.014-.003-.046.007-.011.047-.05.013-.012.011.005a.035.035 0 0 1 .013-.01l.008-.014.036.005.068.046.014.008v.075zm-.513-.263l-.007-.01a.09.09 0 0 0-.04.005l.04-.01v.005c.036.02.036.02.047.07-.01-.044-.014-.05-.04-.06zm.068-.818l-.065.034.065-.034zm.283.68l.01-.013-.01.014zm-.541-.987l.002.002c.012.016.054.012.032.056.02-.041-.014-.04-.03-.052l-.002-.004a.5.5 0 0 0-.049-.015l.047.013zm.137.701l.008.047-.01.013.01-.013-.008-.047zm.15.554l-.01-.045-.01-.011.011-.025.025-.066.024-.007a.023.023 0 0 1 .01-.01l.01-.014.01.005.011-.01.013.01.026-.003.047.072.007.02.005.024.006.024-.012.012-.027.038-.013-.005-.01.011-.022.008-.037-.004-.01.01-.04-.028v.005l-.014-.01zm.39-.47c-.003-.009.012-.021.02-.032-.008.01-.023.024-.02.032zm1.678-.464l-.008-.006a.92.92 0 0 0-.043-.045l.043.044.008.007zm-.334.26c.008.03.018.036.038.036l.007.006c-.004.019.014.031.033.043l-.055-.036-.037-.005a.19.19 0 0 0 .059-.002c-.033 0-.033 0-.045-.041zm-.536.75l-.01.012-.014-.005-.04.03-.014-.009-.01.01c-.017-.013-.038-.023-.048-.04-.016-.029-.02-.06.024-.074l.01-.012.023-.004.013.008.064.024.004.023-.005.013.011.01-.008.014zm.011 1.155l-.046.01.046-.01zm.2-.245l-.027-.077-.071-.069.07.069.028.077zm-.313-.58a.032.032 0 0 0-.006.015l-.018.023-.014-.002-.05.043-.01.01-.012-.008a.015.015 0 0 1-.014-.003l-.011.01-.026-.018.004-.014-.024-.018-.046-.013-.01-.022-.001-.002.008-.036.05-.045.008-.014.023-.005.078-.012.013-.007.035.04.015.032-.003.015.01.007-.008.013.009.01zm-.01.11l-.024.005.023-.005zm-.378-.328l.005-.016.007.006.034-.058-.007-.001.023-.025.014.004.01-.01.013.006.01-.01.04.026.026.02.024.027.005.026.01.009-.005.013-.002.022-.004.017-.012.011-.018.028-.008.015-.036.014a.02.02 0 0 0-.012-.003l-.05-.014-.024-.02.005-.013-.028-.016.004-.004-.015-.008-.007-.02v-.003l-.002-.023zm.086-.298l-.008-.006h.001l.007.006zm.09.119l.017-.03.004.004.031-.019a.053.053 0 0 1 .037.062c.009.044-.034.031-.05.046l-.027-.018-.013-.045zm.228-.196l.002.002v.002c-.001-.003-.003-.002-.006.002l.004-.006zm.255-.266c.012 0 .023.003.033.008a.076.076 0 0 0-.033-.008zm-.03.046c.005-.03.008-.045.016-.05-.008.005-.011.02-.017.05zm-.715.244l.013.01.053.033-.005.015.006.022.004.049-.026.037-.015.029-.014-.005-.01.01-.022.006-.014-.01-.012.01-.012-.006-.045.01-.012.01a.016.016 0 0 0-.013-.002l-.06-.063v-.02a.03.03 0 0 1 .005-.015l-.008-.009.016-.027.016-.028.03-.025.012-.007.053-.026.037.007a.011.011 0 0 1 .011.003l.012-.008zm-.152-.1l.046-.07-.046.07zm-.366-2.102c.02.035.066.032.095.049-.03-.017-.076-.014-.095-.049zm-.364 2.49l.017-.027.019-.026.037.005.022-.006.032.04h-.003l-.018.004-.001.001-.009.074-.032.019-.073-.07.009-.013zm.18.119l.007-.014.02-.085.076-.028.055.035.02.031.012.01-.014.05a.023.023 0 0 1-.009.012l-.035.056-.022.006-.014-.009-.011.011-.026-.016-.06-.06zm-.36 1.268l-.091.029c.038-.012.04-.057.031-.089.006.03.03.054.06.06zm.741-.62l-.025.042-.002-.004-.02.01h-.036l-.01.009-.029-.017-.027-.02-.018-.068-.009-.01.01-.013c0-.006.004-.01.009-.013l.006-.017.012-.011.035.001.088.019.022.056-.006.035zm.033-.495v.021l-.015.09.001.002v-.003l-.033.018-.011-.006-.03.04-.045.008-.01.015c-.039.005-.074 0-.093-.042l-.005-.02v-.002l.008-.012-.008-.01.024-.04.024-.007.001-.038-.01-.008.024-.042L5.14 26l.04-.033.01-.013.023-.005.037.005.045-.01.044.025.024.02-.006.014zm.27.159l-.007.003.007-.003zm.354.154l.004-.013a.03.03 0 0 1-.007-.014l-.004.009-.008-.017a.02.02 0 0 0 .003-.014l.002-.023a.016.016 0 0 0 .004-.012l.01-.013.046-.01.022-.002.03.013.012.013.01.045-.011.013-.017.028-.009.014-.022.006-.013-.005-.01.009-.03-.016-.012-.011zm-2.71-.06l-.006-.006.006.005zm2.264.142a.017.017 0 0 0-.011.007l-.015-.002-.008.013-.001.001-.021.004h-.002l-.022.004-.013-.008-.013.01-.023-.02-.003.005c-.023.007-.038 0-.041-.026l-.01-.014a.031.031 0 0 1-.015-.007h-.003.003l.006-.012-.01-.018-.003.01-.008-.01.004-.016-.011-.01-.006-.021.007-.014-.012-.01.004-.037.008-.01.038-.037a.027.027 0 0 0 .011-.01l.015.007.01-.01.013.006.103-.012h.003l.022-.003.029.014.014.011.025.023.002-.006.013.01.004.025.011.012-.006.011v.06l-.025.042-.01.011-.015-.003-.006.013-.011.009-.021.008zm.112.035l-.005-.023.008-.014-.01-.01.005-.014.017-.03.005.004.01-.013-.007-.003.059-.023.046-.009.014.009.01-.01.012.007.01-.01.012.007h.018l.005-.01h.002l.042.026a.03.03 0 0 0 .01.012l.005.025-.006.013.011.01a.029.029 0 0 1-.01.011l-.003.017.002.022.01-.013h-.001l.02-.008.011-.01.023-.008.002.004a.027.027 0 0 1 .008-.013l.013.006.01-.01.084.048.004.025.005.022-.016.05-.032.059-.026.003-.021.001-.056-.034-.017-.006.004-.005-.027-.02-.008-.019-.012-.009.006-.035c-.001-.005 0-.01.003-.013l-.037.032-.001-.004-.01.016h.005l-.015.012-.006.012-.024.008-.013-.006-.01.009v.002l-.014-.006-.012-.014-.042-.021-.01.009-.015-.005-.027-.022.004-.013-.022-.018zm.116.214l-.019-.032.02.031.027.08-.028-.08zm.234.425L6 27.07a.05.05 0 0 0 .033.012l-.037-.004-.009.014.01-.02zm1.107.232c.032 0 .048 0 .057.006-.009-.007-.025-.007-.057-.006zm.429-.749a.238.238 0 0 1 .108.071l.008.018a.139.139 0 0 0-.07.01l.055-.024a.155.155 0 0 0-.101-.075zm-.952-.28l.007-.003-.007.003zm-.939-1.31l-.05.106h.002-.003l.051-.106zm-2.521.238V25.2v.003zm4.422-.574l.099.03-.099-.03zM5.17 22.855l-.122-.037-.003.007.002-.007.123.037zM3.282 25.25c.056.017.062.007.067-.006l-.015.043.083.055a1.816 1.816 0 0 0-.112-.068.107.107 0 0 1 .021.05.102.102 0 0 0-.023-.051l.002.001a.182.182 0 0 0-.023-.024l-.006-.003a.27.27 0 0 0-.04-.03.113.113 0 0 1 .046.032zm-.426.076l.01.01-.01-.01zm1.862 1.253h.002l-.007.01.005-.01zm-.157.03l-.068.014.068-.014zm1.968-.645h-.001l-.12-.018.12.018zm-.883-1.035l.023-.005-.023.005zm-.803 1.134h-.12.12zm1.803-.108z" fill="#F7B621" fill-rule="nonzero"/><path fill="#F7B621" fill-rule="nonzero" d="M5.535 26.398l.02-.008-.012-.005z"/><path d="M10.349 28.734a1.736 1.736 0 0 0-.09-.202c-.006-.01-.02-.018-.03-.027l-.036-.038-.028-.024-.044-.05-.028-.025c-.013-.017-.023-.04-.04-.049-.095-.05-.192-.097-.287-.145l-.096-.012-.059-.009-.022-.007-.036-.002-.023-.007-.014.006-.096-.01-.135.026-.088.004-.022-.008-.145-.08-.074-.038-.052.007-.052.006-.043.018a.367.367 0 0 0-.184.048c-.062.02-.134.022-.176.085l-.076.035-.013.008-.03.013-.068.05-.08.069-.011.009-.13.077-.015.005-.048.009.087-.08.052-.045-.006-.014.006.014.011-.02.027-.015.052-.056.025-.017.013-.008.013-.019.096-.101.135-.151.025-.014.035-.05.011-.008.048-.057.014-.008.07-.086.015-.007.054-.08a.488.488 0 0 0 .148-.232l.015-.007.008-.022.087-.167c.029-.092.06-.184.087-.278a.307.307 0 0 0-.002-.09.555.555 0 0 0-.064-.342c-.006-.013-.023-.02-.035-.03l-.008-.015c-.058-.052-.114-.106-.174-.155-.048-.04-.1-.076-.15-.114l-.022-.008-.015.006a.194.194 0 0 0-.205-.05l-.022-.008-.015.007a.106.106 0 0 0-.111-.004.824.824 0 0 0-.28.097c-.006.003-.009.013-.013.02l-.06.065-.01.021-.076.072-.072-.003-.095-.047-.14-.025-.051.003-.163.003-.21.062-.03.014c-.046.043-.12.053-.145.12a.391.391 0 0 0-.108.16l-.008.022-.008.022-.039.073-.038.035a.58.58 0 0 0-.134.263l-.008.021-.018.081-.007.06.004.013-.007.023-.009.096.011.067-.003.036.002.037.008.016.01.028.03.098.006.016.022.045.09.194.026.096-.009-.012-.021-.045-.02-.01-.022-.01-.022-.041-.034-.042-.072-.109-.035-.042-.008-.012a.828.828 0 0 1-.075-.063c-.033-.035-.062-.074-.094-.111l-.043-.128c-.017-.04-.031-.08-.078-.092l-.094-.084-.101-.063-.023-.008-.007-.014a.73.73 0 0 0-.462-.097.173.173 0 0 0-.173.062l-.014.007-.009.021a.296.296 0 0 1-.059.045.12.12 0 0 0-.067.077c-.01.025-.027.047-.037.072a.313.313 0 0 0-.015.052l-.017.118-.032.051-.153.143-.135.1-.07.123c-.027.036-.052.073-.078.109a.376.376 0 0 0-.113.264.254.254 0 0 0 .028.184c.006.01.01.02.008.031a.196.196 0 0 0 .093.187l.087.07c.013.032.033.054.072.039l.146.078.168.05a.289.289 0 0 1 .162.034l.022.009.022.007.037.002.022.008h.037l.037.003a.192.192 0 0 0 .155.017l.036.004.022.005.155.02.12-.016h.035l.037.003.037-.002.26-.028.074.005c.027.006.05.015.043.05l.003.052-.034.002h-.05l-.106.015-.095-.008-.09.036-.051.006-.039.003-.028.01-.06-.004-.09.037-.037.004-.014.005-.047.02-.044.018-.053.009-.104.048-.09.042-.037-.003a.167.167 0 0 0-.181.029.416.416 0 0 1-.062.034.51.51 0 0 0-.184.128c-.01.012-.027.03-.037.027-.05-.013-.075.023-.107.046a.393.393 0 0 0-.178.246l-.023.066-.014.178c0 .077.018.154.053.223l.02.044c.008.11.039.215.09.311.005.009.017.013.026.02l.029.023.014.029.003.007.004.008c.036.072.116.092.171.142.025.02.053.037.082.05a.54.54 0 0 0 .146.078l.087.034a.31.31 0 0 0 .205.05c.14.042.29.02.411-.06a.615.615 0 0 0 .18-.121c.034-.029.07-.056.102-.087a.132.132 0 0 0 .02-.042.134.134 0 0 0 .084-.094l.077-.072a.155.155 0 0 0 .076-.085.206.206 0 0 1 .04-.057l.031-.053.1-.137-.008-.015.07-.086.003.007.004.007.01.066v.075l.002.087.002.04.04.162.018.083c.01.055.026.109.031.164a.701.701 0 0 0 .08.237c.04.083.087.164.134.244a.473.473 0 0 0 .06.074l.09.094a.682.682 0 0 0 .278.169.6.6 0 0 0 .28.053.364.364 0 0 0 .316-.038.204.204 0 0 0 .033-.032c.019-.015.039-.029.056-.045.021-.02.04-.041.06-.062l.095-.026.148.004.052-.007.015-.005.104-.013a.503.503 0 0 0 .233-.126.456.456 0 0 0 .266-.25.715.715 0 0 0 .05-.426c-.055-.077-.07-.179-.154-.236l-.008-.015-.028-.024-.101-.1a41.047 41.047 0 0 0-.137-.1.236.236 0 0 0-.138-.1l-.007-.014-.029-.024-.058-.045-.144-.116-.022-.009c-.034-.024-.07-.048-.103-.074-.025-.019-.047-.041-.07-.062l.008-.024.058.011.082.017.022.006c.043.006.086.013.13.016a.254.254 0 0 0 .054-.009l.059.01h.074l.014-.005.023.008.06.005.014-.003.022.005.03-.009.022.004.016-.004.036-.001.014-.004a.727.727 0 0 1 .096.01.24.24 0 0 0 .156-.018h.038l.015-.005.088-.005a.43.43 0 0 0 .08-.004c.056-.015.11-.037.166-.056.008.002.017.006.024.004a1.7 1.7 0 0 0 .411-.189.412.412 0 0 0 .054-.059l.187-.252.037-.052a.17.17 0 0 0 .078-.145.506.506 0 0 1 .002-.184.394.394 0 0 0-.026-.177zm-.66.53l.068.076v.002a1.787 1.787 0 0 0-.068-.078zm-1.74 2.074c-.004-.01-.018-.019-.045-.035.027.016.04.024.045.035zM6.26 29.427v.001l-.01.005.01-.006zm.01-.007c.01.01.024.019.038.022l-.044-.016-.002.001.007-.007-.001.001.001-.001zm.591-1.144l-.001.001-.04-.087c.013.03.027.058.041.086a.316.316 0 0 1 .001 0l-.002.038.001-.038zm2.417.775a.885.885 0 0 0-.012-.06l.013.06h-.001l.003.01-.003-.01zm-.424.108l-.029-.023a.192.192 0 0 0 .051.029c-.028-.017-.028-.017-.016-.059-.008.03-.004.04.014.05l.002.009c-.013.014-.004.034.006.054l-.028-.06zm-.484-2.35c-.002.04.04.062.055.091-.016-.03-.058-.052-.055-.091zm-1.346 2.886l-.014.007-.02-.008h-.002l-.02-.008h-.001l-.007-.014h-.015l-.01-.028-.005.003c-.024-.006-.031-.02-.021-.044l-.001-.017a.032.032 0 0 1-.01-.014h-.002.003l.011-.007.001-.02-.008.006c.001-.004 0-.008-.001-.012l.012-.011-.005-.015.007-.021.013-.008-.005-.015.023-.029.013-.005.05-.011c.006 0 .01 0 .016-.002l.008.013.014-.004.008.013.094.044.003.001.02.01.017.027.006.017.01.033.004-.004.006.016-.01.023.003.015-.011.006-.02.034-.013.018-.042.022-.015.004-.01-.01-.012.007c-.005 0-.01 0-.015.002l-.021-.004a.018.018 0 0 0-.013 0l-.012-.01zm-.187-.443v-.001l.014-.006a.04.04 0 0 0-.002-.013l.042-.02.023.006.022-.032-.005-.012.043-.023-.05.007.05-.007.016-.005.022.007.03.024.042.016.025.044.01.03-.013.008-.012.018-.059.069v.002-.003L7 29.36l-.007-.01-.045.017-.044-.017-.015.008c-.037-.017-.064-.039-.058-.085l.007-.02zm.35.479l.017-.006-.005-.006.062.01.044.018.007.014.013-.002.008.012.014-.004.006.013.015.009.01-.005h.002l.021.045c0 .005 0 .01.002.015l-.009.024-.011.008.004.014-.015.004-.01.013-.011.02.014-.006.022.004.014-.003.024.005v.004a.026.026 0 0 1 .013-.007l.008.012.014-.003.046.085-.01.024-.008.021-.04.035-.058.032-.024-.01-.018-.011-.03-.059-.01-.013.006-.003-.013-.03.003-.021-.006-.014H7.3l.022-.027a.016.016 0 0 1 .01-.01l-.048.008v-.004l-.016.009.003.003-.018.002-.012.007-.024-.006-.007-.012-.015.002v.002l-.008-.013-.004-.018-.024-.04-.013.002-.01-.012-.012-.032.01-.01-.009-.027h.001l.008-.022.013-.007-.003-.015.012-.008.03-.017.002.007zm-.201-.712a.023.023 0 0 1-.015.006l-.059.029-.022-.008-.007-.014-.015.003-.014-.027-.02-.082.014-.007.062-.062.08.016.028.06v.036l.006.015-.038.035zm.265.534l-.007-.001.007.001zm.43.22l-.022-.008.022.008zm.027.57l.017-.08-.023-.095.023.095-.017.08zm-.046-.452h.001zm.108-.284l-.004.035-.011.012.005.01-.013.008.002.013a.03.03 0 0 0-.013.01l-.029.01-.01-.009-.066.01-.013.003-.006-.013a.015.015 0 0 1-.01-.01l-.015.002-.012-.028.01-.01-.01-.028-.033-.035.003-.024v-.003l.026-.025.067-.012.014-.008.022.009.073.03h.015l.008.053zm-.236-.311l.013-.011.002.008.06-.03-.005-.006.032-.008.01.01.014-.004.008.012.013-.002.021.044.011.03.006.035-.01.025.006.013-.013.008-.013.018-.012.012c-.002.012-.013.02-.021.03.008-.01.02-.018.021-.03l-.016.003-.03.014-.015.009-.037-.007-.01-.009-.034-.038-.01-.03.01-.009-.015-.028h.006l-.009-.016.006-.021v-.002l.011-.02zm.227-.216l.003.008-.003-.008zm-.109-.113l.027.057-.011.01-.007.021-.022.044-.042.018-.028.016-.01-.011-.013.004-.022-.008-.022-.013-.007-.012-.044-.015-.015.003a.017.017 0 0 0-.01-.01l-.018-.084.01-.018a.03.03 0 0 1 .013-.01c0-.004 0-.008-.002-.011l.028-.015.029-.015.038-.006h.014l.059.006.028.026a.013.013 0 0 1 .007.008h.015l.005.015zm-.144-1.026l-.073-.005.073.005zm.137.611c-.012.005-.031.008-.034.016.003-.008.023-.01.034-.016zm-.262.103l.006.014.015-.006-.014.006-.007-.014zm-.204-.399l.018-.043-.018.043-.015.006.015-.006zm.338.61c.015.03.037.02.059.009l-.007-.016.007.016c-.022.01-.044.02-.06-.01zm.053-.08l.076-.034-.076.034zm-.549-.202l-.003.004c.02.036.02.036.003.084.015-.042.014-.05-.002-.072v-.012a.11.11 0 0 0-.038-.017l.04.013zm.017.194l-.006-.016.015-.044-.002-.015.022-.014.057-.044.023.007a.024.024 0 0 1 .014-.003l.015-.007.007.01.014-.002.007.014.023.012-.014-.034.014.034.002.086-.005.02-.008.023-.008.024-.016.004-.043.018-.009-.011-.014.004v.003-.003l-.023-.005-.03-.023-.013.002-.019-.043-.003.003zm.406.799l.021.004c.057.05.059.062.018.119l-.03.012-.013.006-.008-.011-.014.003-.03-.02-.024-.043a.02.02 0 0 0 0-.014l.01-.01.017-.044.053-.002zm.032.31l-.005-.016.01-.01a.03.03 0 0 1 .001-.015l-.008.006.003-.019a.022.022 0 0 0 .01-.01l.013-.019a.016.016 0 0 0 .01-.008l.015-.006.044.017.02.01.02.027.002.016-.015.044-.016.005-.03.015-.014.007-.023-.007-.008-.01-.013.002-.016-.03zm.301-.577l-.013-.029.014-.045.03-.016.001.006h.037a.053.053 0 0 1-.002.072c-.015.042-.044.009-.067.012zm-.055-.593l-.046.02.046-.02.028-.016c0 .02-.009.027-.028.016zm-.602.277l.012-.009.021-.04.012-.007.066-.017.017-.003.007.01a.032.032 0 0 1 .016-.002l.015-.007.028.023.033.075.008.014-.04.063a.096.096 0 0 1-.088.051c-.06.01-.08-.036-.106-.074l-.004-.038c0-.005 0-.01-.002-.014l.01-.011-.005-.014zm.096.285l.01-.008.014-.019.015-.008.029-.014.037-.001.036.003.023.007.018.01a.022.022 0 0 1 .008.014l.009.014.008.052.007.014-.053.083.003.012-.013.008.002.014-.011.008-.015.008-.032.01-.042-.014-.014.004-.008-.011-.014.005-.05-.031a.071.071 0 0 1-.025-.087l.02-.038.011-.01-.004-.012.031-.013zm-.105.758V30v.036l-.018.082.018-.081zm.965-.843h-.001c0-.002-.002-.002-.006 0l.006-.003v.003zm-.624-1.65v.003c.002.02.04.039-.002.065.039-.024.01-.042.002-.06v-.005a.505.505 0 0 0-.034-.038l.034.036zm-.597 1.191l.006.051a.068.068 0 0 1-.068.05h-.037l-.026-.098.015-.007.03-.014.03-.013.028.025.022.006zm-.173.098l-.008.022.008-.022zm.366.595zm.037 1.093v.001l.003-.002a.054.054 0 0 0 .022.027l-.03-.023-.014.007.019-.01zm.917-.368l.008.001h-.008zm.007-.694l-.014.005-.01-.011-.05.003-.007-.014-.014.002a.177.177 0 0 1-.019-.058c.001-.033.016-.062.06-.05l.014-.006.022.009.006.014.042.054-.008.022-.011.008.004.014-.015.008zm-.212-.852l.1-.062-.1.062zm-.945.985l-.011.059-.024.027-.044.023v-.005l-.021-.002-.031-.018-.014.001-.015-.03-.012-.03.02-.068-.002-.013.016-.006a.014.014 0 0 1 .013-.006l.014-.011.017-.004.03.02.064.063zm-1.097 1.217c-.005-.024-.019-.05-.012-.07-.007.02.007.046.012.07l.007.015-.007-.015zm1.2-.79l-.021-.01-.022-.008-.011-.012-.035-.093.01-.009.006-.02-.002-.015.015-.007.022-.03a.044.044 0 0 0 .016-.006c.004 0 .008 0 .012-.003l.025.001v.005l.03-.011.007.011.014-.005v-.001l.03.022.011.015-.007.001.014.029.007.016.008.014-.012.007.002.014-.013.005-.011.014.008.01-.001.016-.01.007.003.015-.074.032.004.007a.024.024 0 0 0-.016.001l-.009-.011zm-.345-.751l.03-.014a.023.023 0 0 1 .015-.005l.014-.009.043.017.008.008c.028.003.05.024.056.052l.003.036-.001.001-.008.021-.054.04-.009-.01a.025.025 0 0 1-.014.003l-.014.009-.022-.008-.007-.015-.014.003-.017-.025-.013.006-.008-.015-.014-.03-.004-.015.013-.007.02-.03-.003-.013zm2.039 1.734l.06.009a.156.156 0 0 0-.047-.117.236.236 0 0 1 .054.116l-.002.02a.138.138 0 0 0-.065-.028zm0-1.695l-.041-.09.042.09zm-.123-2.9l-.006.005.006-.005.085.096-.085-.096zM5.744 27.54c.038.044.048.039.059.03l-.036.029.042.09a1.79 1.79 0 0 0-.06-.117.107.107 0 0 1-.008.055.102.102 0 0 0 .008-.057v.002a.182.182 0 0 0-.005-.032l-.005-.006a.27.27 0 0 0-.018-.046c.012.015.02.033.023.052zm-.113-.125l.002-.003-.002.003zm2.305 3.973zm-.016-2.872l.022.008-.022-.008zm-1.81.853l-.064-.024.064.024zm2.013.492H8.12a5.885 5.885 0 0 0-.09-.078l.092.078zm.104.054z" fill="#FCA819" fill-rule="nonzero"/><path fill="#F7B621" fill-rule="nonzero" d="M7.05 29.705l.021.004-.008-.01zm.453-.6l.022.013-.007-.015z"/><path d="M29.95 16.3c-.04-.073-.081-.144-.122-.216l-.208-.492-.108-.15-.213-.307-.09-.098-.144-.083a.388.388 0 0 0-.315-.213c-.108-.137-.265-.01-.387-.07l-.092-.104-.042-.103-.081-.111-.426-.619-.387-.493-.205-.249-.084-.092a.273.273 0 0 0-.03-.049l-.087-.104-.09-.098-.196-.244a.09.09 0 0 0-.024-.051l-.124-.209a13190.664 13190.664 0 0 1-.153-.514l-.015-.057-.033-.11-.013-.06-.06-.217-.022-.07.002-.001-.066-.217-.194-.813a48.658 48.658 0 0 1-.05-.172c-.074-.244-.146-.487-.222-.73-.007-.023-.038-.04-.058-.06l-.109-.325c-.03-.113-.067-.225-.089-.34a1.896 1.896 0 0 1-.016-.248h.002l.087.101a.07.07 0 0 0 .028.041l.088.108.065.054a.08.08 0 0 0 .02.043l.086.099.027.054.065.05c.003.016.01.033.02.047l.07.055c.002.014.01.028.02.039l.084.107.134.202.065.046-.002.006.215.306.23.362.097-.099-.204-.312-.241-.357-.198-.25a54.251 54.251 0 0 1-.174-.206.197.197 0 0 0-.022-.046l-.087-.096h-.002l-.089-.097-.088-.11a.088.088 0 0 0-.023-.043l-.069-.056-.108-.135-.001-.001-.087-.102-.002.003a.134.134 0 0 0-.024-.052l-.061-.059-.199-.247-.043-.097-.432-1.044-.1-.166-.039-.101-.45-.926-.831-1.532a.395.395 0 0 0-.284-.259.958.958 0 0 0 .125.21c.053.079.102.16.152.24l.776 1.551c.073.168.141.337.22.502.07.145.153.284.23.426l.091.27.152.337.242.661.052.103.333 1.074.109.215.156.51.049-.015-.049.015.03.3.026.299a.086.086 0 0 0 .003.051v.428l-.014.139-.016.128a.092.092 0 0 0 .005.051l-.018.139v-.001l-.02.13-.067.442.02.01.11.015-.11-.015-.02-.01-.024.079-.025.188-.045.204-.024.066-.033.187-.03.083-.275.135a.151.151 0 0 0-.047.024l-.102.084H24.9l-.303.408-.058.249-.038.078-.06.205-.098.278a.225.225 0 0 0 .01.053l-.012.188-.025.134-.016.13.003.185.19.258c.057.041.113.084.17.126l.198.069c.2.095.439.05.59-.113l.081-.149.094-.088.18-.426.011-.182.007-.379a.628.628 0 0 0-.01-.052l.015-.135a.827.827 0 0 0-.139-.708 98.332 98.332 0 0 0-.109-.145l-.008.013.008-.013-.07-.045a.111.111 0 0 0-.027-.044l.006-.19.035-.125.017-.137.06-.246.026-.142.027-.074.06-.433.022-.086a.103.103 0 0 0-.004-.05l.026-.08a.098.098 0 0 0-.005-.055l.013-.132a.116.116 0 0 0-.004-.054l.012-.137.014.006.106.155.201.669.061.23.087.332.06.362.015.062.035.11.048.221.045.309.032.112.027.109.042.308.046.219.03.248.015.246.01.103-.075.387-.152.49-.067.2-.067.202-.132.358-.034.071a.176.176 0 0 0 .003.053l-.078.153a1.78 1.78 0 0 0-.255.04 2.099 2.099 0 0 0-.25.11.302.302 0 0 0-.237.254l-.265.333-.082.144c-.084.238-.3.423-.287.701-.025.15-.037.303-.037.455a.488.488 0 0 0 .625.479c.057-.012.113-.028.168-.048l.214-.122.046-.07.152-.108.166-.242c.157-.163.27-.363.327-.582l.06-.207.03-.127.022-.079-.005-.055.032-.074-.043-.169c.07-.206-.073-.317-.194-.438l-.041-.11.02-.187h-.002l.04-.077.135-.405.099-.276h-.005l.04-.077.026-.129h-.002l.035-.075.086-.334.002.003.106.15.032.114-.004-.002v.188l.11 1.012.003.192.017.102.009.198.018.103-.006.14.019.104-.02.08.052.601a.09.09 0 0 0 .003.054l.005.19.013.116-.007.129-.076.194-.107.23-.032.118-.08.153.1.052.03-.07.11-.285a.175.175 0 0 0 .04-.014l.039.11.015.104-.004.14a.143.143 0 0 0 .004.05c0 .127-.002.252-.003.379l-.001.187.066.04-.066-.04-.015.185-.035.075-.001.002.014.054-.015-.054-.049.07-.086.141.088.047-.088-.047-.04.214.016.105-.031.316.017.247.035.301.017.057.033.117.117.391c.07.103.142.206.213.308a.511.511 0 0 0 .412.244c.245-.01.333-.109.395-.42a.367.367 0 0 0-.012-.052l.039-.077.17-.668.04-.26a34.845 34.845 0 0 1-.036-.163l.023-.078-.012-.06-.105-.331-.094-.177-.203-.235a89.343 89.343 0 0 1-.171-.133l-.272-.101a.1.1 0 0 0-.05.008l-.13-.254a18.8 18.8 0 0 0 .006-.14.189.189 0 0 0-.006-.05l.01-.138a.156.156 0 0 0-.004-.05l-.007-.193a.133.133 0 0 0-.004-.05l.011-.137a462.81 462.81 0 0 1-.02-.487.11.11 0 0 0 0-.045l.008-.33-.044-.404.007-.14-.026-.169.004-.13c-.005-.038-.01-.077-.017-.115l.002-.13-.014-.103.002-.195.132.083.14.273.06.16.135.27.057.164.181.435-.09.28a.142.142 0 0 0 .004.054l.02.25c0 .017.003.035.008.051a.174.174 0 0 0 .068.239l.01.043-.008.137.066.221.035.12a.1.1 0 0 0 .017.05l.03.118a.392.392 0 0 0 .206.31l.042.11.16.14.074.04c.33.166.418.158.608-.056l.09-.093.044-.07.058-.207-.077-.47-.036-.11-.098-.166-.045-.1-.155-.322-.082-.11-.134-.015.134.014a677.63 677.63 0 0 1-.13-.199l-.178-.198-.35-.142-.131-.025a53.39 53.39 0 0 0-.104-.16l-.174-.375-.176-.383-.039-.104-.15-.326-.23-.73-.059-.059-.052-.152.014-.135-.026-.11a24.726 24.726 0 0 0-.008-.193l-.08-.094.08.094-.063-.271-.028-.065.028.065.007-.137-.013-.06a11.099 11.099 0 0 0-.026-.108l-.018-.248-.058-.357-.055-.228a.076.076 0 0 0-.016-.055 526.62 526.62 0 0 0-.078-.471l-.033-.112-.064-.415a.065.065 0 0 0-.014-.054l-.016-.059.037-.06.135.195.065.058a.056.056 0 0 0 .023.036l.024.057.06.054c.006.016.015.03.028.041l.168.204.181.2.414.544.45.67.085.104.04.101.079.104.016.05-.008.19-.033.073-.038.075a.795.795 0 0 0 .103.774l.257.846.034.114.089.099-.089-.099.119.213.089.097.24.176h-.003l.02.053c.17.163.325 0 .487-.02l.102-.087.047-.022.108-.275.047-.26a.755.755 0 0 0 .016-.56zm-4.969-8.738zm.069 5.933l-.13-.023.13.023zm1.048 3.124zm1.027-.04l-.064-.04.064.04zm.01 0l.01-.001h-.01zm-.01-.244z" fill="#FF8114" fill-rule="nonzero"/><path d="M26.53 19.588l-.235.621-.024.135-.034.076-.032.071a.181.181 0 0 0 0 .05l-.026.082-.033.127a14.09 14.09 0 0 0-.103.041l-.011.185.011-.185a.308.308 0 0 0-.294.268l-.143.35a2.075 2.075 0 0 0-.073 1.625c.037.158.18.269.341.265.24.028.396-.121.471-.441l.08-.147.116-.222.089-.333c.013-.185.098-.367.022-.556l.008-.188c.05-.274-.12-.442-.297-.604l-.055-.098-.002-.061.029-.073a.114.114 0 0 0 0-.051l.034-.08-.001-.002.031-.068a.097.097 0 0 0-.002-.052l.031-.08.237-.631.048-.128.109-.272-.1-.053-.14.302-.051.127zm.247-9.442l.001.053a.187.187 0 0 0-.046.024l-.026.127-.014.563.135.453.072.04-.072-.04.315.644.159.145.02.05.087.1.075.04.074.039.431-.005c.377.033.435-.003.571-.356a69.282 69.282 0 0 0-.008-.243.827.827 0 0 0-.183-.628l-.037-.107a280.13 280.13 0 0 0-.192-.261l-.29-.338-.074-.048a42.54 42.54 0 0 0-.163-.13l-.073-.042-.352-.14c-.045-.006-.088-.013-.133-.018l-.213-.14-.047.092.047-.092-.043-.096-.096.1.04.1.035.114zm.428 1.049l.016.053-.016-.053h-.004c-.11-.029-.235-.128-.343.082.11-.212.236-.107.347-.082z" fill="#FF8114" fill-rule="nonzero"/><path d="M10.238 7.929a.08.08 0 0 0-.027.033l-.064.031-.088.067-.414.188-.085-.043a.13.13 0 0 0-.184-.084l-.125-.058.054-.219c.153-.052.359.001.458-.19l.064-.024a.48.48 0 0 0 .186-.406l-.014-.063.017-.038.012-.162a.57.57 0 0 0-.04-.026l-.027-.064-.024-.062-.118-.217a.596.596 0 0 0-.51-.184l-.112.002a75.38 75.38 0 0 1-.217.116c-.223.113-.223.333-.246.535-.003.1.002.2.017.298l-.1-.007-.24.049-.066.025-.021.044c-.042.018-.115.03-.121.055-.034.157-.126.315-.018.477l.047.131.069.087.044.02.096.155a.24.24 0 0 0-.022.043l-.04.198-.053.354.024.176.136.172c.06.04.123.076.182.12.215.189.53.21.77.05a.383.383 0 0 0 .219-.222c.152-.093.146-.258.182-.404l-.02-.068a.35.35 0 0 0 .016-.042l-.02-.067-.019.036a.849.849 0 0 1-.06-.065c.11.165.023.405-.243.517a.362.362 0 0 0 .23-.495c.005-.006.007-.015.013-.022.063.06.07.044.078.029l-.095-.26.041-.088.279-.144.174-.122a3.53 3.53 0 0 1 .067-.035l.085-.063-.006-.12-.064.026-.057.03zm-1.154-.652l-.044.003.044-.004z" fill="#FFC62C" fill-rule="nonzero"/><path d="M10.15 7.077a14.197 14.197 0 0 0-.078-.099.285.285 0 0 0-.044-.017l-.012.162.134-.046z" fill="#FFC62C" fill-rule="nonzero"/><path d="M25.202 8.436a246.881 246.881 0 0 0-.424-.254l-.165-.082-.261-.164-.047-.026-.08-.042-.254-.166-.171-.087-.21-.145-.122-.067-.215-.144-.26-.129-.166-.123-.434-.213a.703.703 0 0 0-.129-.104 28.23 28.23 0 0 0-.75-.348.677.677 0 0 0-.162-.03l-.086-.036-.965-.354-.039-.058-.091-.036-.51-.188-.046-.02-1.13-.59-.363-.278-.26-.235-.106-.15-.06-.086-.094-.15-.033-.063-.059-.089-.032-.066-.027-.062-.002-.005-.021-.054a.121.121 0 0 0-.036-.034l-.002.002-.026-.066v.001l-.026-.066-.024-.065-.025-.06a.116.116 0 0 0-.027-.028l-.03-.062-.032-.069v.002l-.028-.063v-.002l-.023-.058a.067.067 0 0 0-.03-.026l-.034-.07.001.002-.028-.065-.025-.059A.08.08 0 0 0 17 2.98l-.034-.067-.026-.058a.082.082 0 0 0-.031-.026l-.035-.068-.064-.093-.282-.448-.067-.088.002.002-.07-.087-.053-.128a.62.62 0 0 1-.039-.024l.017-.044-.017.044a.534.534 0 0 0 .039.024l.003-.112.04-.088.106-.113.085-.07.043-.089c.108-.022.077-.109.083-.178a.528.528 0 0 0-.142-.642.97.97 0 0 0-.986-.318l-.241.05-.065.024-.261.098L14.9.7l-.068.028a.292.292 0 0 0-.04-.026 56.234 56.234 0 0 1-.161-.126l-.289-.08-.22.003-.066.025c-.263.075-.321.14-.343.384l-.053.356-.2-.04-.135-.061-.22.006a.466.466 0 0 0-.407.408l.054.35c.048.058.06.105-.024.144-.032.015-.054.052-.08.079-.07.053-.179.077-.149.203l-.02.045a.655.655 0 0 0 .233.832c.112.08.256.1.386.054a.479.479 0 0 0 .369-.208l.02-.045.112-.005.406.178.865.359.247.067.131.055.156.026.514.08.19.023.333-.001.173-.031c.015.006.03.01.046.01l.166.094.081.08.08.049.44.354.362.277.242.175.361.272.332.219.205.144.206.144-.162-.018a.114.114 0 0 0-.043-.012 67.66 67.66 0 0 0-.157-.026l-.572-.155h-.112v-.001l-.178-.074-.107.002h-.003l-.068.017-.267-.02-.153-.019-.35-.047-.116-.004.117.004-.088-.038-.202-.039a.387.387 0 0 1-.02.032v.012l-.115-.004a88.176 88.176 0 0 0-.236-.055l-.445.012a.755.755 0 0 0-.043-.02l.043.02.445-.012.014-.044.123-.22.123.168.11.111.177-.03.025-.038a.459.459 0 0 0 .248-.542.253.253 0 0 0-.24-.23.33.33 0 0 0-.365.228 760.17 760.17 0 0 0-.31-.37c-.127-.183-.324-.171-.512-.182-.265.017-.37.114-.389.363a.527.527 0 0 0-.009.485l.022.066.023.064.028.064v.002l-.016.036h-.11l-.183-.071-.402-.186-.598-.34-.592-.376-.327-.214-.123-.101-.168-.089a.61.61 0 0 0-.1-.095c-.163-.097-.328-.189-.493-.283l-.1-.111-.186-.192a5.93 5.93 0 0 1-.075-.08 5.763 5.763 0 0 0-.078-.048l-.124-.105a.112.112 0 0 0-.037-.022l-.165-.126-.08-.046-.473-.278a.534.534 0 0 0 .015-.037l.02-.045a.677.677 0 0 0-.057-.425.689.689 0 0 0-1.1-.006l-.082.179-.044.088-.11.004.004.11-.003-.11c-.197-.067-.32.07-.458.166a.577.577 0 0 0-.184.623h.002l.045.132.095.15.024.067.246.169-.016.154-.06.133a.496.496 0 0 0 .209.48l.068.086a.746.746 0 0 0 1.073-.208c.031-.058.056-.119.084-.178l-.02-.063a.246.246 0 0 1 .021-.04c.262.114.539.19.822.223l.087.029.11.004a.116.116 0 0 0 .045.013c.37.03.738.062 1.107.093l.196.033a.099.099 0 0 0 .042.014l-.03-.07a.096.096 0 0 0-.04-.008l-.2-.037-1.038-.113a.122.122 0 0 0-.045-.015l-.114-.008-.083-.031-.76-.24-.126-.069-.025-.066-.028-.064-.042-.022a65.768 65.768 0 0 0-.16-.235l.084-.071.062-.134.02-.046a.73.73 0 0 0 .026-.037c.014.004.03.006.044.007l.197.047.47.16.29.09.084.035.091.04.27.123.218.11.297.182c.074-.092.138-.041.202-.005-.064-.036-.128-.087-.202.005l.166.089.212.145.13.167.03.07.262.022.587.376.371.234-.123.024.115.108a.671.671 0 0 1-.174.04c-.14-.01-.28-.035-.377.104l-.107.008a.63.63 0 0 1-.04-.026c-.065-.04-.136-.12-.194-.111-.196.028-.388.087-.581.134l-.086.07-.068.027-.066.018a.565.565 0 0 0-.037-.022l.014-.04.022-.045-.022-.066c.004-.234-.002-.24-.209-.332a.773.773 0 0 1-.135-.099l-.202-.149c-.122-.097-.25-.029-.375-.011l-.065.023-.09-.04a.99.99 0 0 0-.333.158.34.34 0 0 0-.002.445l.182.193.044.021.044.021.046.022.109.106a.288.288 0 0 1-.019.042l.002.001-.07.02-.109.013-.063.019-.106.01-.09-.05.038-.087c-.02-.256-.145-.345-.412-.329l-.093.364-.086.07-.01.021-.01.022-.04.085-.067.023-.112.004-.001-.002a.082.082 0 0 0-.044-.012l-.108.002h-.112.001a.118.118 0 0 0-.045-.015l-.071.01a.099.099 0 0 0-.039-.01l-.072.015a.082.082 0 0 0-.039-.01l-.507-.077-.046-.019a13.966 13.966 0 0 0-.157-.024l-.13-.055-.05-.017-.1.103.29.087.089.033.576.062c.013.006.027.01.042.012l.072-.013c.01.007.023.011.036.012.038 0 .075 0 .113.002a.147.147 0 0 0 .047.007.14.14 0 0 0 .035.024l.05.028-.292.13-.567.165a.118.118 0 0 0-.039-.004l-.063.021-.634.19-.127.042-.248-.042-.155-.028-.377-.118a215.056 215.056 0 0 1-.669-.214l-.179-.07-.128-.066v-.223c-.004-.214.01-.436-.238-.543l-.072.026.072-.026a44.134 44.134 0 0 1-.037-.172l.046-.092.045.02.266.35.08.081.084.042.264.015.111-.003a.506.506 0 0 0 .345-.167L7.796 5l.444.2.626.29.1-.103-.089-.043-.8-.378-.173-.086-.008-.107c.066-.123.125-.247.015-.376.033-.11-.046-.163-.114-.22l-.092-.15-.119-.106a.478.478 0 0 0-.042-.021 59.817 59.817 0 0 0-.248-.169 22.698 22.698 0 0 1-.155-.017.455.455 0 0 0-.453.112c-.033.03-.033.095-.048.144l-.082.178-.02.044a42.126 42.126 0 0 0-.158-.128l-.068-.086c-.006-.015-.008-.035-.02-.043a.638.638 0 0 0-.795.079.372.372 0 0 0-.055.429l.024.065.07.085.042.022.027.064a.406.406 0 0 0 .04.022c.048.076.014.136-.036.193l-.145.209.022.176a.38.38 0 0 0 .034.395l.184.299-.13.05-.065.026-.066.022v.001a.488.488 0 0 0-.322.232l.023.064-.023-.064-.06.133v.109l.019.068.026.065c.016.112.09.207.195.25.092.046.187.087.28.13l.068-.018a.45.45 0 0 0 .042.016l.044.022-.022.04-.086.071a.334.334 0 0 0-.233.272l.097.26a.355.355 0 0 0 .043.023.798.798 0 0 0 .158.173.426.426 0 0 0 .615-.085c.095-.168.095-.168.307-.075a.388.388 0 0 0 .354.058.7.7 0 0 0 .725-.537c.03-.15.103-.316-.046-.453l-.022-.065-.026-.065.041-.082a1450.67 1450.67 0 0 0 .7-.214v-.002l.07-.02a.11.11 0 0 0 .036 0l.2-.06c.189-.054.376-.108.564-.16l.118-.026.058-.017h.001l.504-.143.066-.023.505-.142.303-.08.067-.018.07-.013.17-.049c.123-.03.247-.062.372-.094l.067-.02.175-.033.063-.02.067-.023.069-.019.391-.037.067-.022.065-.024.066-.025h-.001l.066-.024h-.001l.072-.02c.013.006.026.01.04.011l.068-.015c.01.007.022.013.033.018l.016.22.084-.07-.084.07-.108.114a.082.082 0 0 0-.021.033l-.062.033a.145.145 0 0 0-.027.036l-.058.037a.1.1 0 0 0-.024.04.12.12 0 0 0-.024.035l-.062.034a.137.137 0 0 0-.024.04l-.058.03a.142.142 0 0 0-.028.036l-.061.032-.262.206.002.114-.002-.114-.01-.008-.058.024-.064.035-.238.156-.414.185-.195.074h-.001l-.065.024-.067.022-.465.156-.232.06-.067.023.078.098.233-.061.522-.177a.92.92 0 0 1 .045.008l.045.021.007.33-.06.128-.059.031-.048.082-.276.26-.2.169v.005l.006.12.172-.135.062-.033a.22.22 0 0 0 .025-.039l.3-.299.012-.018.009-.02.088-.073.132.06a.268.268 0 0 1 .065.032c.172.163.44.17.619.015l.01-.022.01-.022c.169-.116.138-.302.164-.467l-.044-.02.041-.09-.04.09.043.02.046.02.086.042c.1.173.275.12.425.142a.39.39 0 0 0 .33-.008.543.543 0 0 0 .378-.694c.051-.118-.039-.184-.097-.26a.65.65 0 0 0-.515-.297.75.75 0 0 0-.044-.02l-.04-.02a.67.67 0 0 0 .015-.045.144.144 0 0 0 .022-.038l.264-.208c.055.033.11.068.167.097.088.05.199.032.269-.041.109-.113.2-.244.3-.367l.042.023.124.435c.091.13.244.2.402.188a.407.407 0 0 0 .434-.232c.17-.117.12-.284.1-.444l.042-.08.087.022.067-.007.113-.001.282.06-.016.163a.515.515 0 0 0-.19.515.547.547 0 0 0-.015.045l.028.175c.06.276.3.322.515.39.054.017.132-.035.199-.056l.282-.14a.537.537 0 0 0 .045-.795l-.17-.197a.2.2 0 0 1 .004-.028l.494-.01.113.01a.067.067 0 0 0 .039.01l.112.005a.09.09 0 0 0 .043.01l.113.009.396.062.15.028-.006.003-.075.174c-.066.14-.158.275-.098.443l.021.066a.459.459 0 0 0 .3.41l.134.062a.49.49 0 0 0 .527-.08.679.679 0 0 0 .287-.734 7.271 7.271 0 0 1-.064-.086l.004-.098.28.064.153.022.204.049a.11.11 0 0 0 .04.008l.91.26c.161.057.321.117.483.17.216.068.434.132.65.198l.135.06.135.062.625.288.567.276.303.187.218.107.209.142.167.09.213.144.171.087.511.295.608.336.116.11.033-.022-.033-.091zm-10.56-6.714l.124-.268.224-.627-.223.627-.125.268zm1.838 2.005l-.063.018h-.001a993.27 993.27 0 0 1-.382-.022.096.096 0 0 0-.039-.01l-.117-.008a.07.07 0 0 0-.036-.012l-.444-.093-.203-.048.182.088c-.06-.03-.121-.058-.182-.087a28.213 28.213 0 0 0-.133-.056l-.292-.09-.486-.22-.088-.04-.045-.023-.268-.123-.308-.15-.005-.108-.027-.176.016-.154.087-.066.043.018.072.197c.083.07.175.13.274.176.252.13.545.157.816.073a.53.53 0 0 0 .062-.038h.001l.064-.023a.34.34 0 0 0 .025-.035l.13.05a38.056 38.056 0 0 0 .798.485l.166.127.25.169.185.159-.052.022zm.599.224a.101.101 0 0 0-.039-.026l-.116-.104-.237-.173-.453-.318-.164-.123-.126-.067-.683-.416-.087-.046-.078-.046.024-.086-.02-.287-.047-.13c-.076-.104-.154-.206-.225-.313a.726.726 0 0 1-.057-.143l.085-.172.045.015.179.194a.127.127 0 0 0 .182.087l.126.06.032.061a.303.303 0 0 0 .31.146l.046.019.442-.011-.072-.084.073.084.075.049.006-.003.029.063c.007.01.017.016.029.02l.04.067.289.41.032.061c.009.01.02.02.033.024l.035.067.065.09v-.003l.027.065.026.057a.076.076 0 0 0 .032.027l.033.07-.001-.003.029.063.001.003.062.09-.001-.004.027.066.027.062.002.004.022.054a.15.15 0 0 0 .034.034l.003-.001.04-.013-.04.013.022.071.055.124.026.058c.009.012.02.021.033.028l.03.066.028.064.024.06.06.091.031.065.048.132v.001l-.453-.313zm.477.377l.023-.043-.023.043zM11.905 3.17l-.292-.092-.079-.036-.054-.024-.087-.037a.126.126 0 0 0-.045-.017l-.048-.022a48.248 48.248 0 0 1-.2-.049l-.086-.033-.287-.082-.086-.044.04-.087.172-.136.025-.037.136.045.306.151.168.086.123.104.08.045.081.08.042.024c.011.01.024.018.038.024l.077.083-.007.005a.249.249 0 0 1-.017.04v.009zM8.118 6.396l-.454.153-.05.002-.065.019-.132-.06-.134-.07-.224-.102a.311.311 0 0 0-.351.053l-.13.045-.069.023-.023-.063-.019-.067-.031-.172.195-.182.012-.02.009-.022v-.001l.068-.021.33.096.046.018.242.063.543.151.21.084.054.031a.485.485 0 0 1-.027.042zm2.708 1.112c.004.009.014.007.025.002-.011.005-.021.007-.025-.002zm.028.002c.012-.005.027-.015.04-.021-.013.006-.028.016-.04.021zm.902-1.003l-.02.054.02-.054-.065.033.065-.033zm2.915-1.574l-.184-.077.184.077zm-1.75.61l-.01.02.01-.02.239-.164-.239.164zm.367-.213v-.002.002l.11-.005-.11.005zm4.66.756l-.003.014c-.078.04-.148.083-.066.212-.089-.139 0-.179.07-.226l-.005-.019c.033-.046.068-.091.097-.14-.035.05-.066.104-.093.159z" fill="#FFC62C" fill-rule="nonzero"/><path d="M22.628 5.553l-.028-.01a.038.038 0 0 0-.02.003l-.034-.01h.001l-.029-.01a.04.04 0 0 0-.02.003l-.033-.012h.001l-.03-.01h-.002l-.05-.009.001.001-.03-.012-.03-.01a612.96 612.96 0 0 1-.648-.276.05.05 0 0 0-.014-.014l-.025-.012h-.001l-.03-.018-.138-.091-.027-.014-.068-.046h-.002l-.028-.015-.03-.015h.001l-.039-.036-.068-.044-.291-.231-.21-.172-.14-.14.04-.042.01-.003.01-.005-.027-.01.027.01.102-.062.086-.033.12-.072a.502.502 0 0 0 .072-.068c.049-.07.043-.102-.019-.175l.088-.158c.11-.11.104-.206-.015-.29a.102.102 0 0 0-.15 0 .367.367 0 0 0-.142.138l-.014.03-.126.247-.013.03-.04.09-.047.067-.077.055-.05-.003-.066.024-.158-.16.054-.045.041-.019.157-.108.02-.01.167-.14a.935.935 0 0 0 .097-.121c.04-.07.03-.103-.038-.172-.035-.004-.056-.015-.039-.055.009-.02.014-.04.021-.061l.013-.03.051-.12a.385.385 0 0 0 .019-.33.116.116 0 0 0-.112-.083c-.052-.007-.077.021-.094.064a.61.61 0 0 0-.13.3l-.038.089-.007.049-.155.236-.013.03-.052.066-.045.07-.049.064-.017.016-.016.026-.015.024a.054.054 0 0 1-.078-.01l-.074-.075a.072.072 0 0 0-.012-.016l-.035-.04a.06.06 0 0 0-.01-.016l-.037-.04-.005-.013.102-.046a.701.701 0 0 0 .3-.242l.036-.038.048-.068a.28.28 0 0 0 .061-.197c-.004-.045-.023-.068-.066-.073l-.017-.042.07-.201a.516.516 0 0 0 .01-.27c-.002-.009-.017-.014-.025-.021-.024-.036-.044-.075-.098-.06-.108-.008-.147.072-.19.147l-.013.03-.083.23-.043.142.006.02-.086.159-.04.089-.048.068-.013.03-.012.03h.003-.003l-.026.06-.073.003-.045-.058-.01-.018-.038-.037a.047.047 0 0 0-.01-.019l-.011-.022-.034-.04a.04.04 0 0 0-.008-.017l-.017-.042.013-.032a.384.384 0 0 0 .184-.167l-.041-.036.041.036c.033-.024.07-.045.06-.095l.019-.013.141-.204a.293.293 0 0 0 .039-.042c.036-.055.035-.102-.001-.132-.044-.038-.086-.032-.146.019l-.036-.034.037-.09.031-.11.01-.103a.115.115 0 0 0-.21-.092l-.013.03-.068.077-.04.089-.07.2-.014.03-.068.201-.012.102c-.027.034.008.095-.05.116l-.01-.017-.063-.099-.033-.037-.04-.082-.036-.04-.012-.04-.018-.093-.006-.022.02-.01.02-.004.074-.007.021-.01.015-.028.036-.037.103-.115.073-.127a.445.445 0 0 0 .037-.071c.022-.065.013-.078-.063-.12l.01-.102-.008-.145-.052-.135c-.012-.031-.029-.052-.066-.042a.104.104 0 0 0-.168-.012.182.182 0 0 1-.05.025l-.054.117-.015.082.005.02-.017.083-.045.265-.012.154h-.004l-.037.015-.05-.058a.049.049 0 0 0-.009-.018l-.043-.062-.029-.057-.033-.06v-.027l.038-.037.03-.111.016-.083.007-.049.011-.032.02-.08.014-.155h-.003.003a.152.152 0 0 0-.011-.144l-.046-.058-.008-.021-.007-.146.004-.05-.017-.044h.001c.026-.075-.03-.116-.074-.153-.045-.038-.085-.01-.128.083l-.103.115a.418.418 0 0 0-.025.255l.02.116.014.095.016.045-.005.05-.016.006-.06-.075a19.846 19.846 0 0 0-.08-.142l-.004-.021a.059.059 0 0 0 .016-.012c.044-.039.017-.08.005-.121l-.007-.073-.007-.022.004-.051-.016-.043-.02-.116a1.109 1.109 0 0 0-.217-.617 1.144 1.144 0 0 0-.142-.11l-.03-.012c-.133-.03-.17-.004-.176.118l.03.137.008.022-.004.052a.89.89 0 0 0 .03.198.89.89 0 0 0 .11.168l.056.075.009.022.046.057.035.035.098.234.053.03.05.057.018.039.051.126-.013.031-.03-.014-.061-.03-.039-.032-.199-.19-.077-.068-.029-.015c-.041-.034-.088-.055-.134-.015-.049.042-.038.095-.012.147l.034.085.008.022-.043.015c-.094.005-.134.057-.096.131.015.03.05.051.076.076.07.065.155.108.248.126l.025.015.094.038.03.015.027.014.033.013.026.014.062.026.142.045.112.026.08.015.078.07.045.062.028.058.033.04.029.06.009.043-.111-.053-.13-.071-.06-.027-.059-.026a63.54 63.54 0 0 0-.19-.054l-.03-.011-.134-.02a.722.722 0 0 0-.146.001c-.086.018-.103.089-.04.15a.408.408 0 0 0 .222.132l.05.008.072.044-.012.103c-.035.084-.023.103.072.122l.03.012.213.04.051.004-.03-.013-.007-.02.007.02.03.013.093-.008c.072.03.154.025.22-.015l.059-.042.085.085.032.04.084.138.017.041.02-.005.02.04-.02-.04-.02.005-.012.03-.121-.05-.14-.045-.112-.03-.05-.008a.562.562 0 0 0-.322.003c-.06-.027-.08.049-.129.052-.038.06-.031.089.037.158a.371.371 0 0 0 .209.094l.086.052c-.006.111.031.161.134.16.117 0 .235-.01.352-.016l.188-.023c.052.019.061-.026.082-.055l.017-.008V3.11l.03.016.045.058.02.036.035.04.01.017.046.06.02.037a.057.057 0 0 0 .007.022l.008.023a.073.073 0 0 1-.021.005l-.112-.026-.023.001-.027-.01-.103-.009-.051-.004-.197.003a.64.64 0 0 0-.284.038c-.025.01-.05.018-.075.029-.089.04-.095.09-.016.149a.142.142 0 0 0 .042.014l.081.019.12.05.05.008.038.03-.04.02-.049.067c.006.066.028.083.107.082l.137-.03.115-.02.065-.023.051.004.022-.01.205-.105.116-.09.009-.005.009-.003.096.107.023.018.027.039-.019.032-.04.01-.055.004-.15.056-.128.05-.107.042-.086.034a.448.448 0 0 0-.22.135l-.021.009-.036.037-.02.009c-.082.104-.076.13.037.16l.153.015a.302.302 0 0 0 .211-.036l.128-.048-.024.06-.035.037-.028.059c-.002.075.011.084.099.06l.021-.007c.08-.002.166.017.224-.062l.058-.047a.153.153 0 0 0 .102-.115l.033-.04.042-.087.012-.03.048-.068.041-.016a98.889 98.889 0 0 1 .142.188l-.033.018-.038.037a.78.78 0 0 0-.243.267l-.17.192-.062.098a.085.085 0 0 0 .002.12c.03.042.086.053.13.026.057.04.135.033.183-.017.038-.034.078-.067.117-.1.082-.074.15-.161.204-.257a.882.882 0 0 0 .034-.084l.013-.03.023-.06v-.001l.019-.074a3.735 3.735 0 0 1 .079.069l-.009-.027.009.027.151.134.261.22.242.18.016.017.022.013.029.016.025.016.043.032.032.018c.002.006.005.01.01.013l.028.015.068.045.001.001.029.014.07.048.028.013.03.014h-.001l.03.015v-.001l.03.018a.02.02 0 0 0 .012.012c.192.114.399.2.615.256l.03.011h.001l.05.01-.001-.002.03.013.052.006h-.001l.031.012.028.009c.007 0 .014 0 .02-.002l.034.01.05.005a.996.996 0 0 0 .132.018.048.048 0 0 0 .055-.056l-.15-.002zm-4.371-4.156l.01-.005-.01.005.005.07-.005-.07zm.683.236l-.007.018.007-.019.014.01-.014-.01z" fill="#FF8C14" fill-rule="nonzero"/><path d="M28.827 7.88c-.152-.068-.268-.21-.448-.222l-.024-.016-.064-.01a82.74 82.74 0 0 1-.243-.061l-.3-.03a.419.419 0 0 0-.3-.03l-.025-.015-.064-.01-.129-.017-.324-.047-.04.006c-.076-.006-.15-.01-.225-.02-.055-.007-.109-.021-.163-.032l-.008-.043.098-.037.14-.047.039-.01c.07-.03.142-.058.211-.093a.423.423 0 0 0 .076-.062l.099-.037.114-.066a.145.145 0 0 0 .016-.021l.042-.01.097-.045.017-.017.039-.013.036-.04.038-.015.021-.019.053-.035.02-.018c.049-.028.1-.051.153-.072a.422.422 0 0 0 .223-.167l.058-.033.018-.022.13-.087a.595.595 0 0 0 .117-.076c.072-.075.137-.157.205-.235.013-.005.031-.006.038-.016.182-.198.336-.42.458-.658a.728.728 0 0 0 .03-.138l.058-.552.01-.112a.302.302 0 0 0-.011-.292.893.893 0 0 1-.163-.283.704.704 0 0 0-.2-.245 3.09 3.09 0 0 0-.318-.227.19.19 0 0 0-.068-.015l-.09-.026-.065-.01-.112-.04-.065-.011a.309.309 0 0 0-.106-.038c-.19.008-.378.023-.567.036l-.156.068-.098.04-.04.007v.003-.003l-.057.03-.041.01a.17.17 0 0 0-.017.022l-.155.073-.182.159-.132.086-.04.007a93.65 93.65 0 0 0-.293.01l-.146.007-.073.056-.074.057-.05.066a.64.64 0 0 0-.237.238c-.077.087-.185.154-.192.287l-.084.123a.066.066 0 0 0-.014.024l-.035.047-.058.136-.06.178-.009.023-.128.234a.115.115 0 0 0-.018.023l-.066.055.061-.2.039-.115v-.04l.026-.048.028-.132.023-.048a.075.075 0 0 0 .015-.024l.002-.04.056-.241.069-.35.026-.046.009-.107.01-.022.021-.13.014-.025.03-.193.016-.024.012-.17a.864.864 0 0 0 .017-.488l.015-.024-.007-.04-.018-.333c-.038-.168-.072-.336-.117-.502a.54.54 0 0 0-.083-.135.983.983 0 0 0-.405-.465.217.217 0 0 0-.081-.014l-.025-.016c-.135-.027-.27-.058-.405-.08-.11-.018-.221-.027-.331-.039l-.04.007-.018.023a.343.343 0 0 0-.358.108l-.04.008-.018.023a.187.187 0 0 0-.172.096 1.447 1.447 0 0 0-.34.398c-.006.01 0 .028 0 .042l-.036.154.007.04-.052.178-.114.06-.187.015-.236.087-.075.05-.246.15-.264.284-.033.048c-.03.107-.134.188-.113.315a.69.69 0 0 0-.02.34l.006.04.008.04.006.147-.026.089c-.034.173-.024.352.031.52l.007.04.046.14.042.097a.115.115 0 0 0 .019.017l.01.041.072.154.077.092.029.058.036.055.026.017.039.035.134.121.025.019.072.048.312.217.126.122-.023-.01-.073-.05-.04.004-.042.004-.071-.044-.09-.033-.207-.101-.091-.034a.104.104 0 0 0-.023-.01 1.392 1.392 0 0 1-.17-.03c-.083-.023-.163-.056-.244-.085l-.181-.156c-.06-.044-.12-.093-.202-.07l-.218-.043-.211-.006-.042.008-.023-.015a1.29 1.29 0 0 0-.792.269.306.306 0 0 0-.208.248l-.016.024.007.04a.531.531 0 0 1-.05.12.21.21 0 0 0-.034.18c.01.046.003.096.008.144a.593.593 0 0 0 .026.092l.079.195-.003.106-.104.355-.117.274.003.252a93.91 93.91 0 0 1-.021.235.666.666 0 0 0 .066.504c.034.109.108.2.207.256a.082.082 0 0 1 .041.04c.056.121.176.2.31.201l.194.028c.05.038.1.053.146-.005l.292-.012.302-.076a.509.509 0 0 1 .278-.092l.04-.007.041-.008.058-.03.04-.009.057-.032.058-.03a.34.34 0 0 0 .253-.112l.058-.026.04-.013.253-.108.167-.132.056-.031.058-.03v-.002l.056-.034.371-.278.117-.057c.046-.014.09-.023.11.038l.051.076-.05.033-.076.046-.149.116-.151.074-.107.138-.07.054-.057.038-.034.041-.097.048-.102.138-.054.038a.09.09 0 0 0-.016.02l-.053.075-.051.065-.073.061a42.6 42.6 0 0 1-.116.168l-.1.144-.059.03a.296.296 0 0 0-.25.206.78.78 0 0 1-.063.108.902.902 0 0 0-.166.36c-.003.027-.015.07-.032.075-.088.024-.094.101-.121.166a.697.697 0 0 0-.051.535l.024.122.138.283a.88.88 0 0 0 .282.292l.07.05c.11.159.252.292.417.393a.146.146 0 0 0 .056.006l.065.01.048.032.011.008.013.008c.12.078.26.036.388.063a.876.876 0 0 0 .17.004c.06.002.12.006.18.004a.917.917 0 0 0 .113-.015l.163-.03a.547.547 0 0 0 .359-.106.872.872 0 0 0 .572-.461 1.09 1.09 0 0 0 .164-.346c.027-.075.057-.149.079-.225a.228.228 0 0 0-.008-.083.235.235 0 0 0 .044-.218l.053-.178a.272.272 0 0 0 .04-.198.369.369 0 0 1 .009-.123v-.109l.028-.298-.024-.017.029-.192.011.007.012.007.076.09.066.115.081.132.039.057.206.214.103.11c.065.073.137.142.195.221.093.116.206.215.333.291.137.09.28.17.424.25a.81.81 0 0 0 .159.059c.074.022.148.044.223.062.187.05.384.053.573.01a1.08 1.08 0 0 0 .475-.17.646.646 0 0 0 .449-.343.367.367 0 0 0 .02-.08c.016-.039.034-.077.046-.118.015-.049.024-.099.036-.149l.122-.124.228-.127.073-.057.018-.022.148-.112a.888.888 0 0 0 .241-.402.805.805 0 0 0 .182-.622 1.265 1.265 0 0 0-.307-.694zm-4.094.888l-.042.003-.04.008-.028-.01-.138-.11.009-.022-.01-.037a.171.171 0 0 0-.017-.02l.017-.024.007-.068a.05.05 0 0 0 .018-.022.023.023 0 0 0 .016-.015l.039-.02.005.007.036-.044.02.01.001.002a.095.095 0 0 1 .017-.023h-.002l.066.006.031.013-.011.008.048.031.025.018.025.014-.013.023.017.018a.059.059 0 0 1-.017.02l-.004.031.02.007.015.027-.01.02.019.019-.083.116.011.007a.043.043 0 0 0-.023.016.135.135 0 0 0-.024-.009zm-2.216 2.269c-.078-.058-.155-.114-.231-.174.076.06.153.116.231.174l.096.066-.096-.066zm.507-4.843l-.009.014.007-.012-.14-.097c.047.032.094.065.142.095a.41.41 0 0 0 0-.001l.031.06-.031-.059zm2.01 2.39l.012.039-.011-.039-.022-.019.022.02zm-.372-.904l-.103-.004c-.06-.014-.11-.039-.117-.109l-.004-.075.01-.027-.017-.014.035-.047c0-.008.003-.016.007-.022l.005-.04.014-.027.032-.047.056-.036.059-.026.04-.01h.038a.03.03 0 0 1 .024.013l.025.014.06.071a.153.153 0 0 0 .023.016l-.007.173.017.016-.014.024.016.02v.001a.063.063 0 0 0-.01.02l-.015.026-.04.043-.077.017-.017.019-.023-.01-.017.021zm-2.175-.967l.046.031-.013.024.012-.024-.045-.03zm2.61 1.165l-.076-.047a.035.035 0 0 0-.013-.02l.009-.025-.014-.082.078-.051.035-.012c.132.025.145.041.134.164l-.035.046a.07.07 0 0 1-.014.02l-.023-.01-.017.02-.064-.003zm-1.034-.822v-.002l.01-.023-.004-.08a.063.063 0 0 0 .013-.021l.084-.086.024-.02a.072.072 0 0 1 .02.01.062.062 0 0 1 .023-.018l.016-.025.063.01.118.086a.14.14 0 0 1 .024.014l-.004.132a.17.17 0 0 1-.088.157c-.082.067-.154.016-.228-.019l-.04-.054a.05.05 0 0 0-.016-.02.157.157 0 0 0 .007-.026l-.022-.015zm-.27 1.625l.042-.112-.043.112-.081.015.081-.015zM24 9.716c.014-.007.02-.01.02-.016 0 .006-.006.01-.02.016zm-.135-1.806v.003l.006.038-.045.11.002.007-.002-.007-.023-.008a.044.044 0 0 1-.018.017l-.015.026-.04.008-.024-.016-.018.017-.05-.023-.014.02-.026-.016-.047-.032-.02-.02a.098.098 0 0 1 .012-.022l.004-.063a.079.079 0 0 0-.016-.019l.034-.047a.04.04 0 0 1 .017-.021l.015-.026.08-.013a.024.024 0 0 1 .02.005.114.114 0 0 1 .132.029l.036.053zm-.607-1.129l.089.026.011.009-.011-.008-.09-.027zm.697.02l-.017.02-.04.014-.066-.009-.018.015-.069-.049-.002.008-.022-.02-.017-.08-.017-.02.022-.043.046-.117.042-.01a.042.042 0 0 1 .02-.017l.016-.025.019.01.02-.017a.17.17 0 0 1 .023.017l.045-.004.08.129.012.036.007.042.01.043-.02.022-.05.066-.024-.01zm-.107-.817zm.057-.036l-.01.065.01-.065zm-.186-.912l-.128-.124.128.124.048.033-.048-.033zm-.04.827l-.016.024.017-.024-.024-.017.024.017zm-.413-1.316l.003.005c.02.028.096.023.056.1.037-.072-.023-.073-.052-.093l-.004-.007a.787.787 0 0 0-.085-.028l.082.023zm.278 1.972v.009c.062.037.062.037.079.126-.016-.082-.02-.09-.072-.112l-.008-.014a.197.197 0 0 0-.073.007l.074-.016zm-.289.473l.032-.05.034-.044.065.01.04-.01.056.073a.12.12 0 0 1-.06.138l-.057.032-.127-.125.017-.024zm.312.216l.014-.023.039-.15.137-.047.094.065.033.056a.131.131 0 0 1 .023.017l-.027.088a.04.04 0 0 1-.016.021l-.064.098-.04.01v.001-.002l-.024-.016-.02.02-.046-.03-.103-.108zm3.327-1.47c-.035 0-.049-.007-.058-.024.009.014.024.019.054.017l.004.007c-.007.033.025.055.057.077l-.096-.066-.065-.01c.035.006.07.005.104-.001zm-1.057 1.228a.095.095 0 0 0-.018.02l-.024-.01-.074.052a.188.188 0 0 0-.024-.015l-.019.016c-.027-.024-.065-.042-.081-.072-.028-.053-.032-.109.045-.13a.177.177 0 0 0 .017-.022L25.7 6.8a.116.116 0 0 0 .023.015l.113.046.006.04-.009.023.019.017-.015.026zm.35 1.701l-.025-.018.01-.064-.01.064.024.018zm-.081-.09l-.016.023.016-.023-.046-.034.046.034zm-.41-.642l.002.001h-.003zm-.054-.39a.054.054 0 0 0-.01.026l-.034.041-.024-.005-.092.074a.091.091 0 0 0-.017.017.126.126 0 0 1-.02-.015.026.026 0 0 1-.025-.004.114.114 0 0 1-.02.015l-.046-.032.009-.024-.042-.033-.082-.025-.017-.04-.001-.003.015-.063.091-.078.016-.024.04-.007.139-.019.023-.013.06.073.025.058a.06.06 0 0 1-.006.026l.017.013-.013.024.014.017zm-.676-.401l.01-.029.01.01.063-.1-.012-.003.042-.042.025.007.017-.019.023.012.018-.016.072.048.044.036.04.048.008.046.02.017-.012.022-.004.04-.007.03-.023.019-.033.048-.015.026-.064.023a.034.034 0 0 0-.02-.005l-.088-.028-.042-.034.008-.025-.049-.029.009-.006-.027-.015-.011-.037v-.005l-.002-.04zm1.344-1.275l-.06.137.06-.137zm-1.18.75l-.013-.01.013.01zm.567-.122l.003.004v.002c-.003-.004-.006-.002-.01.005l.007-.011zm-.446.178c.006.006.014.009.02.014-.006-.005-.014-.008-.02-.014zm.032.158l.032-.051.007.007.057-.032a.093.093 0 0 1 .062.111c.013.078-.06.054-.092.079l-.046-.032-.02-.082zm.56 1.081zm1.489-2.79c.025.025.05.053.074.08h-.001a1.676 1.676 0 0 0-.073-.08zm-2.504 1.394l.022.018.092.062-.008.026.008.039.007.087-.048.064-.029.05-.024-.008a.112.112 0 0 0-.017.018l-.04.008h-.001a.178.178 0 0 0-.024-.017l-.021.017-.021-.012-.08.016a.16.16 0 0 1-.02.018.03.03 0 0 0-.024-.005l-.104-.114V6.75a.056.056 0 0 1 .01-.026.043.043 0 0 0-.013-.016l.028-.048.03-.048.055-.043a.072.072 0 0 1 .02-.012l.095-.044.067.014a.022.022 0 0 1 .018.006l.022-.014zm-.822-3.917c.034.062.115.059.165.09-.051-.032-.134-.028-.165-.09zm-.855 3.713l.01-.169-.01.169zm1.065 2.056l-.046.074-.005-.007-.035.016h-.063l-.02.015-.05-.03-.046-.037-.03-.122-.015-.018.02-.023c0-.01.005-.018.014-.022l.012-.03.021-.02.063.005.155.037.036.1-.011.062zm.078-.873l-.002.037-.028.158-.058.029-.02-.01-.053.068-.081.013v.001l-.017.025c-.07.007-.133-.002-.164-.078l-.008-.037v-.002l.015-.022a.068.068 0 0 0-.015-.018l-.057-.034.057.034.045-.068.042-.012.004-.067-.018-.015.046-.073.02-.023.04-.008.065.01.08-.014.077.046.042.036-.012.024zm1.092.58l.007-.023a.056.056 0 0 1-.012-.025l-.007.016-.013-.031a.036.036 0 0 0 .006-.023l.003-.042a.03.03 0 0 0 .008-.02.092.092 0 0 0 .018-.024l.082-.013V7.89l.039-.004.054.025.019.022.015.081-.02.023-.03.048-.016.025-.04.01-.022-.01-.02.016-.05-.03-.021-.02zm2.458.92zM26.45 8.03l.012-.005-.012.005zm-1.842.151a.097.097 0 0 0-.015.023.032.032 0 0 0-.02.011.109.109 0 0 0-.026-.004l-.016.022-.002.002-.037.007h-.002l-.04.006h-.001l-.022-.014-.022.015.027.022-.027-.022-.042-.034-.004.008-.072-.048-.018-.026a.055.055 0 0 1-.025-.012l.011-.021-.017-.033a.035.035 0 0 1-.006.018.047.047 0 0 0-.014-.018.206.206 0 0 1 .008-.027l-.02-.018-.009-.04.014-.023h-.002l-.019-.018.008-.065a.143.143 0 0 0 .015-.02l.068-.063a.045.045 0 0 0 .02-.015c.01.003.018.007.026.012a.158.158 0 0 1 .018-.019l.023.012.184-.016.004-.001.04-.003.05.026.025.02.043.042.004-.01.023.018.006.044.018.02-.011.02-.001.071-.003.037-.044.072a.07.07 0 0 0-.02.02l-.025-.007a.094.094 0 0 0-.01.022.049.049 0 0 0-.022.016l-.02-.009zm.181.088h.002l-.009-.04.015-.024-.02-.019a.062.062 0 0 0 .011-.024l.031-.054.01.01.018-.024-.012-.005.105-.038.081-.014.024.016.018-.016.022.012.019-.019a.084.084 0 0 1 .02.014h.031l.01-.016h.004l.073.047a.05.05 0 0 0 .016.023l.009.044-.01.022.018.018a.055.055 0 0 1-.02.02l-.004.029.002.039a.154.154 0 0 0 .017-.022l.036-.013a.069.069 0 0 0 .02-.016l.04-.015.004.007a.043.043 0 0 1 .014-.022l.024.01a.115.115 0 0 0 .018-.018l.145.09.007.044.008.04-.03.09-.06.1-.046.005h-.038l-.097-.062-.03-.011.008-.01-.047-.034-.014-.035a.143.143 0 0 1-.02-.017l.011-.062a.029.029 0 0 1 .007-.023l-.067.055-.003-.006-.017.027.008.002-.027.02a.067.067 0 0 1-.01.02l-.043.013-.023-.012-.019.016.002.003-.025-.01-.022-.026-.072-.039-.02.015a.065.065 0 0 0-.025-.01l-.047-.038.008-.024-.039-.033zm.592 1.146l.002.002.002-.006a.096.096 0 0 0 .058.022l-.065-.01-.017.025a.37.37 0 0 0 .02-.033zm2.018.46zm.826-1.256a.68.68 0 0 1 .083.078l.014.032a.24.24 0 0 0-.124.014l.098-.039a.275.275 0 0 0-.07-.085zm-.004-3.46l.173.056.001.002a6.57 6.57 0 0 0-.174-.058zm-7.05.713a.05.05 0 0 0-.073.018.05.05 0 0 1 .072-.018zm-1.255.339c-.008-.008-.018-.015-.018-.02 0 .004.01.013.018.02zm7.544.206l-.007-.04.007.04.072.05-.072-.05zm-2.616-.533zm-4.188.191c.098.034.11.017.118-.006l-.029.075.144.1a3.298 3.298 0 0 0-.194-.124.19.19 0 0 1 .035.09.18.18 0 0 0-.039-.092l.004.002a.32.32 0 0 0-.039-.045l-.011-.004a.48.48 0 0 0-.07-.054.2.2 0 0 1 .081.058zM23.15 8.47a.152.152 0 0 0 .08 0l-.083.014-.002.003.005-.017-.002.003.001-.003zm1.306.387l-.016.024.016-.024.109.02-.109-.02zm1.912-1.378a14.723 14.723 0 0 0-.21-.037l.212.036h-.002zm-3.228 1.01l.003.001-.012.018.01-.019zm-.28.047h.002l.013-.005-.014.006-.12.021.12-.022zm5.431-.78l-.019-.01.019.01zm-1.713-.289z" fill="#FF9C1B" fill-rule="nonzero"/><path d="M25.641 7.503l-.017-.013a.06.06 0 0 0 .006-.026l-.025-.058-.06-.073-.023.013-.138.019-.041.007-.016.024-.09.078-.016.063.001.003.017.04.082.025.042.033.057.04a.026.026 0 0 0 .024.005l.021.016a.091.091 0 0 1 .017-.018l-.008-.04v-.002.002l.008.04.092-.074.024.005.033-.041a.054.054 0 0 1 .011-.027l-.014-.017.013-.024zm.192-.58l.01-.023-.007-.04-.113-.046a.116.116 0 0 1-.022-.015l-.041.006h-.001l-.016.022c-.078.021-.074.078-.046.13.016.03.054.048.081.072l.019-.016c.008.004.016.01.023.015l.075-.051.024.01a.095.095 0 0 1 .018-.021l.015-.026-.019-.017zm-1.968.987l-.036-.053a.114.114 0 0 0-.133-.03.028.028 0 0 0-.019-.004l.008.038-.074.054.073-.054-.007-.038-.08.013-.015.026a.04.04 0 0 0-.017.02l-.034.048a.079.079 0 0 1 .016.02l-.004.062a.098.098 0 0 0-.012.022l.02.02.047.032.026.015v.002l.014-.021.05.023.018-.017.023.016.041-.008.015-.026a.044.044 0 0 0 .018-.017l.023.008.045-.11-.006-.038V7.91zm.17-.092l.016-.025v-.001l.082-.013.053-.068.02.01.058-.03.028-.157.002-.037h-.01l-.03.007.03-.006h.01l.012-.025-.042-.036-.076-.046-.081.014-.065-.01-.04.008-.02.023-.046.073.018.015-.004.067-.042.012-.045.068a.068.068 0 0 1 .015.018l-.015.022v.002l.008.037c.031.076.094.085.164.078zm.155.14v-.001l-.001-.001zm1.381.312l-.146-.089a.115.115 0 0 1-.018.018l-.023-.01a.044.044 0 0 0-.014.022l-.004-.007-.04.015a.069.069 0 0 1-.02.016l-.037.013a.154.154 0 0 1-.017.022l.003.006-.003-.006v-.04l.004-.028a.055.055 0 0 0 .019-.02l-.019-.018.01-.022-.008-.044a.05.05 0 0 1-.016-.023l-.073-.047h-.004l-.01.017h-.032a.084.084 0 0 0-.02-.015l-.018.019-.022-.012-.018.016-.024-.016-.082.014.001.007v-.007l-.105.038.012.005-.019.024-.009-.01-.03.054a.062.062 0 0 1-.011.024l.018.02-.014.022.009.041h-.002l.039.033-.008.024.047.039c.01.001.018.005.026.01l.019-.016.072.039.021.025a.095.095 0 0 1 .026.012l-.002-.003.02-.016.022.011.042-.012a.067.067 0 0 0 .011-.022l.027-.019-.009-.001.018-.028.003.007.067-.055a.029.029 0 0 0-.007.022l-.01.062h-.002a.143.143 0 0 0 .02.017l.015.035.047.035-.008.009.03.01.097.064h.038l.046-.006.06-.1.03-.09-.008-.04-.007-.045zm-.664-.168l.016-.026-.016.026.223.189-.223-.189zm.517.078l.001.001.002-.001z" fill="#477E35" fill-rule="nonzero"/><path fill="#477E35" fill-rule="nonzero" d="M25.467 7.7l-.002-.002v.001zm-.396.727h-.001zm-1.35-1.647l.022.02.002-.008.069.05.018-.016.065.009.04-.013.018-.02.023.01.05-.066.021-.022-.01-.043-.007-.042-.011-.036-.08-.129-.046.004a.17.17 0 0 0-.023-.017l-.02.017-.02-.01-.016.025a.042.042 0 0 0-.019.017l-.042.01-.046.117-.022.043.017.02.017.08zm.315 1.39l-.063-.003-.021.02-.012.029a.026.026 0 0 0-.015.022l-.019.023.016.018.029.122.046.036.05.03.02-.013h.063l.035-.017.005.007.046-.074.01-.063-.035-.1-.155-.036zm.796.448l.01-.019-.013-.027-.021-.007.004-.031a.059.059 0 0 0 .017-.02l-.017-.018.013-.023-.025-.014-.025-.018-.048-.031.011-.008-.031-.013-.066-.006h.002a.095.095 0 0 0-.017.023l-.001-.001-.02-.011-.036.044-.005-.008-.039.021a.023.023 0 0 1-.016.015.05.05 0 0 1-.018.022l-.007.068-.017.023a.171.171 0 0 1 .018.021l.009.037-.009.022.138.11.028.01.04-.008.042-.003a.135.135 0 0 1 .024.01.043.043 0 0 1 .023-.017l-.012-.007.083-.116-.019-.02zm-1.117-1.273l.02-.019.024.016.04-.009.065-.098a.04.04 0 0 0 .016-.021l.027-.088a.131.131 0 0 0-.023-.017l-.033-.056-.094-.065-.137.047-.04.15-.013.023.103.108.045.03zm1.634-.398c.031-.025.105-.001.092-.079a.093.093 0 0 0-.063-.111l-.056.032-.007-.007-.032.051.02.082.046.032zm.221.965l-.053-.025-.04.004h.001l-.081.014h-.001a.092.092 0 0 1-.018.024.03.03 0 0 1-.008.02l-.003.042a.036.036 0 0 1-.006.023l.012.03.008-.015c.002.01.006.018.012.025l-.007.022.02.021.052.03.019-.015.022.008.04-.009.015-.025.032-.048.02-.023-.016-.08-.02-.023zm-.216-.25l.046.032a.114.114 0 0 0 .02-.015l-.057-.041-.009.024zm-1.734-.627v-.001zm.443.021l.022.015a.157.157 0 0 1-.007.027.05.05 0 0 1 .016.02l.04.053c.074.035.146.086.228.019a.17.17 0 0 0 .088-.157l.004-.133a.14.14 0 0 0-.024-.013l-.118-.085-.063-.01-.016.024a.062.062 0 0 0-.023.017.072.072 0 0 0-.02-.01l-.023.02-.085.087a.063.063 0 0 1-.013.02l.004.081-.01.023v.002zm-.677-.147l.006.037-.006-.037-.065-.011-.034.045-.032.049-.017.024.127.125.057-.032a.12.12 0 0 0 .06-.138l-.056-.073-.04.01zm1.11-.16v.036l.104.114a.03.03 0 0 1 .023.005.16.16 0 0 0 .02-.018l.08-.016.022.012.02-.017a.11.11 0 0 1 .025.017l.04-.008a.112.112 0 0 1 .018-.018l.024.008.029-.05.048-.064-.007-.087-.008-.04.008-.025-.092-.062-.022-.018-.022.014a.022.022 0 0 0-.018-.006l-.067-.014-.094.044-.01.058.01-.058a.072.072 0 0 0-.021.012l-.054.043-.03.048-.03.048c.006.004.01.01.014.016a.056.056 0 0 0-.01.026zm-.049.716l-.009.027.004.075c.008.07.058.095.117.11l.103.003.017-.02.023.008.017-.018-.004-.005.004.005.077-.017.04-.044.016-.025a.064.064 0 0 1 .01-.02l-.017-.021.014-.024a.103.103 0 0 0-.017-.016l.007-.173a.153.153 0 0 1-.024-.016l-.059-.072-.025-.013a.037.037 0 0 0-.024-.014h-.038l-.04.01-.059.027-.056.036-.032.047-.014.026-.005.04a.044.044 0 0 0-.007.023l-.035.047.016.014zm.045.777l.037-.007.002-.002.016-.022c.009 0 .017.002.026.004a.032.032 0 0 1 .02-.012.097.097 0 0 1 .015-.022l.021.01a.049.049 0 0 1 .021-.017.094.094 0 0 1 .011-.022l.025.007a.07.07 0 0 1 .02-.02l.044-.072.003-.037v-.07l.012-.02-.018-.02-.006-.045-.023-.019-.004.01-.043-.04-.025-.02-.05-.027-.04.003h-.004l-.184.017-.023-.012-.017.02a.098.098 0 0 0-.026-.013.045.045 0 0 1-.021.015l-.068.063a.143.143 0 0 1-.015.02l-.008.065.02.018-.013.023.01.04.019.017a.206.206 0 0 0-.008.028c.006.005.01.01.014.018a.035.035 0 0 0 .006-.018l.017.033-.012.02a.05.05 0 0 0 .026.013l.018.026.072.048.004-.008.042.034.022-.015.022.014h.001l.04-.006h.002zm.476-1.054l.01.037.028.015-.009.006.05.029-.009.025.042.034.088.028c.007 0 .014.001.02.005l.064-.023.015-.026.033-.048.023-.02.007-.03.004-.039.011-.022-.02-.017-.007-.046-.04-.048-.044-.036-.072-.048-.018.016-.023-.012-.017.02-.025-.008-.042.042.012.003-.063.1-.01-.01-.01.029v-.001l.002.04v.005zm.053.643l.076.047.064.003.017-.02.023.01a.07.07 0 0 0 .014-.02l.035-.046c.011-.123-.002-.14-.134-.164l-.035.012-.078.051.014.082h.006-.006l-.01.025a.034.034 0 0 1 .014.02zM6.118 25.988l-.01-.007a.037.037 0 0 0 .003-.015l-.015-.032-.035-.04-.013.007-.077.012-.023.005-.009.014-.05.045-.008.036v.002l.01.022.047.013.024.018.033.022a.015.015 0 0 0 .014.003l.012.008.01-.01.05-.043.014.002.018-.023c0-.006.003-.011.006-.016l-.008-.01.007-.013zm-.17.049l-.046-.05.045.05zm.27-.379l.005-.013-.004-.023-.064-.024-.013-.008-.023.004-.01.012c-.043.013-.04.045-.024.074.01.017.031.027.047.04l.01-.01.014.009.041-.03.014.005.01-.012.008-.015-.01-.01zm-1.098.584l-.021-.03a.064.064 0 0 0-.075-.014l.017.014-.017-.014a.016.016 0 0 0-.011-.003l-.045.009-.008.015a.023.023 0 0 0-.01.012l-.018.027.01.01-.002.036-.007.013.012.01.026.018.015.009.008-.012.028.013.01-.01.014.008.023-.004.008-.015a.024.024 0 0 0 .01-.01l.013.004.024-.063-.004-.022v-.001zm.184.023v-.001zm.7.109h.001l.001-.001z"/><path d="M6.089 26.423l-.084-.049-.01.01-.013-.005a.028.028 0 0 0-.008.013l-.002-.004-.023.009-.01.009-.022.008h.001l-.01.012v-.022l.002-.016a.03.03 0 0 0 .01-.011l-.01-.01.005-.013-.005-.025a.03.03 0 0 1-.01-.012l-.042-.026h-.002l-.006.01h-.017l-.012-.008-.01.01-.013-.006-.01.01-.013-.009-.046.009-.059.023.007.003-.01.013-.005-.005-.017.03-.006.015.011.01-.008.013.006.023h-.001l.022.019-.004.013.027.021.015.006.01-.01.041.022.013.014.015.006-.002-.002.011-.01.013.007.024-.008.006-.012.015-.011-.005-.001.01-.016.001.004.037-.032a.016.016 0 0 0-.003.013l-.005.035h-.001l.012.01.008.019.027.019-.004.005.017.006.056.034h.02l.027-.004.032-.058-.023.004.023-.004.016-.05-.005-.023-.004-.025zm-.067-.321l-.001-.001zm-.999-.496l.013.011.001-.005.04.027.01-.009.037.004.022-.008.01-.011.013.005.027-.038.012-.012-.006-.024-.005-.024-.007-.02-.047-.072-.026.003-.013-.01-.01.01h-.001l-.011-.005-.009.015a.023.023 0 0 0-.01.01l-.024.006-.025.066-.012.025.01.011.011.045zm.197.781v.006-.006l-.035-.001-.012.011-.006.017a.015.015 0 0 0-.008.013l-.011.013.009.01.018.068.027.02.029.017.01-.008.036-.002.02-.01.002.005.025-.043.006-.035-.022-.056-.088-.019zm.456.242l.006-.01-.009-.016-.011-.004.001-.017.01-.012-.01-.01.007-.013-.015-.008-.013-.01-.028-.016.006-.005-.018-.006-.037-.003-.008.013h-.001l-.011-.007-.02.026-.003-.004-.022.012a.014.014 0 0 1-.009.008.029.029 0 0 1-.01.013l-.003.039-.009.013.01.012.006.02-.005.013.08.06.016.005.022-.005.024-.002.013.005a.025.025 0 0 1 .013-.01l-.006-.004.045-.066-.01-.011zm-.648-.704l.011-.01.014.008.022-.006.035-.056a.023.023 0 0 0 .009-.012l.014-.05-.013-.01-.02-.03-.054-.036-.077.028-.02.085-.007.014.06.06.026.015zm.152.042l-.026.042.011.008-.001.038-.024.007-.024.04.008.01-.008.012v.001l.005.021c.019.042.054.047.094.042l.009-.014v-.001l.046-.009.029-.039.011.006.032-.018.014-.089v-.02h-.005l-.016.004.016-.004h.006l.006-.015-.024-.02-.044-.024-.045.009-.037-.005-.023.005-.01.013zm.075.128l-.077-.031.077.031.026.018-.026-.018zm.69-.417c.017-.015.06-.002.05-.046a.053.053 0 0 0-.036-.062l-.031.02-.004-.005-.018.03.013.045.026.018zm.139.542l-.031-.013-.022.002-.046.01-.01.013a.015.015 0 0 1-.004.012l-.002.023c0 .005 0 .01-.003.014l.008.017.004-.01a.03.03 0 0 0 .007.015l-.004.013.013.01.029.017.01-.009.012.005.023-.006.009-.014.017-.028.01-.013-.01-.045-.01-.013zm-.126-.138l.026.017.011-.009-.033-.022zm-.738-.325l.013.009-.004.014.01.011.023.03c.042.019.084.047.129.008a.096.096 0 0 0 .048-.09v-.075l-.014-.008-.068-.046-.036-.005-.008.014a.035.035 0 0 0-.013.01l-.011-.005-.013.012-.047.05-.007.011.003.046-.005.013zm-.384-.074l-.037-.005-.019.026-.017.028-.01.014.074.069.032-.02.009-.073h.001l.018-.005h.003l-.032-.04zm.624-.105l.001.02.06.063c.005 0 .01 0 .013.003l.012-.011.045-.01.012.007.011-.01.014.009.023-.005.01-.01.013.004.016-.029.026-.037-.005-.049-.005-.022-.004.002-.018.002.018-.002.004-.002.005-.015-.053-.033-.013-.01-.012.008a.013.013 0 0 0-.01-.003l-.038-.007-.053.026-.012.007-.03.025-.017.028-.015.027.008.009a.03.03 0 0 0-.006.015zm-.017.405l-.005.015.003.043c.006.04.034.052.068.06h.058l.01-.012.012.005.01-.01.043-.01.022-.026.009-.014.005-.012-.01-.012.008-.014-.01-.008.002-.098-.014-.009-.034-.04-.015-.007a.02.02 0 0 0-.014-.007h-.02l-.024.007-.032.016-.031.02-.018.028-.007.015-.003.022-.004.013-.019.027.01.008zm.035.437l.022-.003v-.002l.01-.012.014.002.01-.007.01-.013.012.005.011-.01.006-.012.014.004.011-.012.024-.041.001-.021v-.04l.006-.011-.01-.012-.005-.024-.013-.01-.002.005-.025-.023-.014-.01-.03-.015-.021.002h-.003l-.103.013-.014-.007-.01.012-.014-.008a.027.027 0 0 1-.012.01l-.037.036-.008.011-.004.037.011.01h.001l-.007.014.005.022.012.01-.004.015.008.01.003-.01.01.018-.006.012a.03.03 0 0 0 .015.007l.01.014.041.026.003-.005.023.019.013-.009.012.008h.001l.022-.004h.001zm.255-.6l.007.02.015.008-.004.004.028.016-.005.014.024.019.05.014a.02.02 0 0 1 .012.003l.036-.014.008-.015.018-.028.012-.011.004-.017.002-.022.006-.013-.011-.01-.005-.025-.024-.027-.025-.02-.041-.026-.01.01-.013-.007-.01.01-.014-.003-.023.025.007.001-.034.058-.007-.006-.005.016.002.023v.002zm.039.362l.043.025h.036l.01-.01.013.005.008-.012.02-.026c.004-.07-.004-.079-.079-.091l-.02.007-.043.03.009.047-.005.014a.02.02 0 0 1 .008.011zm1.976 3.372l-.073-.03-.022-.009-.014.007-.067.012-.025.026v.002l-.004.025.033.035.01.028-.01.01.013.028.014-.001a.015.015 0 0 0 .01.009l.006.013.013-.003.066-.01.01.01.029-.011a.03.03 0 0 1 .013-.01l-.002-.013.013-.007-.005-.011.01-.012.005-.035-.008-.053h-.015zm-.158.062l-.011-.066.012.066zm.45-.209l-.042-.054-.006-.014-.022-.009-.014.006c-.044-.012-.059.016-.06.05.003.02.01.04.02.058l.013-.002.007.014.05-.003.01.011.014-.005.015-.008-.004-.014.01-.009.01-.02zm-1.281.103l-.017.003-.014.01a.014.014 0 0 0-.013.007l-.016.006.002.013-.02.068.012.03.015.03.014-.001.03.018.022.002v.005l.044-.023.024-.027.011-.06-.065-.062-.03-.02zm.079-.258l-.007.02c-.006.046.022.068.058.085l.015-.007.044.016.045-.018.007.011.036.002.06-.068.01-.018.014-.008-.01-.03-.025-.044-.014.007-.037-.001.037.001.014-.007-.043-.016-.028-.024-.023-.007-.016.005-.043.023.005.012-.022.032-.023-.007-.042.02a.04.04 0 0 1 .002.014l-.014.005v.002zm.263.02l-.015-.004.015.005zm-.224-.02c-.029.036-.011.06.02.082-.031-.021-.049-.046-.02-.082zm.047.218v-.001zm.524.466l-.01-.011a.026.026 0 0 0-.012.006v-.004l-.024-.005-.014.003-.022-.004-.014.005.01-.019.011-.013.015-.004-.004-.014.011-.008.009-.024a.028.028 0 0 1-.002-.015l-.021-.044-.003-.001-.01.005-.014-.01-.006-.012-.014.004-.008-.012-.013.002-.007-.014-.044-.017-.062-.011.005.006-.016.006-.002-.007-.03.017-.012.009.003.014-.013.007-.008.022.009.027-.011.01.012.032.01.012.013-.002.024.04.004.018.008.013v-.002l.015-.002.007.012.024.006.012-.007.018-.002-.003-.003.016-.008v.004l.048-.008a.016.016 0 0 0-.01.009l-.022.027h-.002l.006.014-.003.02.013.031.03-.086.013-.01-.013.01-.03.086-.007.003.012.013.029.059.018.01.024.011.058-.032.04-.035.008-.021.01-.024a6.666 6.666 0 0 0-.046-.085l-.013.003z" fill="#477E35" fill-rule="nonzero"/><path fill="#477E35" fill-rule="nonzero" d="M7.461 29.932v.001h.001zm.159-.222l-.001-.001zm-.581-.932l.003-.003.019.043.014-.002.029.023.023.005.014-.004.009.011.043-.018.016-.004.008-.024.008-.023.005-.02-.002-.086-.023-.012-.021-.012-.007-.01-.015.008a.017.017 0 0 0-.014.003l-.023-.008-.056.044-.023.014.002.015-.015.044.006.016zm-.331.627l.01.01.053-.04.008-.02v-.002l-.002-.036a.064.064 0 0 0-.056-.052l.007.02-.007-.02-.008-.008-.043-.017-.014.009a.023.023 0 0 0-.015.005l-.03.013.003.014-.02.03-.013.007.004.015.014.03.008.014v.001l.013-.006.017.025.014-.003.007.015.022.008.014-.009c.005 0 .01 0 .014-.003zm1.102-.179v-.006l-.031.016-.014.045.013.029c.023-.003.052.03.067-.012.02-.02.02-.051.002-.072H7.81zm-.22.59l-.02-.01-.043-.016-.016.006a.016.016 0 0 1-.01.008l-.014.02a.022.022 0 0 1-.01.009l-.002.018.008-.005a.03.03 0 0 0 0 .016l-.011.008.005.017.016.028.013-.001.008.01.023.007.014-.008.03-.014.015-.005.016-.044-.003-.017-.019-.027zm-.513.072l-.007-.015-.014-.029h.007l-.011-.016-.03-.022-.014.007v-.001L7 29.801l-.03.011v-.005l-.025-.001a.013.013 0 0 1-.012.002.029.029 0 0 1-.016.006l-.022.031-.015.007.002.015-.006.02-.01.009.035.093.01.012.023.008.021.01.009.012a.024.024 0 0 1 .016-.001l-.004-.007.074-.032-.004-.015.01-.007.002-.017-.008-.01.01-.013.014-.005-.002-.014.012-.007-.008-.015zm-.227-.969l-.014.007.019.082.013.028.016-.004.007.014.022.008.06-.03c.005 0 .01-.002.014-.005l.038-.035-.006-.015v-.037l-.028-.059-.08-.016-.062.062zm.304.025l-.021.04-.012.01.006.014-.01.01c.001.005.002.01.001.015l.005.038c.025.038.046.083.105.074a.096.096 0 0 0 .088-.05l.04-.064-.008-.014-.033-.075-.028-.023-.015.007c-.005 0-.01 0-.016.002l-.007-.01-.017.003-.066.018-.012.005zm-.36-.108c.031.002.06-.02.068-.05l-.006-.051-.022-.006-.029-.025-.03.013-.029.014-.015.007.026.097.037.001zm.491.394l-.03.014.007.013-.007-.013-.014.008-.014.018-.01.009-.03.013.003.012-.012.01-.02.038a.071.071 0 0 0 .026.086l.05.032.014-.005.008.01.014-.003.042.014.032-.01.015-.008.01-.007-.001-.015.013-.008-.003-.012.053-.083-.007-.014-.008-.052-.009-.014a.022.022 0 0 0-.008-.013l-.018-.01-.023-.008-.036-.004-.037.002zm.376.025l-.014.004-.01-.01-.032.008.005.005-.06.03-.002-.007-.013.011-.01.02-.001.002-.006.021.009.015h-.006l.016.03-.011.009.01.029.035.038.009.009.037.007.015-.009.03-.014-.006-.012.006.012.016-.003.012-.012.013-.018.013-.008-.005-.013.01-.025-.007-.035-.01-.03-.022-.044-.013.002zm-.216.322l-.053.002-.016.044-.012.01a.02.02 0 0 1 0 .014l.025.044.03.02.014-.004.008.01.013-.005.03-.012c.04-.057.039-.069-.018-.119l-.02-.004zm-.268.089l.02-.034.012-.006-.003-.015.01-.023-.006-.016-.005.004-.009-.033-.006-.017-.017-.027-.02-.01H7.15l-.094-.045-.008-.013-.014.005-.008-.014a.025.025 0 0 1-.015.001l-.051.012-.013.005-.023.03.004.014h.001l-.013.007-.007.022.005.015-.012.01a.025.025 0 0 1 .001.013l.008-.007v.021l-.012.007c.002.005.005.01.009.014l.001.017.022.044.004-.003.01.029.015-.001.007.013.021.009h.002l.02.008h.001l.014-.007.012.01a.018.018 0 0 1 .012 0l.014-.007.008.01a.032.032 0 0 1 .015 0l.012-.009.01.011.015-.004.042-.023.012-.017zm.26-.585l.015-.003.044.015.007.012.015-.002.007.015.022.008.014-.004.009.01.028-.015.042-.018.022-.044.007-.021h-.005l-.016-.009.016.008h.005l.011-.01-.027-.056-.005-.015h-.015a.013.013 0 0 0-.007-.008l-.028-.026-.06-.005a.042.042 0 0 0-.013 0l-.038.005-.03.015-.027.015a.021.021 0 0 1 .002.011.03.03 0 0 0-.012.01l-.01.018.017.085a.017.017 0 0 1 .01.01z"/><path fill="#477E35" fill-rule="nonzero" d="M7.184 28.652l.021.012-.007-.014z"/></g></svg>